<?xml version="1.0" encoding="iso-8859-1"?>
<!-- Generator: Adobe Illustrator 19.0.0, SVG Export Plug-In . SVG Version: 6.00 Build 0)  -->
<svg version="1.1" id="Capa_1" xmlns="http://www.w3.org/2000/svg" xmlns:xlink="http://www.w3.org/1999/xlink" x="0px" y="0px"
	 viewBox="0 0 512.037 512.037" style="enable-background:new 0 0 512.037 512.037;" xml:space="preserve">
<path style="fill:#FFD54F;" d="M412.083,123.57l-99.904-27.563c-2.33-0.664-4.819-0.498-7.04,0.469
	C154.633,160.989,7.966,379.122,1.801,388.381c-2.401,3.589-2.401,8.272,0,11.861c2.415,3.597,6.765,5.375,11.008,4.501l95.872-19.2
	l19.52,117.12c0.772,4.865,4.775,8.568,9.685,8.96h0.789c4.626-0.009,8.718-2.999,10.133-7.403
	c0.853-2.581,85.184-260.459,187.349-314.133l78.571-47.104c5.052-3.03,6.691-9.582,3.661-14.634
	c-1.413-2.355-3.679-4.075-6.328-4.801L412.083,123.57z"/>
<path style="fill:#FFC107;" d="M511.497,84.957c-1.373-4.468-5.545-7.482-10.219-7.381l-74.603,0.576L404.211,7.069
	c-2.453-5.614-8.993-8.177-14.607-5.724c-2.561,1.119-4.605,3.163-5.724,5.724l-22.507,71.083l-74.667-0.576
	c-4.65-0.104-8.794,2.921-10.112,7.381c-1.434,4.423,0.163,9.265,3.947,11.968l60.651,43.349l-23.467,70.741
	c-1.869,5.587,1.144,11.631,6.731,13.5c3.295,1.102,6.921,0.531,9.717-1.532l59.861-44.288l59.989,44.288
	c4.741,3.497,11.419,2.49,14.916-2.251c2.063-2.796,2.634-6.422,1.532-9.717l-23.467-70.741l60.651-43.349
	C511.401,94.193,512.953,89.357,511.497,84.957z"/>
<path style="fill:#FFB300;" d="M138.675,340.957c-5.891,0-10.667-4.776-10.667-10.667c0-2.308,0.749-4.554,2.133-6.4
	c4.907-6.592,10.539-14.464,16.725-23.125c30.955-43.328,73.387-102.741,114.048-128.789c4.96-3.181,11.56-1.739,14.741,3.221
	s1.739,11.56-3.221,14.741c-37.205,23.872-79.957,83.669-108.16,123.285c-6.272,8.789-11.989,16.789-16.96,23.467
	C145.279,339.406,142.07,340.99,138.675,340.957z"/>
<g>
</g>
<g>
</g>
<g>
</g>
<g>
</g>
<g>
</g>
<g>
</g>
<g>
</g>
<g>
</g>
<g>
</g>
<g>
</g>
<g>
</g>
<g>
</g>
<g>
</g>
<g>
</g>
<g>
</g>
</svg>
