<?xml version="1.0" encoding="iso-8859-1"?>
<!-- Generator: Adobe Illustrator 19.0.0, SVG Export Plug-In . SVG Version: 6.00 Build 0)  -->
<svg version="1.1" id="Capa_1" xmlns="http://www.w3.org/2000/svg" xmlns:xlink="http://www.w3.org/1999/xlink" x="0px" y="0px"
	 viewBox="0 0 512.469 512.469" style="enable-background:new 0 0 512.469 512.469;" xml:space="preserve">
<path style="fill:#FF8F00;" d="M161.698,422.086l-71.317-71.317c-3.253-3.25-8.222-4.05-12.331-1.984
	c-31.559,15.734-44.387,54.073-28.653,85.632s54.073,44.387,85.632,28.653c12.409-6.187,22.466-16.244,28.653-28.653
	C165.748,430.308,164.948,425.339,161.698,422.086z"/>
<path style="fill:#FFA000;" d="M458.68,0.454c-32,0-112.555,101.163-136.533,132.16c-3.278,4.245-2.895,10.264,0.896,14.059
	l42.667,42.667c3.794,3.791,9.814,4.174,14.059,0.896C410.85,166.342,512.013,85.787,512.013,53.787
	c3.595-25.86-14.455-49.739-40.316-53.333C467.379-0.147,462.998-0.147,458.68,0.454z"/>
<path style="fill:#FFC107;" d="M359.565,152.902c-61.504-61.483-138.901-57.6-207.083,10.667
	c-15.104,15.104-26.816,28.373-36.267,39.019C95.8,225.734,87.01,235.12,74.68,235.12c-3.499,0-7.211,0-11.051-0.213
	c-19.137-3.307-38.82,0.633-55.211,11.051c-5.601,5.593-8.642,13.251-8.405,21.163c0,32,213.333,245.333,245.333,245.333
	c7.914,0.226,15.57-2.822,21.163-8.427c10.42-16.389,14.36-36.073,11.051-55.211c0-3.84-0.213-7.552-0.213-11.051
	c0-12.331,9.387-21.12,32.555-41.579c10.667-9.408,23.893-21.099,38.997-36.267c26.507-24.89,44.862-57.219,52.651-92.736
	C407.937,224.425,392.115,181.356,359.565,152.902z"/>
<path style="fill:#FFE082;" d="M76.813,299.12c-5.891,0.071-10.724-4.648-10.795-10.539s4.648-10.724,10.539-10.795
	c30.933-0.747,48.939-21.12,71.723-46.933c9.515-10.773,20.267-22.955,34.432-37.12c21.32-23.694,50.699-38.6,82.411-41.813
	c24.785,1.162,48.01,12.435,64.256,31.189c4.237,4.092,4.355,10.845,0.262,15.083s-10.845,4.355-15.083,0.262
	c-0.089-0.086-0.176-0.173-0.262-0.262c-12.344-14.621-30.084-23.618-49.173-24.939c-26.051,3.282-50.016,15.939-67.413,35.605
	c-13.696,13.717-24.213,25.6-33.493,36.096c-24.171,27.371-46.869,53.163-87.211,54.165H76.813z"/>
<g>
</g>
<g>
</g>
<g>
</g>
<g>
</g>
<g>
</g>
<g>
</g>
<g>
</g>
<g>
</g>
<g>
</g>
<g>
</g>
<g>
</g>
<g>
</g>
<g>
</g>
<g>
</g>
<g>
</g>
</svg>
