<svg height="464pt" viewBox="0 -2 464 463" width="464pt" xmlns="http://www.w3.org/2000/svg"><path d="m152 171.949219s56 72 64 200l-64 24s8-136-32-208zm0 0" fill="#d3843d"/><path d="m344 227.949219c-41.550781 43.964843-74.152344 95.589843-96 152l72 32s0-80 56-168zm0 0" fill="#d3843d"/><path d="m232 355.949219c-79.527344 0-144 46.558593-144 104h288c0-57.441407-64.472656-104-144-104zm0 0" fill="#ffd782"/><path d="m392 27.949219c-13.015625-20.542969-33.910156-34.175781-56-24-10.328125 4.507812-18.101562 13.394531-21.199219 24.230469-3.09375 10.832031-1.1875 22.484374 5.199219 31.769531l40 72 80-32c10.328125-4.507813 18.101562-13.394531 21.199219-24.230469 3.09375-10.832031 1.1875-22.484375-5.199219-31.769531-13.015625-20.542969-41.910156-26.175781-64-16zm0 0" fill="#f98c96"/><g fill="#ffd782"><path d="m152 331.949219c-3.917969-.007813-7.25-2.851563-7.878906-6.71875-.628906-3.867188 1.636718-7.617188 5.351562-8.867188l24-8c4.195313-1.394531 8.730469.875 10.128906 5.074219 1.394532 4.195312-.875 8.730469-5.074218 10.128906l-24 8c-.816406.261719-1.667969.390625-2.527344.382813zm0 0"/><path d="m152 299.949219c-3.746094.046875-7.023438-2.515625-7.882812-6.164063-.863282-3.648437.925781-7.402344 4.296874-9.035156l16-8c3.957032-1.976562 8.761719-.371094 10.738282 3.582031 1.976562 3.957031.371094 8.761719-3.585938 10.738281l-16 8c-1.101562.566407-2.324218.867188-3.566406.878907zm0 0"/><path d="m328 355.949219c-1.234375.011719-2.457031-.261719-3.566406-.800781l-16-8c-3.957032-1.972657-5.5625-6.78125-3.585938-10.734376 1.976563-3.957031 6.78125-5.558593 10.738282-3.585937l16 8c3.277343 1.679687 4.984374 5.382813 4.136718 8.964844-.851562 3.585937-4.039062 6.128906-7.722656 6.15625zm0 0"/><path d="m336 323.949219c-1.234375.011719-2.457031-.261719-3.566406-.800781l-16-8c-3.957032-1.972657-5.5625-6.78125-3.585938-10.734376 1.976563-3.957031 6.78125-5.558593 10.738282-3.585937l16 8c3.277343 1.679687 4.984374 5.382813 4.136718 8.964844-.851562 3.585937-4.039062 6.128906-7.722656 6.15625zm0 0"/></g><path d="m136 419.949219h16v16h-16zm0 0" fill="#fff"/><path d="m184 403.949219h16v16h-16zm0 0" fill="#fff"/><path d="m216 419.949219h16v16h-16zm0 0" fill="#fff"/><path d="m272 419.949219h16v16h-16zm0 0" fill="#fff"/><path d="m432 251.949219c-18.535156-16.367188-36.871094-21.105469-51.6875-18.335938l83.6875-54.464843c-16-15.199219-45.601562-17.597657-72 .800781-20.039062 13.953125-30.144531 28.742187-32 42.449219-1.304688-.683594-2.75-1.050782-4.222656-1.074219-1.332032-.003907-2.648438.269531-3.867188.800781-1.910156-13.601562-12-28.328125-31.941406-42.199219-26.402344-18.402343-56-16-72-.800781l58.910156 38.335938c-11.671875-1.65625-23.5625-.808594-34.878906 2.488281-9.199219 2.421875-17.785156 6.761719-25.191406 12.726562-4.636719-13.851562-12.449219-26.429687-22.808594-36.726562-15.269531-15.851563-35.976562-25.332031-57.953125-26.535157l113.953125-85.464843c-16.265625-23.878907-70.160156-19.070313-104 8-29.128906 23.304687-37.121094 46.648437-33.070312 66.847656-1.472657-.546875-3.023438-.835937-4.59375-.847656-.390626 0-.75.078125-1.128907.113281 3.714844-20.035156-4.40625-43.097656-33.207031-66.113281-33.839844-27.070313-87.734375-31.878907-104-8l113.953125 85.464843c-21.976563 1.203126-42.683594 10.683594-57.953125 26.535157-28.121094 28.121093-34.742188 69.257812-16 88l98.703125-98.703125c.789063-.015625 1.578125-.09375 2.351563-.242188l84.226562 84.226563c-.480469 2.222656-.976562 4.445312-1.28125 6.71875l6.3125-1.6875 9.6875 9.6875c3.953125-4.078125 6.847656-9.058594 8.433594-14.511719l92.742187-24.734375 18.886719-.691406 87.9375 79.9375c8-24 8.113281-50.703125-16-72zm-69.144531-10.496094.136719-.296875.0625.128906zm0 0" fill="#c8d952"/></svg>