<?xml version="1.0" encoding="UTF-8"?>
<svg width="17px" height="12px" viewBox="0 0 17 12" version="1.1" xmlns="http://www.w3.org/2000/svg" xmlns:xlink="http://www.w3.org/1999/xlink">
    <!-- Generator: Sketch 50.2 (55047) - http://www.bohemiancoding.com/sketch -->
    <title>Group 8 Copy</title>
    <desc>Created with Sketch.</desc>
    <defs></defs>
    <g id="Welcome" stroke="none" stroke-width="1" fill="none" fill-rule="evenodd" stroke-linecap="round" stroke-linejoin="round">
        <g id="Main-Mobile-Portrait" transform="translate(-69.000000, -255.000000)" stroke="#4A4A4A" stroke-width="1.27192982">
            <g id="contacts-popup">
                <g id="contacts" transform="translate(30.000000, 89.000000)">
                    <g id="Group-4" transform="translate(40.000000, 158.000000)">
                        <g id="Group-8-Copy" transform="translate(0.000000, 8.631579)">
                            <g id="email-02">
                                <path d="M0.0540256164,0.10231531 L5.87599734,4.54812331 C6.30844979,4.87769779 6.75510216,5.18934562 7.16690016,5.54649955 C7.47671684,5.81402025 7.71166116,5.78781977 8.02793235,5.54649955 C10.2224671,3.85036312 12.429911,2.17353231 14.6334821,0.491185613 C14.7716087,0.386383688 14.9110262,0.282960735 15.1291888,0.120241956 C15.1550068,0.379488824 15.192443,5.78506183 15.1898612,8.91808781 C15.1898612,9.73030274 14.9226443,10.021266 14.1752116,10.021266 C9.78614199,10.021266 5.3970724,10.021266 1.0080028,10.021266 C0.281224513,10.021266 0.00238950353,9.72892376 0.00109860071,8.96359391 C-0.00664681623,5.79195669 0.02820756,0.365699097 0.0540256164,0.10231531 Z" id="Shape"></path>
                                <polygon id="Shape" points="7.88046111 5.35964912 0.186595498 0.10231531 14.9235934 0.10231531"></polygon>
                            </g>
                        </g>
                    </g>
                </g>
            </g>
        </g>
    </g>
</svg>