<?xml version="1.0" encoding="UTF-8"?>
<svg width="23px" height="38px" viewBox="0 0 23 38" version="1.1" xmlns="http://www.w3.org/2000/svg" xmlns:xlink="http://www.w3.org/1999/xlink">
    <!-- Generator: Sketch 50.2 (55047) - http://www.bohemiancoding.com/sketch -->
    <title>ok</title>
    <desc>Created with Sketch.</desc>
    <defs></defs>
    <g id="Symbols" stroke="none" stroke-width="1" fill="none" fill-rule="evenodd">
        <g id="ok" transform="translate(-13.000000, -5.000000)" fill="#FFFFFF">
            <path d="M24.4184613,24.2332589 C21.7607099,24.2332589 19.4917593,23.2931642 17.6115416,21.4129464 C15.7313239,19.5327287 14.7912291,17.2708466 14.7912291,14.6272321 C14.7912291,11.9694808 15.7313239,9.70053023 17.6115416,7.8203125 C19.4917593,5.94009477 21.7607099,5 24.4184613,5 C27.0762126,5 29.3451632,5.94009477 31.2253809,7.8203125 C33.1055986,9.70053023 34.0456934,11.9694808 34.0456934,14.6272321 C34.0456934,17.2708466 33.1055986,19.5327287 31.2253809,21.4129464 C29.3451632,23.2931642 27.0762126,24.2332589 24.4184613,24.2332589 Z M24.4184613,9.87723214 C23.1178595,9.87723214 22.0045894,10.3402111 21.0786175,11.266183 C20.1526456,12.1921549 19.6896666,13.3124934 19.6896666,14.6272321 C19.6896666,15.9278339 20.1526456,17.041104 21.0786175,17.9670759 C22.0045894,18.8930478 23.1178595,19.3560268 24.4184613,19.3560268 C25.719063,19.3560268 26.8323331,18.8930478 27.758305,17.9670759 C28.6842769,17.041104 29.1472559,15.9278339 29.1472559,14.6272321 C29.1472559,13.3124934 28.6842769,12.1921549 27.758305,11.266183 C26.8323331,10.3402111 25.719063,9.87723214 24.4184613,9.87723214 Z M35.508863,25.3995536 C35.6926437,25.7812519 35.7986694,26.1311368 35.8269434,26.4492188 C35.8552173,26.7673007 35.8234096,27.0535702 35.7315193,27.3080357 C35.6396289,27.5625013 35.4523168,27.834634 35.1695773,28.124442 C34.8868378,28.41425 34.5864316,28.6757801 34.2683496,28.9090402 C33.9502677,29.1423003 33.5155622,29.4356381 32.9642202,29.7890625 C31.338468,30.8210617 29.1119278,31.4854896 26.2845327,31.7823661 L27.8325238,33.3091518 L33.4943541,38.9709821 C33.9184634,39.4092284 34.1305148,39.9322886 34.1305148,40.5401786 C34.1305148,41.1480685 33.9184634,41.6640604 33.4943541,42.0881696 L33.2398898,42.3638393 C32.8016436,42.7879485 32.2785833,43 31.6706934,43 C31.0628034,43 30.5397432,42.7879485 30.101497,42.3638393 C29.1543196,41.402525 27.2670617,39.5081987 24.4396666,36.6808036 L18.7778363,42.3638393 C18.33959,42.7879485 17.8165298,43 17.2086398,43 C16.6007499,43 16.084758,42.7879485 15.6606488,42.3638393 L15.4061845,42.0881696 C14.9679382,41.6640604 14.7488184,41.1480685 14.7488184,40.5401786 C14.7488184,39.9322886 14.9679382,39.4092284 15.4061845,38.9709821 L22.5948005,31.7823661 C19.7249945,31.4854896 17.4843175,30.8210617 15.8727023,29.7890625 C15.3213603,29.4356381 14.8866548,29.1423003 14.5685729,28.9090402 C14.2504909,28.6757801 13.9500847,28.41425 13.6673452,28.124442 C13.3846057,27.834634 13.1972936,27.5625013 13.1054032,27.3080357 C13.0135129,27.0535702 12.9817052,26.7673007 13.0099791,26.4492188 C13.0382531,26.1311368 13.1442788,25.7812519 13.3280595,25.3995536 C13.4694292,25.1168141 13.6673439,24.8694207 13.9218095,24.6573661 C14.176275,24.4453114 14.4731471,24.289807 14.8124345,24.1908482 C15.1517219,24.0918894 15.5475513,24.1060261 15.9999345,24.2332589 C16.4523177,24.3604917 16.9117625,24.6078851 17.3782827,24.9754464 C17.4489676,25.0319943 17.5549933,25.1097465 17.696363,25.2087054 C17.8377328,25.3076642 18.1416732,25.4808395 18.6081934,25.7282366 C19.0747136,25.9756337 19.5624319,26.1912193 20.071363,26.375 C20.5802942,26.5587807 21.2305853,26.7284218 22.0222559,26.8839286 C22.8139265,27.0394353 23.6126537,27.1171875 24.4184613,27.1171875 C25.704926,27.1171875 26.9348244,26.9369438 28.1081934,26.5764509 C29.2815624,26.215958 30.1297682,25.8590047 30.6528363,25.5055804 L31.4586398,24.9754464 C31.92516,24.6078851 32.3846048,24.3604917 32.836988,24.2332589 C33.2893713,24.1060261 33.6852006,24.0918894 34.024488,24.1908482 C34.3637754,24.289807 34.6606475,24.4453114 34.915113,24.6573661 C35.1695786,24.8694207 35.3674933,25.1168141 35.508863,25.3995536 Z"></path>
        </g>
    </g>
</svg>