<?xml version="1.0" encoding="UTF-8"?>
<svg width="108px" height="108px" viewBox="0 0 108 108" version="1.1" xmlns="http://www.w3.org/2000/svg" xmlns:xlink="http://www.w3.org/1999/xlink">
    <!-- Generator: Sketch 50.2 (55047) - http://www.bohemiancoding.com/sketch -->
    <title>cottage</title>
    <desc>Created with Sketch.</desc>
    <defs></defs>
    <g id="Welcome" stroke="none" stroke-width="1" fill="none" fill-rule="evenodd">
        <g id="Main-Desktop" transform="translate(-1092.000000, -2776.000000)" fill-rule="nonzero">
            <g id="cottage" transform="translate(1092.000000, 2776.000000)">
                <path d="M82.2857143,18.989011 L69.6263736,18.989011 C67.8785407,18.989011 66.4615385,17.5875802 66.4615385,15.8589542 L66.4615385,3.13005676 C66.4615385,1.40143075 67.8785407,0 69.6263736,0 L82.2857143,0 C84.0335473,0 85.4505495,1.40143075 85.4505495,3.13005676 L85.4505495,15.8589542 C85.4505495,17.5875802 84.0335473,18.989011 82.2857143,18.989011 Z" id="Shape" fill="#7AD062"></path>
                <path d="M85.8956044,7.12087912 L67.2032967,7.12087912 C65.4827736,7.12087912 64.0879121,5.52675165 64.0879121,3.56043956 C64.0879121,1.59412747 65.4827736,0 67.2032967,0 L85.8956044,0 C87.6161275,0 89.010989,1.59412747 89.010989,3.56043956 C89.010989,5.52675165 87.6161275,7.12087912 85.8956044,7.12087912 Z" id="Shape" fill="#60AE6B"></path>
                <path d="M95.3590595,97.3186813 L11.4541273,97.3186813 C9.71645612,97.3186813 8.30769231,95.9090831 8.30769231,94.1703827 L8.30769231,54.2919331 C8.30769231,52.5532327 9.71645612,51.1436345 11.4541273,51.1436345 L34.2538243,51.1436345 L51.1044518,33.0461644 C51.6995476,32.4070598 52.5335626,32.043956 53.4065934,32.043956 C54.2796242,32.043956 55.1136393,32.4068499 55.708735,33.0461644 L72.5593625,51.1436345 L95.3590595,51.1436345 C97.0967307,51.1436345 98.5054945,52.5532327 98.5054945,54.2919331 L98.5054945,94.1703827 C98.5054945,95.9090831 97.0967307,97.3186813 95.3590595,97.3186813 Z" id="Shape" fill="#61CEF3"></path>
                <path d="M95.3590595,51.1436345 L72.5593625,51.1436345 L55.708735,33.0461644 C55.1136393,32.4070598 54.2796242,32.043956 53.4065934,32.043956 L53.4065934,97.3186813 L95.3590595,97.3186813 C97.0967307,97.3186813 98.5054945,95.9090831 98.5054945,94.1703827 L98.5054945,54.2919331 C98.5054945,52.5532327 97.0967307,51.1436345 95.3590595,51.1436345 Z" id="Shape" fill="#23A3E1"></path>
                <path d="M87.8241758,97.3186813 L65.2747253,97.3186813 L65.2747253,73.4081693 C65.2747253,67.0869056 70.1878406,61.8119951 76.3743848,61.7156536 C82.6710114,61.6174271 87.8241758,66.8221757 87.8241758,73.2332884 L87.8241758,97.3186813 Z" id="Shape" fill="#C6C6C6"></path>
                <path d="M104.836021,56.967033 L71.8833792,56.967033 C71.0054577,56.967033 70.1667705,56.6054901 69.5683411,55.9685557 L54.0001055,39.4032433 L38.4316589,55.9685557 C37.8332295,56.605281 36.9945423,56.967033 36.1166208,56.967033 L3.16418947,56.967033 C2.16793208,56.967033 1.22989341,56.5017739 0.632307729,55.7115655 C0.0347220447,54.921357 -0.152379439,53.8982053 0.127112631,52.9501224 L11.2287486,15.31119 C11.6234125,13.9739623 12.8603494,13.0549451 14.2658254,13.0549451 L93.7343855,13.0549451 C95.1398615,13.0549451 96.3767985,13.9739623 96.7712514,15.3113991 L107.872887,52.9503316 C108.152379,53.8982053 107.965278,54.921357 107.367692,55.7117746 C106.770318,56.5017739 105.832068,56.967033 104.836021,56.967033 Z" id="Shape" fill="#FFD561"></path>
                <path d="M104.835937,108 L3.1640625,108 C1.41665625,108 0,106.523956 0,104.703297 L0,93.4945055 C0,91.6738462 1.41665625,90.1978022 3.1640625,90.1978022 L104.835937,90.1978022 C106.583344,90.1978022 108,91.6738462 108,93.4945055 L108,104.703297 C108,106.523956 106.583344,108 104.835937,108 Z" id="Shape" fill="#F9EAB6"></path>
                <g id="Group" transform="translate(18.989011, 61.714286)" fill="#EEEEEE">
                    <path d="M39.3244704,18.989011 L26.570657,18.989011 C24.8097805,18.989011 23.3822037,17.5720088 23.3822037,15.8241758 L23.3822037,3.16483516 C23.3822037,1.4170022 24.8097805,0 26.570657,0 L39.3244704,0 C41.0853469,0 42.5129237,1.4170022 42.5129237,3.16483516 L42.5129237,15.8241758 C42.5129237,17.5720088 41.0853469,18.989011 39.3244704,18.989011 Z" id="Shape"></path>
                    <path d="M15.9424793,18.989011 L3.1886659,18.989011 C1.4277894,18.989011 0.000212563556,17.5720088 0.000212563556,15.8241758 L0.000212563556,3.16483516 C0.000212563556,1.4170022 1.4277894,0 3.1886659,0 L15.9424793,0 C17.7033557,0 19.1309326,1.4170022 19.1309326,3.16483516 L19.1309326,15.8241758 C19.1309326,17.5720088 17.7033557,18.989011 15.9424793,18.989011 Z" id="Shape"></path>
                </g>
                <path d="M106.687424,52.9503316 L95.7077726,15.3113991 C95.3176539,13.9739623 94.0943083,13.0549451 92.7042756,13.0549451 L53.4065934,13.0549451 L53.4065934,39.4032433 L68.8039748,55.9685557 C69.3958287,56.605281 70.2253004,56.967033 71.0935754,56.967033 L103.683927,56.967033 C104.669238,56.967033 105.59697,56.5017739 106.187989,55.7115655 C106.779008,54.921357 106.963845,53.8982053 106.687424,52.9503316 Z" id="Shape" fill="#FFB23D"></path>
                <path d="M103.683894,90.1978022 L53.4065934,90.1978022 L53.4065934,108 L103.683894,108 C105.412098,108 106.813187,106.523956 106.813187,104.703297 L106.813187,93.4945055 C106.813187,91.6738462 105.412098,90.1978022 103.683894,90.1978022 Z" id="Shape" fill="#F8E49E"></path>
                <path d="M57.4756672,61.7142857 L53.4065934,61.7142857 L53.4065934,80.7032967 L57.4756672,80.7032967 C59.1610776,80.7032967 60.5274725,79.2862945 60.5274725,77.5384615 L60.5274725,64.8791209 C60.5274725,63.1312879 59.1610776,61.7142857 57.4756672,61.7142857 Z" id="Shape" fill="#C6C6C6"></path>
            </g>
        </g>
    </g>
</svg>