<?xml version="1.0" encoding="UTF-8"?>
<svg width="108px" height="108px" viewBox="0 0 108 108" version="1.1" xmlns="http://www.w3.org/2000/svg" xmlns:xlink="http://www.w3.org/1999/xlink">
    <!-- Generator: Sketch 50.2 (55047) - http://www.bohemiancoding.com/sketch -->
    <title>icon fire</title>
    <desc>Created with Sketch.</desc>
    <defs></defs>
    <g id="Welcome" stroke="none" stroke-width="1" fill="none" fill-rule="evenodd">
        <g id="Main-Desktop" transform="translate(-474.000000, -2776.000000)">
            <g id="icon-fire" transform="translate(474.000000, 2776.000000)">
                <rect id="Rectangle" x="0" y="0" width="108" height="108"></rect>
                <g id="bonfire-(1)" stroke-width="1" fill-rule="evenodd">
                    <path d="M92.2687763,108 L16.2412221,108 L13.0909091,102.558582 L13.0909091,81.6154486 L16.2412221,76.3636364 L91.5757075,76.3636364 C99.6402988,76.3636364 106.529193,82.0583548 107.789108,89.5244868 C109.364475,99.3316942 101.908944,108 92.2687763,108 Z" id="Shape" fill="#BF6015" fill-rule="nonzero"></path>
                    <path d="M92.3537929,108 L54.5454545,108 L54.5454545,76.3636364 L91.6644696,76.3636364 C99.6854773,76.3636364 106.537142,82.0583927 107.790248,89.5245745 C109.357101,99.3316364 101.941862,108 92.3537929,108 Z" id="Shape" fill="#994C10" fill-rule="nonzero"></path>
                    <path d="M89.135729,29.7061601 C89.5800145,28.7623115 89.5800145,27.5665042 89.0085787,26.6853831 C88.3740968,25.7415345 87.3583755,25.1748897 86.2793965,25.1748897 L79.9324612,25.1748897 C75.6165451,25.1748897 71.6814452,26.8744046 68.8253243,29.7061601 C66.4134888,21.2727818 61.3359405,13.971854 54.5447197,8.68533696 C47.5633024,3.27273566 38.7408506,0 29.1569782,0 C27.8875912,0 26.7451428,0.755246692 26.2371764,1.95105395 C25.7296331,3.14686122 25.9835106,4.46875272 26.9355509,5.34945428 L35.6943217,14.0977285 C37.5984023,15.9858452 38.6771697,18.5664812 38.6771697,21.2096348 C38.6771697,24.6080351 36.9632856,27.7548963 34.1075878,29.6434327 L32.0765685,30.9649046 C24.2696265,36.125757 19.6363636,44.7481567 19.6363636,54.0630757 C19.6363636,69.3568212 32.2030841,81.8181818 47.626137,81.8181818 L61.4628792,81.8181818 C73.3946946,81.8181818 83.9944998,74.3286521 87.9293881,63.1885536 C89.6432723,58.3425971 89.1987752,52.8041214 86.7234704,47.643269 C84.6924511,43.4266848 84.6924511,38.4542245 86.8506207,34.3005775 L89.135729,29.7061601 Z" id="Shape" fill="#FD4E26" fill-rule="nonzero"></path>
                    <path d="M86.8508871,34.3279612 C84.6927629,38.4792145 84.6927629,43.4485996 86.7237395,47.6629635 C89.1989922,52.8208418 89.6434798,58.3561258 87.9296318,63.1992896 C83.9948263,74.3329682 73.3954558,81.8181818 61.46368,81.8181818 L54.5454545,81.8181818 L54.5454545,8.72727273 C61.3365324,14.0107432 66.4139738,21.3074636 68.8257585,29.7359818 C71.6818193,26.9056486 75.6168364,25.2073228 79.9326616,25.2073228 L86.2794634,25.2073228 C87.3582081,25.2073228 88.3741195,25.7736411 89.0085881,26.7169457 C89.5800118,27.5975591 89.5800118,28.7928869 89.1357357,29.7359818 L86.8508871,34.3279612 Z" id="Shape" fill="#FD3018" fill-rule="nonzero"></path>
                    <path d="M65.3536364,64.6815994 L56.8227273,46.3897247 C56.3207,45.3026713 55.1288818,44.7272727 54,44.7272727 C52.8709091,44.7272727 51.6790909,45.3026713 51.1772727,46.3897247 L42.6463636,64.6815994 C41.8309091,66.4082214 41.4545455,68.1992266 41.4545455,70.1177192 C41.4545455,77.1527604 47.1002091,82.9090909 54,82.9090909 C60.8997909,82.9090909 66.5454545,77.1527604 66.5454545,70.1177192 C66.5454545,68.1990134 66.1693,66.4080082 65.3536364,64.6815994 Z" id="Shape" fill="#FE9923" fill-rule="nonzero"></path>
                    <path d="M67.6363636,70.1177906 C67.6363636,77.1527926 61.7452364,82.9090909 54.5454545,82.9090909 L54.5454545,44.7272727 C55.7236364,44.7272727 56.9672727,45.3026681 57.4909091,46.3897154 L66.3927273,64.681488 C67.2438545,66.4081003 67.6363636,68.1990956 67.6363636,70.1177906 Z" id="Shape" fill="#FE8821" fill-rule="nonzero"></path>
                    <path d="M15.8181818,108 C7.09645818,108 0,100.903542 0,92.1818182 C0,83.4600945 7.09645818,76.3636364 15.8181818,76.3636364 C24.5399055,76.3636364 31.6363636,83.4600945 31.6363636,92.1818182 C31.6363636,100.903542 24.5399055,108 15.8181818,108 Z" id="Shape" fill="#994C10" fill-rule="nonzero"></path>
                    <path d="M15.8181818,101.454545 C10.7052,101.454545 6.54545455,97.2948 6.54545455,92.1818182 C6.54545455,87.0688364 10.7052,82.9090909 15.8181818,82.9090909 C20.9311636,82.9090909 25.0909091,87.0688364 25.0909091,92.1818182 C25.0909091,97.2948 20.9311636,101.454545 15.8181818,101.454545 Z" id="Shape" fill="#FEB756" fill-rule="nonzero"></path>
                    <path d="M56.7272727,92.7272727 C56.7272727,94.5602182 55.3674788,96 53.6363636,96 L41.2727273,96 C39.5416121,96 38.1818182,94.5602182 38.1818182,92.7272727 C38.1818182,90.8943273 39.5416121,89.4545455 41.2727273,89.4545455 L53.6363636,89.4545455 C55.3674788,89.4545455 56.7272727,90.8943273 56.7272727,92.7272727 Z" id="Shape" fill="#994C0F" fill-rule="nonzero"></path>
                    <g id="Group" transform="translate(53.454545, 89.454545)" fill="#713708" fill-rule="nonzero">
                        <path d="M31.5745411,6.54545455 L18.8233163,6.54545455 C17.0901949,6.54545455 15.6877692,5.08167273 15.6877692,3.27272727 C15.6877692,1.46378182 17.0901949,0 18.8233163,0 L31.5745411,0 C33.3076625,0 34.7100882,1.46378182 34.7100882,3.27272727 C34.7100882,5.08167273 33.3078715,6.54545455 31.5745411,6.54545455 Z" id="Shape"></path>
                        <path d="M3.14558084,3.27272727 C3.14558084,5.10567273 1.76614916,6.54545455 0.0100337507,6.54545455 L0.0100337507,0 C1.76614916,0 3.14558084,1.43978182 3.14558084,3.27272727 Z" id="Shape"></path>
                    </g>
                </g>
            </g>
        </g>
    </g>
</svg>