<?xml version="1.0" encoding="UTF-8"?>
<svg width="108px" height="98px" viewBox="0 0 108 98" version="1.1" xmlns="http://www.w3.org/2000/svg" xmlns:xlink="http://www.w3.org/1999/xlink">
    <!-- Generator: Sketch 50.2 (55047) - http://www.bohemiancoding.com/sketch -->
    <title>fishing</title>
    <desc>Created with Sketch.</desc>
    <defs></defs>
    <g id="Welcome" stroke="none" stroke-width="1" fill="none" fill-rule="evenodd">
        <g id="Main-Desktop" transform="translate(-783.000000, -2786.000000)" fill-rule="nonzero">
            <g id="fishing" transform="translate(783.000000, 2786.000000)">
                <path d="M106.758351,75.435367 C104.644668,77.6004354 98.8486706,83.1806427 90.7214764,88.2407217 C87.5352192,90.2232522 84.3531856,91.907847 81.1880463,93.29031 C74.0132659,96.420312 66.9121867,98 59.9823731,98 C58.1537808,98 56.310406,97.8887987 54.45246,97.6642979 C48.2425529,96.9215572 41.8890447,94.9392365 35.4933008,91.7441923 C29.5030191,88.7505692 24.3931394,85.1275048 20.6981539,82.1716483 L5.29270201,95.5139165 C5.28847844,95.5181128 5.28425488,95.522309 5.28003132,95.5244072 L5.24835458,95.551683 C5.23990745,95.5600755 5.22934854,95.5663699 5.22090141,95.5747625 C5.16599507,95.6209215 5.10686517,95.6670806 5.04984704,95.7090433 C5.02661744,95.7258284 5.00338783,95.7426135 4.98015823,95.7593986 C4.93158724,95.7929688 4.88090446,95.8244409 4.83022168,95.855913 C4.80276851,95.8726981 4.77320356,95.8915813 4.74575039,95.9083664 C4.6971794,95.9356422 4.64649662,95.9608198 4.59581385,95.9859975 C4.54301929,96.0132733 4.48811295,96.0384509 4.43320661,96.0615305 C4.3867474,96.0825118 4.33817641,96.1034932 4.2917172,96.1223765 C4.25159333,96.1370634 4.21146947,96.1496523 4.1713456,96.1622411 C4.12910996,96.176928 4.08687431,96.191615 4.04252688,96.2021057 C4.0045148,96.2146945 3.96650272,96.2230871 3.92849064,96.2335778 C3.87991965,96.2440685 3.82923687,96.2566573 3.7785541,96.2650498 C3.74687736,96.2713442 3.71520063,96.2776387 3.68352389,96.2839331 C3.61805864,96.2944238 3.55470517,96.3028163 3.48923992,96.3091107 C3.47023388,96.3112089 3.45122784,96.313307 3.4322218,96.3154051 C3.34352694,96.3237977 3.25483208,96.327994 3.16613723,96.327994 C3.05843633,96.327994 2.95073543,96.3216996 2.84303453,96.3091107 C2.82825206,96.3091107 2.81558136,96.3049145 2.80079889,96.3049145 C2.71210403,96.2944238 2.62340917,96.2797368 2.53471432,96.2629517 C2.49670224,96.2545591 2.46080194,96.2440685 2.42278986,96.2356759 C2.36154817,96.2209889 2.2981947,96.2042038 2.23484123,96.1853206 C2.18415845,96.1706336 2.13558746,96.1517504 2.08701647,96.1349653 C2.05322795,96.1223765 2.01943944,96.1139839 1.98565092,96.0992969 C1.97086844,96.0930025 1.95608597,96.08461 1.93919171,96.0783156 C1.88428537,96.0552361 1.82937903,96.0300584 1.77658447,96.0027826 C1.73012526,95.9818012 1.68366605,95.9587217 1.63931862,95.9356422 C1.59285941,95.9083664 1.5464002,95.8810906 1.49994099,95.8517167 C1.44925821,95.8202446 1.40068722,95.7887725 1.35211623,95.7552023 C1.31410414,95.7300247 1.27609206,95.7027489 1.23807998,95.673375 C1.18317364,95.6314122 1.13249087,95.5894495 1.07969631,95.5432904 C1.05013136,95.5181128 1.0205664,95.4929351 0.993113234,95.4656593 C0.93398333,95.4111077 0.881188772,95.354458 0.828394214,95.2978083 C0.811499956,95.2789251 0.794605697,95.2642381 0.779823221,95.247453 C0.773487874,95.2390604 0.767152528,95.232766 0.760817181,95.2243735 C0.716469752,95.1740182 0.676345888,95.1215647 0.636222025,95.0670131 C0.612992419,95.0355411 0.585539249,95.004069 0.564421426,94.9704988 C0.532744692,94.9264379 0.505291522,94.8802789 0.475726569,94.8341198 C0.448273399,94.7900589 0.420820229,94.7459981 0.395478842,94.7019372 C0.376472801,94.668367 0.359578542,94.6326986 0.342684284,94.5991284 C0.313119332,94.5403805 0.283554379,94.4816327 0.258212992,94.4228848 C0.245542298,94.3977072 0.237095169,94.3704314 0.226536257,94.3431556 C0.199083087,94.2760152 0.1737417,94.2088748 0.150512094,94.1396362 C0.139953183,94.1081642 0.133617836,94.0787902 0.125170706,94.0473182 C0.106164666,93.9822759 0.087158625,93.9172336 0.0723761488,93.8500932 C0.0618172373,93.7997379 0.0554818904,93.7493826 0.0449229788,93.6969291 C0.0385876319,93.6507701 0.0280287204,93.6046111 0.0216933735,93.558452 C0.0132462442,93.4871154 0.0111344619,93.4136805 0.00691089732,93.3423438 C0.00479911501,93.3150681 0.000575550399,93.2877923 0.000575550399,93.2584183 C-0.00153623191,93.1849835 0.00268733271,93.1073524 0.00479911501,93.0318194 C0.00691089732,93.0066418 0.00691089732,92.9814641 0.00691089732,92.9562865 C0.0132462442,92.8891461 0.0216933735,92.8241038 0.0301405027,92.7590615 C0.0364758496,92.7212951 0.0385876319,92.6856267 0.0449229788,92.6478602 C0.0554818904,92.5975049 0.0681525842,92.5450515 0.0787114957,92.492598 C0.0913821896,92.4422427 0.101941101,92.3897893 0.114611795,92.339434 C0.127282489,92.2995693 0.139953183,92.2618029 0.152623876,92.2219382 C0.1737417,92.1589941 0.19274774,92.09605 0.218089128,92.035204 C0.222312693,92.0247133 0.224424475,92.0163207 0.228648039,92.0058301 L8.15099936,72.4161466 L0.231393356,53.0010283 C0.227169792,52.9905376 0.22505801,52.9800469 0.220834445,52.9695562 C0.19760484,52.9087102 0.176487016,52.8457661 0.155369193,52.782822 C0.1426985,52.7429573 0.130027806,52.7051909 0.117357112,52.6653262 C0.102574636,52.6128728 0.0920157243,52.5604194 0.0814568127,52.5079659 C0.0687861189,52.4576106 0.0561154251,52.4072553 0.0476682958,52.3548018 C0.0413329489,52.3170354 0.0371093843,52.2771707 0.0307740374,52.2373061 C0.0223269082,52.174362 0.0138797789,52.1114179 0.00965621432,52.0463756 C0.00754443201,52.0170017 0.00754443201,51.9855296 0.0054326497,51.9540575 C0.0033208674,51.884819 -0.000902697215,51.8134823 0.00120908509,51.7442437 C0.00120908509,51.7106735 0.0054326497,51.6771033 0.00754443201,51.641435 C0.0117679966,51.5763927 0.0159915612,51.5113504 0.0223269082,51.4463082 C0.0286622551,51.398051 0.0392211666,51.3497938 0.0455565135,51.3015367 C0.0540036427,51.2511814 0.062450772,51.2029242 0.0730096835,51.1525689 C0.0856803773,51.0896247 0.104686418,51.0287787 0.121580677,50.9679327 C0.130027806,50.9322644 0.138474935,50.8986942 0.149033847,50.865124 C0.17015167,50.7979836 0.195493057,50.7350394 0.220834445,50.6699972 C0.233505139,50.6406232 0.24406405,50.6091512 0.256734744,50.5797772 C0.282076132,50.5231275 0.309529302,50.4664778 0.339094254,50.4098281 C0.358100295,50.3741597 0.374994553,50.3363933 0.394000594,50.3007249 C0.419341982,50.256664 0.446795152,50.2126031 0.474248322,50.1685422 C0.503813274,50.1223832 0.531266444,50.0762242 0.560831396,50.0321633 C0.586172784,49.9985931 0.611514172,49.9650229 0.636855559,49.9314527 C0.674867641,49.8789992 0.714991505,49.8286439 0.759338933,49.7782886 C0.76567428,49.7677979 0.772009627,49.7594054 0.780456756,49.7510128 C0.797351014,49.7321296 0.816357055,49.7132463 0.835363096,49.6943631 C0.879710524,49.6461059 0.926169735,49.5957506 0.974740728,49.5495916 C1.00641746,49.5202176 1.0380942,49.4929419 1.06977093,49.4635679 C1.11411836,49.4258014 1.16057757,49.3859368 1.20703678,49.3481703 C1.24716065,49.3166983 1.28939629,49.2873244 1.33163194,49.2579504 C1.3717558,49.2285765 1.41187967,49.2013007 1.45411531,49.1740249 C1.50690987,49.1404547 1.55970443,49.1089826 1.61249898,49.0796087 C1.64839928,49.0607255 1.68429958,49.0397441 1.72019988,49.0208608 C1.78355335,48.9893888 1.84690682,48.9600149 1.91026029,48.9327391 C1.9334899,48.9243465 1.95460772,48.9117577 1.97783732,48.901267 C1.98839624,48.8970707 1.99895515,48.8949726 2.00951406,48.8907763 C2.07075575,48.8676968 2.136221,48.8467154 2.19957447,48.825734 C2.23758655,48.8131452 2.27771041,48.8005564 2.31572249,48.7879675 C2.36851705,48.7732806 2.42131161,48.7627899 2.47621795,48.7502011 C2.52690072,48.7397104 2.5775835,48.7271216 2.62826627,48.718729 C2.66839014,48.7124346 2.708514,48.7082383 2.74863787,48.7019439 C2.81199133,48.6935513 2.8753448,48.6851588 2.93869827,48.6809625 C2.96826323,48.6788644 2.99993996,48.6788644 3.03161669,48.6767662 C3.10130551,48.6746681 3.17310611,48.6704718 3.24279492,48.67257 C3.27658344,48.6746681 3.31037196,48.6767662 3.34204869,48.6788644 C3.40962573,48.6830607 3.47720276,48.6872569 3.54266801,48.6935513 C3.59123901,48.6998458 3.63769822,48.7082383 3.68415743,48.7166309 C3.7348402,48.7250234 3.78763476,48.7313178 3.83831754,48.7439067 C3.89955922,48.7564955 3.95868913,48.7732806 4.01993081,48.7900657 C4.05583111,48.8005564 4.09384319,48.8089489 4.12974349,48.8215378 C4.19309696,48.840421 4.25645043,48.8655986 4.31769212,48.8907763 C4.35148064,48.901267 4.38315737,48.9138558 4.4148341,48.9264446 C4.47185223,48.9516223 4.52675857,48.9788981 4.58166491,49.0061739 C4.61967699,49.0250571 4.65768907,49.0418422 4.69570115,49.0628236 C4.74004858,49.0880013 4.78228423,49.115277 4.82663165,49.1404547 C4.87309087,49.1698286 4.92166186,49.1992026 4.96812107,49.2306746 C4.9997978,49.2537541 5.03147454,49.2768337 5.06315127,49.3020113 C5.11805761,49.3418759 5.17085217,49.3817406 5.22364673,49.4258014 C5.23209386,49.434194 5.24054099,49.4383903 5.24898812,49.4467828 L20.5953101,62.7365976 C24.2905068,59.7702504 29.4086224,56.1304009 35.4157984,53.1199927 C41.8368836,49.8997708 48.2178451,47.9025534 54.4530935,47.1579243 C56.3112507,46.9334235 58.1546255,46.8222222 59.9830066,46.8222222 C67.0078505,46.8222222 74.2081834,48.4480692 81.4822176,51.6640949 C84.5523267,53.0213802 87.6351065,54.6619142 90.7221099,56.5835986 C98.8493041,61.6415795 104.645302,67.223885 106.758985,69.3868553 C108.413777,71.0844586 108.413777,73.7402814 106.758351,75.435367 Z" id="Shape" fill="#C5D469"></path>
                <path d="M106.773973,74.8068182 C104.686749,76.9590082 98.963307,82.5060231 90.9378507,87.5360035 C87.7914798,89.5067413 84.6492796,91.1813158 81.5237622,92.5555556 C80.8856461,91.3314831 80.3853715,90.3407958 80.2060317,90.0344127 C79.62422,89.0418482 79.0926651,88.0219617 78.6109501,86.9814271 C76.4194594,82.2476101 75.2727273,77.0634996 75.2727273,71.8020113 C75.2727273,66.5405229 76.4194594,61.3564124 78.6109501,56.6225954 C79.0926651,55.5820609 79.62422,54.5621743 80.2060317,53.5696099 C80.3853715,53.2630182 80.975316,52.378908 81.8136253,51.1777778 C84.8453022,52.5269897 87.8894911,54.1577653 90.9378507,56.0680191 C98.963307,61.0959138 104.686749,66.6450144 106.773973,68.7951188 C108.408676,70.48179 108.408676,73.1218154 106.773973,74.8068182 Z" id="Shape" fill="#00B96B"></path>
                <path d="M89.4544364,75.1333333 C89.3475308,75.1333333 89.2384436,75.1289771 89.131538,75.1180863 C89.0270324,75.1071956 88.9199087,75.0919487 88.8151849,75.0701673 C88.7106793,75.0483858 88.6057374,75.0222482 88.5031953,74.9917542 C88.4028351,74.9612602 88.300293,74.9242318 88.2021145,74.8828471 C88.1039359,74.8436406 88.0079391,74.7978996 87.9141241,74.7478024 C87.8183454,74.6977052 87.7267121,74.6410735 87.6370424,74.5844419 C87.5497726,74.5234539 87.4625028,74.4602878 87.3795964,74.3927655 C87.2964719,74.3252431 87.2159655,74.2533644 87.1393863,74.1771295 C87.0652069,74.1008946 86.9910276,74.0203034 86.9233935,73.937534 C86.8557594,73.8569428 86.7924887,73.7698172 86.7335816,73.6805134 C86.6746745,73.5912096 86.6201308,73.4997277 86.5699507,73.4060677 C86.5199887,73.3124076 86.4741721,73.2143913 86.4325007,73.116375 C86.3912657,73.0183586 86.3561396,72.915986 86.3234135,72.8157915 C86.292869,72.7134189 86.2666881,72.6088681 86.2450888,72.5043174 C86.2254531,72.3997666 86.2079991,72.2930377 86.1968722,72.188487 C86.1859635,72.0817581 86.1818182,71.972851 86.1818182,71.8661221 C86.1818182,71.7593932 86.1861817,71.6526643 86.1968722,71.5459354 C86.2079991,71.4392065 86.2254531,71.3324776 86.2450888,71.2279269 C86.2669063,71.1233761 86.2930872,71.0210035 86.3234135,70.9186309 C86.3561396,70.8162583 86.3912657,70.7160638 86.4325007,70.6180475 C86.4739539,70.5200311 86.5197706,70.4220148 86.5699507,70.3283547 C86.6201308,70.2346947 86.6746745,70.1410346 86.7335816,70.053909 C86.7927069,69.9646052 86.8559775,69.8774796 86.9233935,69.7947102 C86.9912457,69.7119409 87.0652069,69.6313497 87.1393863,69.5572929 C87.2159655,69.481058 87.2964719,69.4091793 87.3795964,69.3416569 C87.4625028,69.2741346 87.5495544,69.2087904 87.6370424,69.1499806 C87.726494,69.0911708 87.8181273,69.0367172 87.9141241,68.98662 C88.0081573,68.9365228 88.1039359,68.8907818 88.2021145,68.8493971 C88.300293,68.8101906 88.4028351,68.7731622 88.5031953,68.7426682 C88.6057374,68.7121743 88.7104612,68.6838584 88.8151849,68.6642552 C88.9199087,68.6424737 89.0270324,68.6272268 89.131538,68.6163361 C89.3453491,68.5945546 89.5615601,68.5945546 89.7773347,68.6163361 C89.8820585,68.6272268 89.9891822,68.6424737 90.0936878,68.6642552 C90.1984116,68.6838584 90.3031354,68.7121743 90.4056774,68.7426682 C90.5060377,68.7731622 90.6087979,68.8101906 90.7069764,68.8493971 C90.8049368,68.8907818 90.9011518,68.9365228 90.9947487,68.98662 C91.0907455,69.0367172 91.1823788,69.0911708 91.2720485,69.1499806 C91.3591002,69.2087904 91.4465881,69.2741346 91.5294945,69.3416569 C91.6124008,69.4091793 91.6931254,69.481058 91.7694865,69.5572929 C91.843884,69.6313497 91.9180633,69.7119409 91.9854793,69.7947102 C92.0533316,69.8774796 92.1166022,69.9646052 92.1752911,70.053909 C92.2344164,70.1410346 92.2889601,70.2346947 92.338922,70.3283547 C92.3891022,70.4220148 92.4349188,70.5200311 92.476372,70.6180475 C92.5178252,70.7160638 92.5529513,70.8162583 92.5854593,70.9186309 C92.6162219,71.0210035 92.6421847,71.1233761 92.6640021,71.2279269 C92.6836378,71.3324776 92.7010918,71.4392065 92.7120005,71.5459354 C92.7229092,71.6526643 92.7272727,71.7593932 92.7272727,71.8661221 C92.7272727,71.972851 92.7226911,72.0817581 92.7120005,72.188487 C92.7010918,72.2930377 92.6836378,72.3997666 92.6640021,72.5043174 C92.6419665,72.6088681 92.6160037,72.7134189 92.5854593,72.8157915 C92.5529513,72.915986 92.5178252,73.0183586 92.476372,73.116375 C92.435137,73.2143913 92.3893204,73.3124076 92.338922,73.4060677 C92.2889601,73.4997277 92.2344164,73.5912096 92.1752911,73.6805134 C92.116384,73.7698172 92.0531134,73.8569428 91.9854793,73.937534 C91.9178452,74.0203034 91.843884,74.1008946 91.7694865,74.1771295 C91.6931254,74.2533644 91.6124008,74.3252431 91.5294945,74.3927655 C91.4465881,74.4602878 91.3593183,74.5234539 91.2720485,74.5844419 C91.1825969,74.6410735 91.0909636,74.6977052 90.9947487,74.7478024 C90.9009336,74.7978996 90.8049368,74.8436406 90.7069764,74.8828471 C90.6087979,74.9242318 90.5060377,74.9612602 90.4056774,74.9917542 C90.3031354,75.0222482 90.1986297,75.0483858 90.0936878,75.0701673 C89.9891822,75.0919487 89.8820585,75.1071956 89.7773347,75.1180863 C89.6682474,75.1289771 89.5613419,75.1333333 89.4544364,75.1333333 Z" id="Shape" fill="#FFDC55"></path>
                <g id="Group" fill="#B1F9FC">
                    <path d="M107.991563,3.6839615 C107.983125,5.41735615 106.567945,6.81534973 104.827922,6.81534973 L104.783625,6.81534973 C102.841102,6.81534973 101.029359,7.67460535 99.8082422,9.17531551 L96.1826484,13.6292321 C94.2780938,15.9724278 91.4498438,17.3978824 88.4233125,17.5444107 C85.3988906,17.6890524 82.4419688,16.5405134 80.3180391,14.3920599 L74.7543516,8.7644492 C73.1219063,7.1107123 70.4117813,7.06040214 68.7160547,8.65125134 L61.4629688,15.4529754 C59.5605234,17.2366802 57.1098516,18.2468663 54.5136328,18.3307166 C54.3976172,18.3349091 54.2816016,18.3370053 54.1634766,18.3370053 L53.9926172,18.3370053 C51.2044453,18.292984 48.5850234,17.1863701 46.6171875,15.2223872 L40.3342031,8.95122567 C39.5180859,8.13599144 38.4338672,7.68739251 37.2781406,7.68739251 L37.2465,7.68739251 C36.0781172,7.69577754 34.9896797,8.16114652 34.1777813,8.99524706 L28.7490938,14.5704513 C26.7011016,16.6769797 23.8433203,17.8527701 20.8885078,17.7919786 C17.9421328,17.7332834 15.1265391,16.4463914 13.1629219,14.2623016 L8.02511719,8.54035936 C6.81032813,7.19057968 5.07030469,6.41496471 3.250125,6.41496471 L3.16364063,6.41496471 C1.41728906,6.41517433 0,5.00879572 0,3.27120856 C0,1.53571765 1.41728906,0.127242781 3.16364063,0.127242781 L3.250125,0.127242781 C6.8715,0.127242781 10.3323516,1.66778182 12.7431563,4.35266738 L17.8828594,10.0746096 C18.6905391,10.9736941 19.8021797,11.4809882 21.0148594,11.5040471 C22.2296484,11.5292021 23.3579531,11.0659294 24.2017031,10.200385 L29.6282813,4.62308449 C31.6319766,2.56477005 34.3210078,1.42042353 37.2019922,1.39946096 C40.0871953,1.3784984 42.7867734,2.4851123 44.82,4.51407914 L51.100875,10.7873369 C52.0393359,11.724154 53.2923047,12.1455016 54.5134219,12.0406888 C55.4539922,11.9652235 56.3736797,11.5795123 57.1201875,10.8795722 L64.3732734,4.07805775 C66.4128281,2.16648128 69.0807656,1.14162139 71.877375,1.19612406 C74.6803125,1.24853048 77.3041641,2.37191444 79.2675703,4.35685989 L84.8312578,9.98447059 C85.7043281,10.8688813 86.8708125,11.3216727 88.1172422,11.2629775 C89.3615625,11.2042824 90.4793203,10.6403893 91.2640078,9.67632086 L94.8874922,5.22240428 C97.3297266,2.22098396 100.953211,0.504359358 104.842477,0.527418182 C106.589039,0.536012834 108,1.94868021 107.991563,3.6839615 Z" id="Shape"></path>
                    <path d="M107.991563,24.3419422 C107.983125,26.0732406 106.567945,27.4712342 104.827922,27.4733305 C104.813156,27.4733305 104.798391,27.4733305 104.783625,27.4712342 C102.841102,27.4712342 101.029359,28.3325861 99.8082422,29.8332963 L96.1826484,34.2872128 C94.2780938,36.6283123 91.4498438,38.0558631 88.4233125,38.2002952 C85.3988906,38.3470332 82.4419688,37.1984941 80.3180391,35.0500406 L74.7543516,29.4203337 C73.1219063,27.768693 70.4117813,27.7183829 68.7160547,29.3071358 L61.4629688,36.1107465 C59.5605234,37.8944513 57.1098516,38.9046374 54.5136328,38.9884877 C54.3976172,38.9926802 54.2816016,38.9947765 54.1634766,38.9947765 C54.1065234,38.9947765 54.0495703,38.9947765 53.9926172,38.9926802 C51.2044453,38.9507551 48.5850234,37.8441412 46.6171875,35.8801583 L40.3342031,29.6089968 C39.5180859,28.7937626 38.4338672,28.3451636 37.2781406,28.3451636 L37.2465,28.3451636 C36.0781172,28.3535487 34.9896797,28.8189176 34.1777813,29.6509219 L28.7490938,35.2282225 C26.7011016,37.3326545 23.8369922,38.5105412 20.8885078,38.4497497 C17.9421328,38.3910545 15.1265391,37.1041626 13.1629219,34.9179765 L8.02511719,29.1981305 C6.81032813,27.8483508 5.07030469,27.0727358 3.250125,27.0727358 L3.16364063,27.0727358 C1.41728906,27.0729455 0,25.6665668 0,23.9289797 C0,22.1934888 1.41728906,20.7850139 3.16364063,20.7850139 L3.250125,20.7850139 C6.8715,20.7850139 10.3323516,22.3255529 12.7431563,25.0104385 L17.8830703,30.7302845 C18.69075,31.629369 19.8023906,32.1387594 21.0150703,32.1618182 C22.2298594,32.1869733 23.3581641,31.7216043 24.2019141,30.8560599 L29.6284922,25.2808556 C31.6321875,23.2225412 34.3212188,22.0781947 37.2022031,22.0572321 C40.0874063,22.0362695 42.7869844,23.1428834 44.8202109,25.1718503 L51.1010859,31.445108 C52.0395469,32.3819251 53.2925156,32.8032727 54.5136328,32.6984599 C55.4542031,32.6229947 56.3738906,32.2372834 57.1203984,31.5373433 L64.3734844,24.7337326 C66.4130391,22.8242524 69.0809766,21.7952 71.8775859,21.8517989 C74.6805234,21.9063016 77.304375,23.0275893 79.2677813,25.014631 L84.8314688,30.6422417 C85.7045391,31.5266524 86.8710234,31.9794439 88.1174531,31.9207487 C89.3617734,31.8599572 90.4795313,31.2960642 91.2642188,30.334092 L94.8877031,25.8801754 C97.3172813,22.8934289 100.921781,21.183093 104.783625,21.183093 C104.802609,21.183093 104.821594,21.183093 104.842688,21.1851893 C106.589039,21.1916877 108,22.6064513 107.991563,24.3419422 Z" id="Shape"></path>
                </g>
                <g id="Group" transform="translate(54.545455, 0.000000)" fill="#4DEBFD">
                    <path d="M7.02485326,15.2788391 C5.12679599,17.0916261 2.68177666,18.1182826 0.0915461704,18.2035 L0.0915461704,11.8109174 C1.02994703,11.7342217 1.94751324,11.3422217 2.69229921,10.6308696 L9.92865569,3.71846087 C11.9635061,1.77571739 14.6252899,0.734147826 17.4154488,0.78953913 C20.2119213,0.8428 22.8297208,1.9845 24.7885984,4.0018087 L30.3394531,9.72117391 C31.2105097,10.6200043 32.3743035,11.0801783 33.6178583,11.0205261 C34.8593085,10.9608739 35.9744882,10.387787 36.7573658,9.408 L40.3724925,4.88146522 C42.8090938,1.8311087 46.4242205,0.0864956522 50.3045154,0.109930435 C52.0468389,0.118452174 53.4545455,1.55415217 53.4461274,3.31793913 C53.4377094,5.07959565 52.0257938,6.50038261 50.2897838,6.50038261 L50.2455891,6.50038261 C48.3075462,6.50038261 46.4999828,7.37364783 45.2816822,8.89882609 L41.664451,13.4253609 C39.7642892,15.8067609 36.9425626,17.2554565 33.9230122,17.4043739 C30.9055662,17.5513739 27.9554646,16.3841087 25.8364338,14.2006261 L20.2855791,8.48126087 C18.6568991,6.80056087 15.9530251,6.74943043 14.2612097,8.36621739 L7.02485326,15.2788391 Z" id="Shape"></path>
                    <path d="M53.4461274,24.3127348 C53.4377094,26.0722609 52.0257938,27.4930478 50.2897838,27.4951783 C50.2750523,27.4951783 50.2603207,27.4951783 50.2455891,27.4930478 C48.3075462,27.4930478 46.4999828,28.3684435 45.2816822,29.8936217 L41.664451,34.4201565 C39.7642892,36.7994261 36.9425626,38.2502522 33.9230122,38.3970391 C30.9055662,38.5461696 27.9554646,37.3789043 25.8364338,35.1954217 L20.2855791,29.4739261 C18.6568991,27.7953565 15.9530251,27.7442261 14.2612097,29.3588826 L7.02485326,36.2734217 C5.12679599,38.0862087 2.68177666,39.1128652 0.0915461704,39.1980826 L0.0915461704,32.8055 C1.02994703,32.7288043 1.94751324,32.3368043 2.69229921,31.6254522 L9.92865569,24.710913 C11.9635061,22.7703 14.6252899,21.7244696 17.4154488,21.7819913 C20.2119213,21.8373826 22.8297208,22.9769522 24.7885984,24.9963913 L30.3394531,30.7157565 C31.2105097,31.614587 32.3743035,32.0747609 33.6178583,32.0151087 C34.8593085,31.9533261 35.9744882,31.3802391 36.7573658,30.4025826 L40.3724925,25.8760478 C42.7964667,22.8406043 46.3926528,21.1023826 50.2455891,21.1023826 C50.2645297,21.1023826 50.2834703,21.1023826 50.3045154,21.104513 C52.0468389,21.1111174 53.4545455,22.5489478 53.4461274,24.3127348 Z" id="Shape"></path>
                </g>
                <path d="M0.227350373,91.8781941 C0.223150779,91.8889082 0.221050982,91.8974795 0.216851388,91.9081935 C0.191653822,91.9703351 0.172755648,92.0346196 0.151757677,92.098904 C0.139158894,92.1396175 0.126560111,92.1781881 0.113961329,92.2189016 C0.101362546,92.2703291 0.0908635603,92.3238995 0.0782647775,92.375327 C0.0677657919,92.4288974 0.0551670092,92.4824677 0.0446680235,92.5338953 C0.0383686322,92.5724659 0.036268835,92.6088938 0.0299694437,92.6474644 C0.0215702552,92.7138917 0.0131710667,92.7803189 0.0068716753,92.848889 C0.0068716753,92.8746027 0.0068716753,92.9003165 0.00477187818,92.9260303 C0.00267208105,93.0031716 -0.0015275132,93.0824557 0.000572283928,93.1574542 C0.000572283928,93.1874536 0.00477187818,93.2153102 0.0068716753,93.2431668 C0.0110712695,93.3160225 0.0131710667,93.391021 0.0215702552,93.4638766 C0.0278696465,93.5110185 0.0383686322,93.5581605 0.0446680235,93.6053024 C0.0551670092,93.6588727 0.0614664005,93.7103003 0.0719653862,93.7617278 C0.086663966,93.8302979 0.10556214,93.8967251 0.124460314,93.9631523 C0.132859503,93.9952946 0.139158894,94.025294 0.14965788,94.0574362 C0.172755648,94.128149 0.197953214,94.1967191 0.225250576,94.2652891 C0.235749562,94.2931457 0.24414875,94.3210023 0.256747533,94.3467161 C0.281945099,94.4067149 0.311342258,94.4667137 0.340739418,94.5267125 C0.357537795,94.5609975 0.374336172,94.5974253 0.393234346,94.6317104 C0.418431912,94.6767095 0.445729274,94.7217086 0.473026637,94.7667077 C0.502423797,94.8138496 0.529721159,94.8609915 0.561218116,94.9059906 C0.582216087,94.9402756 0.60951345,94.9724178 0.632611218,95.00456 C0.672507364,95.0602732 0.712403509,95.1138436 0.756499249,95.1652711 C0.76279864,95.1738424 0.769098031,95.1802708 0.775397423,95.1888421 C0.790096003,95.2059846 0.80689438,95.2209843 0.823692757,95.2402696 C0.876187685,95.2981256 0.928682613,95.3559816 0.987476932,95.4116947 C1.01477429,95.4395513 1.04417145,95.4652651 1.07356861,95.4909789 C1.12606354,95.5381208 1.17645867,95.5809771 1.2310534,95.6238333 C1.26884975,95.6538327 1.3066461,95.6816893 1.34444244,95.7074031 C1.39273778,95.7416881 1.44103311,95.7738303 1.49142824,95.8059725 C1.53762378,95.8359719 1.58381932,95.8638285 1.63001485,95.8916851 C1.67411059,95.9152561 1.72030613,95.938827 1.76650167,95.9602552 C1.81899659,95.9881118 1.87359132,96.0138255 1.92818604,96.0373965 C1.94498442,96.0438249 1.959683,96.0523962 1.97438158,96.0588246 C2.00797833,96.0738243 2.04157509,96.0823956 2.07517184,96.0952525 C2.12346718,96.112395 2.17176251,96.1316803 2.22215764,96.14668 C2.28515156,96.1659653 2.34814547,96.1831078 2.40903959,96.1981075 C2.44683593,96.2066788 2.48253248,96.2173929 2.52032883,96.2259641 C2.60852031,96.2431066 2.69671179,96.2581063 2.78490327,96.2688204 C2.79960185,96.2688204 2.81220063,96.273106 2.82689921,96.273106 C2.93398887,96.2859629 3.04107852,96.2923914 3.14816817,96.2923914 C3.23635965,96.2923914 3.32455113,96.2881057 3.41274261,96.2795345 C3.43164079,96.2773917 3.45053896,96.2752489 3.46943713,96.273106 C3.53453084,96.2666776 3.59752476,96.2581063 3.66261847,96.2473923 C3.69411543,96.2409638 3.72561238,96.2345354 3.75710934,96.2281069 C3.80750447,96.2195357 3.8578996,96.2066788 3.90619494,96.1959647 C3.94399128,96.1852507 3.98178763,96.1766794 4.01958398,96.1638225 C4.06367972,96.1531084 4.10567566,96.1381087 4.1476716,96.123109 C4.18756775,96.1102522 4.2274639,96.0973953 4.26736004,96.0823956 C4.31355558,96.0631103 4.36185091,96.0416821 4.40804645,96.020254 C4.46264117,95.996683 4.5172359,95.9709692 4.56973083,95.9431127 C4.62012596,95.9173989 4.67052109,95.8916851 4.71881642,95.8638285 C4.74611378,95.846686 4.77551094,95.8274007 4.80280831,95.8102582 C4.85320344,95.778116 4.90359857,95.7459738 4.9518939,95.7116887 C4.97499167,95.6945462 4.99808944,95.6774037 5.02118721,95.6602612 C5.07788173,95.6174049 5.13667605,95.570263 5.19127078,95.5231211 C5.19966996,95.5145498 5.21016895,95.5081214 5.21856814,95.4995501 L5.25006509,95.4716935 C5.25426469,95.4695507 5.25846428,95.4652651 5.26266388,95.4609795 L20.5806839,81.8346097 C24.2549089,84.8534064 29.335578,88.5536179 35.2918626,91.6109852 C41.6513081,94.8740627 47.9687578,96.8988078 54.1434212,97.6571497 C55.9910327,97.8864308 57.8239456,98 59.6419499,98 C66.5326442,98 73.593212,96.3866752 80.7272727,93.190025 C80.0847348,91.9324073 79.5809935,90.9145706 79.4004109,90.5997912 C78.8145675,89.5800259 78.2793292,88.5321898 77.7942761,87.4631398 C75.5875993,82.5995944 74.4329209,77.2734154 74.4329209,71.8677381 C74.4329209,71.8673095 74.4329209,71.8670952 74.4329209,71.8666667 L8.10263949,71.8666667 L8.10473929,71.8720237 L0.227350373,91.8781941 Z" id="Shape" fill="#92CA5B"></path>
                <path d="M92.7006219,71.9032577 C92.7006219,72.0051304 92.6962426,72.1090821 92.6860244,72.2109548 C92.6755977,72.3107485 92.6589149,72.4126211 92.6401467,72.5124148 C92.6190847,72.6122085 92.594269,72.7120021 92.5650741,72.8097168 C92.5340024,72.9053523 92.5004283,73.003067 92.4608066,73.0966235 C92.4213935,73.1901801 92.3776012,73.2837366 92.3294296,73.3731351 C92.2816751,73.4625336 92.2295413,73.5498531 92.1730283,73.6350935 C92.1167239,73.7203339 92.0562488,73.8034953 91.9916029,73.8804196 C91.9269571,73.9594229 91.8562637,74.0363472 91.7851533,74.1091134 C91.712166,74.1818796 91.6350081,74.2504877 91.5557648,74.3149378 C91.4765215,74.3793879 91.3931075,74.4396799 91.3096935,74.4978928 C91.2241942,74.5519477 91.1366095,74.6060026 91.0446455,74.6538204 C90.9549755,74.7016382 90.8632201,74.7452979 90.7695879,74.7827206 C90.6757471,74.8222222 90.5775272,74.8575658 90.4816011,74.8866723 C90.3835896,74.9157788 90.2837014,74.9407272 90.183396,74.9615175 C90.0835078,74.9823079 89.9811171,74.9968611 89.8810203,75.0072563 C89.7767528,75.0176515 89.6747792,75.0218095 89.572597,75.0218095 C89.4704149,75.0218095 89.3661474,75.0176515 89.2639653,75.0072563 C89.164077,74.9968611 89.0616863,74.9823079 88.9615895,74.9615175 C88.8617013,74.9407272 88.7613959,74.9157788 88.6633845,74.8866723 C88.5674584,74.8575658 88.469447,74.8222222 88.3756062,74.7827206 C88.2817655,74.7452979 88.1900101,74.7016382 88.10034,74.6538204 C88.0087932,74.6060026 87.9212085,74.5519477 87.8355006,74.4978928 C87.7520866,74.4396799 87.6686726,74.3793879 87.5894293,74.3149378 C87.5099775,74.2504877 87.4330281,74.1818796 87.3598323,74.1091134 C87.2889304,74.0363472 87.2180285,73.9594229 87.1533826,73.8804196 C87.0887368,73.8034953 87.0282616,73.7203339 86.9719572,73.6350935 C86.9156528,73.5498531 86.863519,73.4625336 86.815556,73.3731351 C86.7678014,73.2837366 86.7240091,73.1901801 86.6841789,73.0966235 C86.6447658,73.003067 86.6111917,72.9053523 86.5799114,72.8097168 C86.5507165,72.7120021 86.5256923,72.6122085 86.5050474,72.5124148 C86.4862792,72.4126211 86.4695964,72.3107485 86.4589611,72.2109548 C86.4485344,72.1090821 86.4445722,72.0051304 86.4445722,71.9032577 C86.4445722,71.8911993 86.4462405,71.878933 86.4462405,71.8668746 L75.2727273,71.8668746 C75.2727273,71.8672904 75.2727273,71.8674983 75.2727273,71.8679141 C75.2727273,77.1126946 76.4194612,82.280343 78.6109554,86.9991277 C79.0926712,88.0363581 79.6242269,89.053006 80.2060395,90.0424186 C80.3853796,90.3480366 80.8858636,91.3353702 81.5237721,92.5555556 C84.6492945,91.1856797 87.7914997,89.5164228 90.9378756,87.551943 C98.9633446,82.5379353 104.686796,77.008535 106.774023,74.8631792 C107.59148,74.0232492 108.000208,72.944854 108,71.8666667 L92.6981195,71.8666667 C92.6989536,71.878933 92.7006219,71.8911993 92.7006219,71.9032577 Z" id="Shape" fill="#008778"></path>
                <path d="M86.1959466,72.2229325 C86.2070754,72.3262603 86.2245325,72.4317408 86.2441716,72.5350686 C86.2659929,72.6383965 86.2921784,72.7417243 86.32251,72.8428995 C86.3552419,72.941922 86.3903742,73.0430972 86.4316164,73.1399671 C86.4730768,73.2368369 86.5189015,73.3337068 86.5690904,73.4262713 C86.6192794,73.5188358 86.6738325,73.6092477 86.73275,73.6975069 C86.7918856,73.7857661 86.8551673,73.8718726 86.9225951,73.9515211 C86.9904593,74.0333224 87.0644334,74.1129709 87.1386257,74.1883141 C87.2152184,74.2636573 87.2957389,74.3346952 87.378878,74.4014278 C87.4617988,74.4681604 87.5488657,74.5305876 87.636369,74.5908622 C87.7258363,74.6468314 87.8174856,74.7028007 87.9134992,74.7523119 C88.0075489,74.8018232 88.1033443,74.8470291 88.2015401,74.885777 C88.2997358,74.9266776 88.4022958,74.9632729 88.5026737,74.9934102 C88.6052337,75.0235475 88.7099758,75.0493795 88.8147179,75.0709061 C88.9194601,75.0924327 89.0266025,75.1075014 89.1311264,75.1182647 C89.2380507,75.129028 89.3471571,75.1333333 89.4540813,75.1333333 C89.5610056,75.1333333 89.6677116,75.129028 89.776818,75.1182647 C89.8815601,75.1075014 89.9887026,75.0924327 90.0932265,75.0709061 C90.1979686,75.0493795 90.3027107,75.0235475 90.4052707,74.9934102 C90.5056486,74.9632729 90.6084268,74.9266776 90.7066226,74.885777 C90.8046001,74.8470291 90.9008319,74.8018232 90.9944452,74.7523119 C91.0904588,74.7028007 91.1821082,74.6468314 91.2717936,74.5908622 C91.3588605,74.5305876 91.4463638,74.4681604 91.5292847,74.4014278 C91.6122055,74.3346952 91.6929442,74.2636573 91.7693187,74.1883141 C91.8437293,74.1129709 91.9179216,74.0333224 91.9853493,73.9515211 C92.0532135,73.8718726 92.1164952,73.7857661 92.1751944,73.6975069 C92.2343301,73.6092477 92.2888833,73.5188358 92.338854,73.4262713 C92.3890429,73.3337068 92.4348676,73.2368369 92.4763281,73.1399671 C92.5177885,73.0430972 92.5529207,72.941922 92.5854344,72.8428995 C92.6162024,72.7417243 92.6421698,72.6383965 92.663991,72.5350686 C92.6836302,72.4317408 92.7010872,72.3262603 92.7119978,72.2229325 C92.7229085,72.1174519 92.7272727,72.0098188 92.7272727,71.9043383 C92.7272727,71.8918528 92.725527,71.8791521 92.725527,71.8666667 L86.1837267,71.8666667 C86.1835085,71.8791521 86.181981,71.8918528 86.181981,71.9043383 C86.1808899,72.0098188 86.1852542,72.1174519 86.1959466,72.2229325 Z" id="Shape" fill="#FFC140"></path>
            </g>
        </g>
    </g>
</svg>