<?xml version="1.0" encoding="UTF-8"?>
<svg width="106px" height="108px" viewBox="0 0 106 108" version="1.1" xmlns="http://www.w3.org/2000/svg" xmlns:xlink="http://www.w3.org/1999/xlink">
    <!-- Generator: Sketch 50.2 (55047) - http://www.bohemiancoding.com/sketch -->
    <title>forest</title>
    <desc>Created with Sketch.</desc>
    <defs></defs>
    <g id="Welcome" stroke="none" stroke-width="1" fill="none" fill-rule="evenodd">
        <g id="Main-Desktop" transform="translate(-167.000000, -2776.000000)" fill-rule="nonzero">
            <g id="forest" transform="translate(167.000000, 2776.000000)">
                <path d="M90.0176006,41.2385201 C89.076499,28.7998138 78.6830303,19 66,19 C53.3169697,19 42.923289,28.7998138 41.9823994,41.2385201 C32.6670201,44.5657548 26,53.4637491 26,63.9198942 C26,77.2190812 36.7842867,88 50.0871547,88 C56.1869268,88 61.7561364,85.7320958 66,81.9952901 C70.2438636,85.7320958 75.8130732,88 81.9128453,88 C95.2159254,88 106,77.2188692 106,63.9198942 C106,53.4637491 99.3329799,44.5657548 90.0176006,41.2385201 Z" id="Shape" fill="#C3EA21"></path>
                <path d="M90.0176006,41.2385201 C89.076499,28.7998138 78.6830303,19 66,19 C66,31.0036961 66,66.3160543 66,81.9952901 C70.2438636,85.7320958 75.8130732,88 81.9128453,88 C95.2159254,88 106,77.2188692 106,63.9198942 C106,53.4637491 99.3329799,44.5657548 90.0176006,41.2385201 Z" id="Shape" fill="#8ADB53"></path>
                <polygon id="Shape" fill="#BA7400" points="81 55.5090167 78.049601 49.8755948 69.669851 54.2992938 69.669851 45 63.3303603 45 63.3303603 65.8468222 54.950399 61.4231232 52 67.0565451 63.3303603 73.0376933 63.3303603 108 69.669851 108 69.669851 61.490165"></polygon>
                <path d="M24.0000856,79 C9.59348747,79 -1.56603588,66.4166083 0.180347136,52.1409455 L4.4448004,17.2822371 C5.65180928,7.41627289 14.043324,0 24.0000856,0 C33.9568471,0 42.3481495,7.41627289 43.5551584,17.2822371 L47.8196116,52.1409455 C49.566207,66.4166083 38.4066836,79 24.0000856,79 Z" id="Shape" fill="#4FC16E"></path>
                <path d="M24,79 C24,62.9578715 24,12.5604974 24,0 C33.956797,0 42.3481293,7.41627289 43.5551425,17.2822371 L47.819611,52.1409455 C49.5662126,66.4166083 38.4066494,79 24,79 Z" id="Shape" fill="#369151"></path>
                <polygon id="Shape" fill="#804D00" points="35.0497909 51.9131627 26.6697684 56.286701 26.6697684 40.3031815 38 34.3900637 35.0497909 28.8205197 26.6697684 33.194058 26.6697684 24 20.3302316 24 20.3302316 44.7402746 11.9504204 40.3669461 9 45.9362803 20.3302316 51.8496078 20.3302316 108 26.6697684 108 26.6697684 63.3960342 38 57.4827067"></polygon>
            </g>
        </g>
    </g>
</svg>