<?xml version="1.0"?>
<svg xmlns="http://www.w3.org/2000/svg" xmlns:xlink="http://www.w3.org/1999/xlink" version="1.1" id="Capa_1" x="0px" y="0px" viewBox="0 0 462.411 462.411" style="enable-background:new 0 0 462.411 462.411;" xml:space="preserve" width="512px" height="512px"><g><g>
	<g>
		<path d="M373.855,137c0-0.4,0-0.7,0-1.1c-0.2-5.5-4.9-9.7-10.4-9.4h-185.5c-0.4,0-0.7,0-1.1,0c-5.5,0.2-9.7,4.9-9.4,10.4    c0,0.4,0,0.7,0,1.1c0.2,5.5,4.9,9.7,10.4,9.4h185.5c0.3,0,0.7,0,1.1,0C369.955,147.2,374.155,142.5,373.855,137z" data-original="#000000" class="active-path" data-old_color="#000000" fill="#FFFFFF"/>
	</g>
</g><g>
	<g>
		<path d="M279.755,84.7c0-0.4,0-0.7,0-1.1c-0.2-5.5-4.9-9.7-10.4-9.4h-91.4c-0.4,0-0.7,0-1.1,0c-5.5,0.2-9.7,4.9-9.4,10.4    c0,0.4,0,0.7,0,1.1c0.2,5.5,4.9,9.7,10.4,9.4h91.4c0.4,0,0.8,0,1.1,0C275.855,94.9,280.055,90.2,279.755,84.7z" data-original="#000000" class="active-path" data-old_color="#000000" fill="#FFFFFF"/>
	</g>
</g><g>
	<g>
		<path d="M372.255,0h-285.8c-39.2,0-58.5,20.3-59,48.6c0,0.2,0,0.4,0,0.5v167.2c0,23,19.9,39.7,42.8,39.7h40.8v87.8    c-0.6,23.1,17.7,42.3,40.7,42.8c0.2,0,0.4,0,0.5,0h104.5v65.8c0.3,3.9,2.7,7.3,6.3,8.9c3.4,1.4,7.4,1.1,10.4-1l41.8-31.3    l41.8,31.3c2.1,1.2,4.4,2,6.8,2.1c1.5,0.1,3.1-0.5,4.2-1.6c3.4-1.5,5.8-4.7,6.3-8.4v-65.8h16.7c23.8,0,43.3-19,43.9-42.8V59.6    C434.955,25.6,406.155,0,372.255,0z M110.955,49.1v186h-40.7c-11.5,0-21.9-7.3-21.9-18.8V49.1c0.6-17,14.3-27.9,31.3-28.2h5.7    C100.155,21.7,111.555,34.3,110.955,49.1z M353.955,431l-31.3-24c-4-2.6-9.1-2.6-13.1,0l-31.3,24l-1-92    c11.9,6.4,25.2,9.9,38.7,9.9s26.8-3.4,38.7-9.9L353.955,431z M316.755,328c-0.3,0.1-0.6,0.1-1,0.1c-34.3,0.3-62.4-27.3-62.7-61.6    c-0.3-34.3,27.3-62.4,61.6-62.7c34.3-0.3,62.4,27.3,62.7,61.6c0,0.3,0,0.7,0,1C377.655,300.2,350.555,327.8,316.755,328z     M392.155,365.7h-16.7v-41.8c31.3-32.8,30.1-84.7-2.7-116c-32.8-31.3-84.7-30.1-116,2.7c-30.1,31.5-30.3,81-0.5,112.8v42.3h-104    c-11.5-0.3-20.7-9.8-20.4-21.4c0-0.2,0-0.4,0-0.6V49.1c0-11.5-3.7-23-9.9-28.2h250.3c22.5,0,41.8,16.2,41.8,38.7v284.2h0    C413.555,355.7,403.955,365.2,392.155,365.7z" data-original="#000000" class="active-path" data-old_color="#000000" fill="#FFFFFF"/>
	</g>
</g></g> </svg>
