<?xml version="1.0" encoding="UTF-8"?>
<svg width="19px" height="14px" viewBox="0 0 19 14" version="1.1" xmlns="http://www.w3.org/2000/svg" xmlns:xlink="http://www.w3.org/1999/xlink">
    <!-- Generator: Sketch 50.2 (55047) - http://www.bohemiancoding.com/sketch -->
    <title>Group 8</title>
    <desc>Created with Sketch.</desc>
    <defs></defs>
    <g id="Symbols" stroke="none" stroke-width="1" fill="none" fill-rule="evenodd" stroke-linecap="round" stroke-linejoin="round">
        <g id="t_g-contacts-footer" transform="translate(-804.000000, -134.000000)" stroke="#FFFFFF">
            <g id="Group-8" transform="translate(805.000000, 135.000000)">
                <g id="email-02">
                    <path d="M0.0619630491,0.348118954 L6.73929769,5.78529104 C7.23528596,6.18835683 7.74756041,6.56949855 8.21985969,7.0062937 C8.57519457,7.33346845 8.84465686,7.30142556 9.20739455,7.0062937 C11.72435,4.93193835 14.256111,2.88119354 16.7834303,0.823702865 C16.9418505,0.695531315 17.1017512,0.569046232 17.3519661,0.370043035 C17.3815774,0.687098976 17.4245137,7.29805263 17.4215526,11.1297074 C17.4215526,12.1230369 17.1150762,12.4788816 16.2578308,12.4788816 C11.22392,12.4788816 6.19000919,12.4788816 1.15609837,12.4788816 C0.322541962,12.4788816 0.0027405689,12.1213504 0.0012600069,11.1853608 C-0.00762336513,7.30648496 0.032351809,0.670234298 0.0619630491,0.348118954 Z" id="Shape"></path>
                    <polygon id="Shape" points="9.04134007 6.83090105 0.144185384 0.348118954 17.1859894 0.348118954"></polygon>
                </g>
            </g>
        </g>
    </g>
</svg>