<?xml version="1.0" encoding="UTF-8"?>
<svg width="18px" height="25px" viewBox="0 0 18 25" version="1.1" xmlns="http://www.w3.org/2000/svg" xmlns:xlink="http://www.w3.org/1999/xlink">
    <!-- Generator: Sketch 50.2 (55047) - http://www.bohemiancoding.com/sketch -->
    <title>punkt-02</title>
    <desc>Created with Sketch.</desc>
    <defs></defs>
    <g id="Symbols" stroke="none" stroke-width="1" fill="none" fill-rule="evenodd" stroke-linecap="round" stroke-linejoin="round">
        <g id="t_g-contacts-footer" transform="translate(-568.000000, -63.000000)" fill-rule="nonzero" stroke="#FFFFFF">
            <g id="punkt-02" transform="translate(569.000000, 64.000000)">
                <path d="M8.01751783,24 C7.47433468,23.1891964 6.96279327,22.4992253 6.52508258,21.7619719 C5.06780482,19.3102979 3.59294831,16.8586239 2.21301702,14.3474092 C1.37802674,12.8308737 0.634445929,11.2512952 0.228376975,9.54913296 C-0.416762879,6.84003319 0.325060059,4.47066539 2.19895402,2.50757499 C4.35586574,0.243278931 7.06650785,-0.462452943 10.0882937,0.288810019 C13.8378395,1.22044614 16.3832414,4.87694279 15.9525622,8.65427195 C15.7767748,10.265372 15.1333928,11.7608931 14.3704754,13.1758593 C13.0221859,15.678318 11.6246758,18.1545087 10.2025555,20.6149387 C9.54511056,21.7427087 8.78922463,22.8091869 8.01751783,24 Z M7.99466546,4.0136033 C5.78273793,4.01554152 3.9905577,5.80222537 3.99023758,8.00575014 C3.98991746,10.2092749 5.78157848,11.9964755 7.99350536,11.9990515 C10.2054322,12.0016275 12.001283,10.218605 12.0061345,8.01508551 C12.0117714,6.95302637 11.5911159,5.93276629 10.8377474,5.18127342 C10.084379,4.42978054 9.06078147,4.00938315 7.99466546,4.0136033 Z" id="Shape"></path>
            </g>
        </g>
    </g>
</svg>