<?xml version="1.0" encoding="UTF-8"?>
<svg width="15px" height="22px" viewBox="0 0 15 22" version="1.1" xmlns="http://www.w3.org/2000/svg" xmlns:xlink="http://www.w3.org/1999/xlink">
    <!-- Generator: Sketch 50.2 (55047) - http://www.bohemiancoding.com/sketch -->
    <title>phone-02</title>
    <desc>Created with Sketch.</desc>
    <defs></defs>
    <g id="Symbols" stroke="none" stroke-width="1" fill="none" fill-rule="evenodd">
        <g id="t_g-contacts-footer" transform="translate(-805.000000, -69.000000)" fill="#FFFFFF" fill-rule="nonzero">
            <g id="phone-02" transform="translate(805.000000, 69.000000)">
                <path d="M14.6472089,1.10737117 L14.6472089,21.0000257 C14.6472089,21.5523105 14.1994936,22.0000257 13.6472089,22.0000257 C13.6459192,22.0000257 13.6446295,22.0000232 13.6433398,22.0000182 L1.34892207,21.9524502 C0.798151799,21.9503192 0.352791116,21.5032321 0.352791116,20.9524577 L0.352791116,1.01171597 C0.352791116,0.459431216 0.800506366,0.0117159654 1.35279112,0.0117159654 C1.35538453,0.0117159654 1.35797793,0.0117260541 1.36057126,0.0117462311 L13.654989,0.107401435 C14.2042212,0.111674669 14.6472089,0.558122343 14.6472089,1.10737117 Z M13.4931412,2.60147513 C13.3513331,2.15028779 13.1667149,2.00780758 12.6503192,2.00780758 L2.2635414,2.00780758 C1.69363319,2.00780758 1.39396314,2.3551031 1.39396314,2.98735904 C1.39396314,5.57574954 1.39396314,8.16414004 1.39396314,10.7525305 C1.39396314,13.5101163 1.37255814,16.2647337 1.36720689,19.0223195 C1.36720689,19.6872271 1.63476943,19.9603142 2.21270452,19.9632825 L12.6984805,20.0078076 C13.2764156,20.0078076 13.5011681,19.7614356 13.5011681,19.1173063 C13.5011681,13.762425 13.5083031,8.40754373 13.5225731,3.05266247 C13.5252487,2.8983089 13.5038437,2.73505033 13.4931412,2.60147513 Z" id="Shape"></path>
            </g>
        </g>
    </g>
</svg>