<?xml version="1.0" encoding="UTF-8"?>
<svg width="38px" height="38px" viewBox="0 0 38 38" version="1.1" xmlns="http://www.w3.org/2000/svg" xmlns:xlink="http://www.w3.org/1999/xlink">
    <!-- Generator: Sketch 50.2 (55047) - http://www.bohemiancoding.com/sketch -->
    <title>fb</title>
    <desc>Created with Sketch.</desc>
    <defs></defs>
    <g id="Symbols" stroke="none" stroke-width="1" fill="none" fill-rule="evenodd">
        <g id="fb" transform="translate(-5.000000, -5.000000)" fill="#FFFFFF">
            <path d="M40.8971354,5 C41.4743952,5 41.969182,5.20616113 42.3815104,5.61848958 C42.7938389,6.03081803 43,6.52560475 43,7.10286458 L43,40.8971354 C43,41.4743952 42.7938389,41.969182 42.3815104,42.3815104 C41.969182,42.7938389 41.4743952,43 40.8971354,43 L31.2239583,43 L31.2239583,28.2799479 L36.1471354,28.2799479 L36.8893229,22.5403646 L31.2239583,22.5403646 L31.2239583,18.8789063 C31.2239583,17.9552905 31.4177498,17.2625891 31.8053385,16.8007813 C32.1929273,16.3389734 32.947477,16.1080729 34.0690104,16.1080729 L37.0872396,16.0833333 L37.0872396,10.9622396 C36.0481719,10.8138013 34.5803046,10.7395833 32.6835938,10.7395833 C30.440527,10.7395833 28.6469251,11.399299 27.3027344,12.71875 C25.9585436,14.038201 25.2864583,15.9018977 25.2864583,18.3098958 L25.2864583,22.5403646 L20.3385417,22.5403646 L20.3385417,28.2799479 L25.2864583,28.2799479 L25.2864583,43 L7.10286458,43 C6.52560475,43 6.03081803,42.7938389 5.61848958,42.3815104 C5.20616113,41.969182 5,41.4743952 5,40.8971354 L5,7.10286458 C5,6.52560475 5.20616113,6.03081803 5.61848958,5.61848958 C6.03081803,5.20616113 6.52560475,5 7.10286458,5 L40.8971354,5 Z"></path>
        </g>
    </g>
</svg>