<?xml version="1.0" encoding="UTF-8"?>
<svg width="48px" height="28px" viewBox="0 0 48 28" version="1.1" xmlns="http://www.w3.org/2000/svg" xmlns:xlink="http://www.w3.org/1999/xlink">
    <!-- Generator: Sketch 50.2 (55047) - http://www.bohemiancoding.com/sketch -->
    <title>vk</title>
    <desc>Created with Sketch.</desc>
    <defs></defs>
    <g id="Symbols" stroke="none" stroke-width="1" fill="none" fill-rule="evenodd">
        <g id="vk" transform="translate(0.000000, -10.000000)" fill="#FFFFFF">
            <path d="M47.932549,11.9778514 C48.3157448,13.0441352 47.0662122,15.4932191 44.1839138,19.3251764 C43.7840574,19.8583183 43.2425933,20.5663868 42.5595052,21.4494031 C41.8930778,22.299098 41.4349159,22.8988736 41.1850056,23.248748 C40.9350954,23.5986223 40.6810237,24.0109681 40.4227831,24.4857976 C40.1645425,24.9606271 40.0645799,25.3104962 40.1228923,25.5354155 C40.1812047,25.7603347 40.2894975,26.0477272 40.447774,26.3976016 C40.6060505,26.7474759 40.8767826,27.1056753 41.2599783,27.4722103 C41.6431741,27.8387454 42.1179964,28.2802469 42.6844597,28.7967281 C42.7511024,28.8300495 42.7927535,28.8633703 42.8094142,28.8966917 C45.1585707,31.0792413 46.7496422,32.9202193 47.5826764,34.4196809 C47.6326584,34.5029843 47.6868049,34.6071121 47.7451173,34.7320672 C47.8034296,34.8570223 47.8617412,35.0777731 47.9200536,35.3943261 C47.978366,35.7108791 47.9742009,35.9941065 47.9075581,36.2440167 C47.8409154,36.493927 47.6326599,36.723008 47.2827856,36.9312665 C46.9329112,37.1395251 46.4414284,37.2436528 45.8083224,37.2436528 L39.4106516,37.3436164 C39.0107952,37.4269198 38.544303,37.3852687 38.0111611,37.2186619 C37.4780192,37.052055 37.0448479,36.8687903 36.7116343,36.6688621 L36.2118162,36.3689712 C35.7119957,36.0190969 35.1288805,35.485963 34.4624531,34.7695535 C33.7960258,34.0531441 33.2254059,33.4075523 32.7505764,32.8327587 C32.2757469,32.2579651 31.7676036,31.7748125 31.2261314,31.3832864 C30.6846591,30.9917603 30.2140019,30.8626419 29.8141455,30.9959274 C29.7641634,31.0125881 29.6975217,31.0417439 29.6142182,31.0833956 C29.5309148,31.1250473 29.3893011,31.2458354 29.1893729,31.4457637 C28.9894447,31.6456919 28.810345,31.8914333 28.6520685,32.1829952 C28.493792,32.4745572 28.3521783,32.9077285 28.2272232,33.4825221 C28.1022681,34.0573157 28.0481217,34.7029076 28.0647823,35.419317 C28.0647823,35.6692272 28.0356266,35.8983082 27.9773142,36.1065668 C27.9190018,36.3148253 27.8565252,36.4689343 27.7898824,36.5688985 L27.6899188,36.693853 C27.3900265,37.010406 26.948525,37.1936707 26.365401,37.2436528 L23.4914474,37.2436528 C22.3085388,37.3102955 21.0923271,37.1728469 19.8427758,36.8313029 C18.5932244,36.4897589 17.4978009,36.0482574 16.5564722,35.5067851 C15.6151436,34.9653129 14.7571312,34.4155186 13.9824094,33.8573856 C13.2076876,33.2992527 12.6204072,32.8202652 12.2205508,32.4204088 L11.5957783,31.8206272 C11.4291714,31.6540203 11.2000905,31.4041138 10.9085285,31.0709001 C10.6169665,30.7376864 10.021356,29.9796367 9.12167904,28.7967281 C8.22200208,27.6138195 7.33899906,26.3559567 6.47264348,25.023102 C5.6062879,23.6902472 4.58583629,21.9325714 3.41125805,19.7500218 C2.23667981,17.5674721 1.14958647,15.301653 0.149945409,12.9524966 C0.0499813031,12.6859256 0,12.4610098 0,12.2777422 C0,12.0944747 0.0249906516,11.9611912 0.0749727044,11.8778878 L0.17493631,11.7279424 C0.424846575,11.4113894 0.899668954,11.2531153 1.59941769,11.2531153 L8.4469247,11.2031335 C8.64685291,11.2364548 8.8384479,11.2906012 9.02171543,11.3655743 C9.20498296,11.4405474 9.33826643,11.5113542 9.42156985,11.577997 L9.54652436,11.6529697 C9.81309531,11.8362372 10.0130205,12.1028042 10.146306,12.4526785 C10.4795197,13.2857127 10.8627097,14.1478902 11.2958875,15.0392368 C11.7290653,15.9305834 12.0706042,16.6094961 12.3205144,17.0759953 L12.7203688,17.8007314 C13.2035287,18.8003725 13.6700209,19.6667151 14.1198593,20.3997852 C14.5696978,21.1328553 14.9737133,21.7034752 15.3319181,22.111662 C15.6901228,22.5198487 16.0358268,22.8405621 16.3690405,23.0738117 C16.7022541,23.3070612 16.9854815,23.4236843 17.2187311,23.4236843 C17.4519807,23.4236843 17.6768966,23.3820332 17.8934855,23.2987298 C17.9268068,23.2820691 17.9684579,23.240418 18.01844,23.1737753 C18.068422,23.1071325 18.1683846,22.9238677 18.3183308,22.6239754 C18.4682769,22.3240831 18.5807349,21.9325629 18.6557079,21.4494031 C18.730681,20.9662432 18.8098181,20.2914956 18.8931215,19.42514 C18.9764249,18.5587845 18.9764249,17.5175073 18.8931215,16.3012774 C18.8598001,15.63485 18.7848282,15.0267441 18.6682034,14.4769416 C18.5515786,13.927139 18.4349556,13.543949 18.3183308,13.3273601 L18.1683854,13.0274693 C17.7518683,12.461006 17.0437998,12.1028067 16.0441587,11.9528605 C15.8275698,11.9195391 15.8692209,11.7196139 16.1691132,11.3530789 C16.4356842,11.0365259 16.7522325,10.7866194 17.1187675,10.6033518 C18.0017838,10.170174 19.9927057,9.97024882 23.091593,10.0035702 C24.4577691,10.0202309 25.5823484,10.1285237 26.4653647,10.3284519 C26.7985783,10.4117553 27.0776406,10.5242133 27.3025599,10.6658291 C27.5274791,10.8074449 27.6982485,11.0073701 27.8148733,11.2656107 C27.9314981,11.5238513 28.0189654,11.7904183 28.0772778,12.0653196 C28.1355902,12.3402209 28.164746,12.7192457 28.164746,13.2024056 C28.164746,13.6855654 28.1564157,14.1437274 28.1397551,14.5769052 C28.1230944,15.010083 28.1022688,15.5973633 28.0772778,16.3387637 C28.0522868,17.0801642 28.0397914,17.7674071 28.0397914,18.4005131 C28.0397914,18.5837806 28.0314612,18.9336497 28.0148005,19.4501309 C27.9981399,19.9666122 27.9939748,20.3664626 28.0023051,20.6496942 C28.0106354,20.9329258 28.0397912,21.2702996 28.0897733,21.6618257 C28.1397553,22.0533518 28.2355528,22.3782303 28.3771686,22.6364709 C28.5187844,22.8947115 28.7062143,23.0988018 28.9394639,23.248748 C29.0727494,23.2820693 29.2143631,23.3153902 29.3643092,23.3487116 C29.5142554,23.3820329 29.730841,23.2904006 30.0140727,23.0738117 C30.2973043,22.8572228 30.6138525,22.5698303 30.9637269,22.2116256 C31.3136013,21.8534208 31.7467726,21.2952963 32.2632538,20.5372352 C32.779735,19.779174 33.3461898,18.8836757 33.9626351,17.8507133 C34.9622762,16.1180021 35.8536094,14.2437032 36.6366616,12.2277604 C36.7033043,12.0611536 36.7866065,11.9153748 36.8865706,11.7904196 C36.9865347,11.6654645 37.0781671,11.5779972 37.1614705,11.5280152 L37.2614341,11.4530425 L37.3863886,11.3905652 C37.4363706,11.3655742 37.5446635,11.3405835 37.7112703,11.3155925 C37.8778772,11.2906015 38.0444815,11.2864364 38.2110883,11.3030971 L45.408468,11.2531153 C46.0582347,11.1698118 46.5913686,11.1906374 47.0078857,11.3155925 C47.4244028,11.4405476 47.6826395,11.5779962 47.7826036,11.7279424 L47.932549,11.9778514 Z"></path>
        </g>
    </g>
</svg>