<svg id="bath-tub" xmlns="http://www.w3.org/2000/svg" viewBox="0 0 19 18.001">
  <defs>
    <style>
      .cls-1 {
        fill: #1498c6;
      }
    </style>
  </defs>
  <path id="Shape" class="cls-1" d="M2.591,18H1.526L2,17.042l.636-1.28A4.82,4.82,0,0,1,.795,11.918V10.855A1.576,1.576,0,0,1,0,9.392,1.411,1.411,0,0,1,1.225,7.826h.362V1.62A1.681,1.681,0,0,1,3.282,0H4.545A1.634,1.634,0,0,1,6.189,1.62,1.773,1.773,0,0,1,7.54,3.256V4.3a.394.394,0,0,1-.4.391H4.366a.4.4,0,0,1-.4-.391V3.187a4.885,4.885,0,0,1,.976-1.314c-.016-.3-.069-.7-.346-.7H3.376a.634.634,0,0,0-.5.247.548.548,0,0,0-.1.489V7.826H17.843a1,1,0,0,1,.711.31A1.69,1.69,0,0,1,19,9.334a1.521,1.521,0,0,1-.749,1.408v1.4a4.638,4.638,0,0,1-1.777,3.7l.612,1.232.375.754A.352.352,0,0,1,17.5,18H16.431l-.107-.216-.673-1.354a5.321,5.321,0,0,1-2.015.4h-7.8a5.335,5.335,0,0,1-2.381-.562L2.7,17.784,2.591,18Zm.186-9.392V9.783H17.853V8.609Zm-1.588,0V9.783h.4V8.609Z"/>
</svg>
