<?xml version="1.0" encoding="utf-8"?>
<!-- Generator: Adobe Illustrator 22.0.0, SVG Export Plug-In . SVG Version: 6.00 Build 0)  -->
<svg version="1.1" id="Layer_1" xmlns="http://www.w3.org/2000/svg" xmlns:xlink="http://www.w3.org/1999/xlink" x="0px" y="0px"
	 viewBox="0 0 17.9 18" style="enable-background:new 0 0 17.9 18;" xml:space="preserve">
<style type="text/css">
	.st0{fill:#85BC00;}
</style>
<g>
	<path class="st0" d="M5.3,10.4c-0.1,0-0.2,0.1-0.2,0.1c-0.3,0.1-0.3,0.5,0,0.6c1.1,0.4,4,1.5,5.6,2.1c0.1,0,0.3,0,0.4-0.1
		c1.4-0.8,2.9-1.5,4.3-2.3c0.1-0.1,0.2-0.3,0.2-0.4c0.1-0.5-0.3-0.6-0.6-0.7c-1-0.2-2-0.4-3-0.6c-0.3,0-0.6-0.1-0.9-0.2v-8
		c0-0.2-0.2-0.4-0.4-0.4s-0.4,0.2-0.4,0.4v8c-0.1,0-0.2,0-0.3,0C8.5,9.3,6.9,9.9,5.3,10.4z"/>
	<path class="st0" d="M12.6,7.7l3.8,0.8c0.1,0,0.1,0,0.2,0c0.2,0,0.3-0.1,0.5-0.2c0.2-0.1,0.3-0.4,0.3-0.6V2.6
		c0-0.4-0.2-0.7-0.6-0.7L13,1.1c-0.2-0.1-0.5,0-0.7,0.1C12.1,1.4,12,1.6,12,1.8V7C12,7.4,12.3,7.7,12.6,7.7z M12.8,1.8l3.8,0.8
		l0,5.2c0,0,0,0,0,0L12.8,7L12.8,1.8z"/>
	<path class="st0" d="M17.2,12.6L15.8,12c0-0.2,0-0.4,0-0.6c-1.6,0.9-3,1.6-4.4,2.5c-0.3,0.2-0.5,0.2-0.8,0.1
		c-2.2-0.8-4.5-1.6-6.7-2.4c-0.3-0.1-0.6-0.4-0.6-0.7C3.1,10.2,3.7,10,4.1,9.9c0,0,0,0,0,0C4,9.4,4,8.3,4.3,8.3l3-0.9
		c0.5,0,0.9,1.2,1,1.4c0.4-0.1,0.6-0.2,0.6-0.2v-3c0-0.4-0.3-0.6-0.7-0.5L3,6.4C2.7,6.5,2.6,6.7,2.6,6.9c0,0.9,0,3.9,0,5.6l-2.3,1.2
		c-0.2,0.1-0.3,0.3-0.2,0.5c0.1,0.1,0.2,0.2,0.3,0.2c0.1,0,0.1,0,0.2,0l2-1c0,0,0,0.1,0,0.1c0,0.4,0.2,0.7,0.6,0.8
		c0.4,0.1,0.6-0.1,0.8-0.4c0,0,0,0,0,0c0.1-0.2,0.3-0.2,0.5-0.2C6,14.3,7.5,14.7,9,15.4c0.8,0.2,0.8,1.1,0.8,1.1
		c0.2,0.4,0.5,0.6,1,0.6c0.5-0.1,0.8-0.4,0.9-1c0-0.2,0.1-0.5,0.2-0.7c0.7-0.5,1.5-1,2-1.4c0.6-0.4,0.8,0.4,1.2,0.3
		c0.2-0.1,0.5-0.4,0.5-0.6c0-0.3,0-0.6,0-0.9l1.2,0.4c0,0,0.1,0,0.1,0c0.2,0,0.3-0.1,0.4-0.2C17.5,12.9,17.4,12.6,17.2,12.6z"/>
</g>
</svg>
