<svg id="double-king-size-bed" xmlns="http://www.w3.org/2000/svg" viewBox="0 0 21 14">
  <defs>
    <style>
      .cls-1 {
        fill: #04a89f;
      }
    </style>
  </defs>
  <path id="Shape" class="cls-1" d="M21,9.579H0L2.321,6.485V.8L3.266,0H17.734l.945.8v5.69L21,9.577ZM10.5,4.969a29.812,29.812,0,0,1,6.289.592V1.59H4.21V5.561A29.844,29.844,0,0,1,10.5,4.969Z"/>
  <path id="Shape-2" data-name="Shape" class="cls-1" d="M0,0V1.55H2.193V3.684H4.075V1.55H16.925V3.684h1.882V1.55H21V0Z" transform="translate(0 10.316)"/>
  <path id="Shape-3" data-name="Shape" class="cls-1" d="M4.5,1.781V.922C4.5.413,3.493,0,2.25,0S0,.413,0,.922V2.211S1.327,1.965,2.239,1.9C3.061,1.845,4.5,1.781,4.5,1.781Z" transform="translate(5.25 2.211)"/>
  <path id="Shape-4" data-name="Shape" class="cls-1" d="M4.5,2.211V.922C4.5.413,3.493,0,2.25,0S0,.413,0,.922v.858s1.439.064,2.261.121C3.173,1.965,4.5,2.211,4.5,2.211Z" transform="translate(11.25 2.211)"/>
</svg>
