<svg xmlns="http://www.w3.org/2000/svg" viewBox="0 0 22 21.998">
  <defs>
    <style>
      .cls-1 {
        fill: #f5a623;
      }
    </style>
  </defs>
  <g id="grill" transform="translate(0 -0.001)">
    <path id="Shape" class="cls-1" d="M1.692,3.845a2.275,2.275,0,0,0,0-3.737A.645.645,0,1,0,.977,1.181a.967.967,0,0,1,.4.8.967.967,0,0,1-.4.8,2.194,2.194,0,0,0,0,3.651.645.645,0,1,0,.715-1.073.9.9,0,0,1,0-1.506Z" transform="translate(6.475 0.001)"/>
    <path id="Shape-2" data-name="Shape" class="cls-1" d="M1.692,3.845a2.275,2.275,0,0,0,0-3.737A.645.645,0,1,0,.977,1.181a.967.967,0,0,1,.4.8.967.967,0,0,1-.4.8,2.194,2.194,0,0,0,0,3.651.645.645,0,1,0,.715-1.073.9.9,0,0,1,0-1.506Z" transform="translate(9.698 0.001)"/>
    <path id="Shape-3" data-name="Shape" class="cls-1" d="M1.692,3.845a2.275,2.275,0,0,0,0-3.737A.645.645,0,1,0,.977,1.181a.967.967,0,0,1,.4.8.967.967,0,0,1-.4.8,2.194,2.194,0,0,0,0,3.651.645.645,0,1,0,.715-1.073.9.9,0,0,1,0-1.506Z" transform="translate(12.92 0.001)"/>
    <path id="Shape-4" data-name="Shape" class="cls-1" d="M12.246,14.223a.643.643,0,0,1-.611-.441l-.284-.848h-7.6a1.93,1.93,0,1,1-1.815-2.578.267.267,0,0,1,.041,0l.036,0L3.366,6.93A6.4,6.4,0,0,1,0,1.325V.644A.645.645,0,0,1,.644,0H13.535a.645.645,0,0,1,.644.644v.68a6.392,6.392,0,0,1-3.442,5.647l2.119,6.4a.645.645,0,0,1-.612.849ZM4.555,7.429,3.206,10.844a1.942,1.942,0,0,1,.543.8h7.174L9.54,7.455a6.269,6.269,0,0,1-1.769.28H6.41A6.259,6.259,0,0,1,4.555,7.429Z" transform="translate(3.91 7.776)"/>
    <path id="Shape-5" data-name="Shape" class="cls-1" d="M1.085,0H.322A1.911,1.911,0,0,1,.44.645v.68A7.648,7.648,0,0,1,0,3.867H1.085A1.973,1.973,0,0,0,3.062,1.934,1.973,1.973,0,0,0,1.085,0Z" transform="translate(18.938 7.776)"/>
    <path id="Shape-6" data-name="Shape" class="cls-1" d="M2.621,1.325V.645A1.911,1.911,0,0,1,2.74,0H1.977A1.973,1.973,0,0,0,0,1.934,1.973,1.973,0,0,0,1.977,3.867H3.062A7.648,7.648,0,0,1,2.621,1.325Z" transform="translate(0 7.776)"/>
  </g>
</svg>
