<?xml version="1.0" encoding="utf-8"?>
<!-- Generator: Adobe Illustrator 22.0.0, SVG Export Plug-In . SVG Version: 6.00 Build 0)  -->
<svg version="1.1" id="Layer_1" xmlns="http://www.w3.org/2000/svg" xmlns:xlink="http://www.w3.org/1999/xlink" x="0px" y="0px"
	 viewBox="0 0 17.9 18" style="enable-background:new 0 0 17.9 18;" xml:space="preserve">
<style type="text/css">
	.st0{fill:#FF781D;}
</style>
<g id="teamwork-2_copy_2_1_" transform="translate(-0.035)">
	<ellipse id="Oval_1_" class="st0" cx="14.6" cy="2.2" rx="2.2" ry="2.2"/>
	<path id="Shape_1_" class="st0" d="M18,10.6l-0.5-4c-0.1-0.6-0.5-1-1.1-1h-0.6c-0.1,0-0.3,0.1-0.4,0.2l-0.7,0.7l-0.7-0.7
		c-0.1-0.1-0.2-0.2-0.4-0.2h-0.6c-0.6,0-1.1,0.4-1.1,1l-0.5,4c0,0.3,0.2,0.6,0.5,0.6c0,0,0,0,0.1,0h0.6l0.5,5.7c0.1,0.6,0.5,1,1.1,1
		h1.2c0.6,0,1.1-0.4,1.1-1l0.5-5.7h0.6C17.7,11.2,18,11,18,10.6C18,10.6,18,10.6,18,10.6L18,10.6z"/>
</g>
<g>
	<path class="st0" d="M4.1,16.3H3v-2l-1,1.2H2l-1-1.2v2H0v-3.5h1l1.1,1.3l1.1-1.3h1V16.3z"/>
	<path class="st0" d="M8.5,16.3H7.4l-0.3-0.7H5.6l-0.3,0.7H4.2l1.5-3.5h1.2L8.5,16.3z M6.8,15l-0.5-1.3L5.8,15H6.8z"/>
	<path class="st0" d="M12.5,16.3h-1.4l-0.4-0.4c0,0-0.1-0.1-0.2-0.3c-0.1-0.2-0.2-0.3-0.3-0.3c-0.2,0.3-0.4,0.5-0.5,0.6l-0.3,0.4
		H8.1l1.5-1.8l-1.4-1.7h1.3l0.2,0.3c0.1,0.2,0.3,0.4,0.5,0.6c0.2-0.3,0.3-0.5,0.4-0.6l0.3-0.3h1.3L11,14.5L12.5,16.3z"/>
</g>
</svg>
