<?xml version="1.0" encoding="utf-8"?>
<!-- Generator: Adobe Illustrator 22.0.0, SVG Export Plug-In . SVG Version: 6.00 Build 0)  -->
<svg version="1.1" id="Layer_1" xmlns="http://www.w3.org/2000/svg" xmlns:xlink="http://www.w3.org/1999/xlink" x="0px" y="0px"
	 viewBox="0 0 17.9 18" style="enable-background:new 0 0 17.9 18;" xml:space="preserve">
<style type="text/css">
	.st0{fill:#933EC5;}
</style>
<g id="teamwork-2_copy_2_3_" transform="translate(-0.035)">
	<ellipse id="Oval_3_" class="st0" cx="14.6" cy="2.2" rx="2.2" ry="2.2"/>
	<path id="Shape_3_" class="st0" d="M18,10.6l-0.5-4c-0.1-0.6-0.5-1-1.1-1h-0.6c-0.1,0-0.3,0.1-0.4,0.2l-0.7,0.7l-0.7-0.7
		c-0.1-0.1-0.2-0.2-0.4-0.2h-0.6c-0.6,0-1.1,0.4-1.1,1l-0.5,4c0,0.3,0.2,0.6,0.5,0.6c0,0,0,0,0.1,0h0.6l0.5,5.7c0.1,0.6,0.5,1,1.1,1
		h1.2c0.6,0,1.1-0.4,1.1-1l0.5-5.7h0.6C17.7,11.2,18,11,18,10.6C18,10.6,18,10.6,18,10.6L18,10.6z"/>
</g>
<g>
	<g>
		<path class="st0" d="M5.9,16.4H4.9v-2l-1,1.2H3.8l-1-1.2v2h-1v-3.5h1l1.1,1.3L5,12.9h1V16.4z"/>
		<path class="st0" d="M7.5,16.4H6.4v-3.5h1.1V16.4z"/>
		<path class="st0" d="M11.8,16.4h-0.9l-1.8-1.9v1.9H8v-3.5H9l1.8,1.9v-1.9h1.1V16.4z"/>
	</g>
</g>
</svg>
