<?xml version="1.0" encoding="UTF-8"?>
<svg width="16px" height="12px" viewBox="0 0 16 12" version="1.1" xmlns="http://www.w3.org/2000/svg" xmlns:xlink="http://www.w3.org/1999/xlink">
    <!-- Generator: Sketch 50.2 (55047) - http://www.bohemiancoding.com/sketch -->
    <title>online video</title>
    <desc>Created with Sketch.</desc>
    <defs></defs>
    <g id="Symbols" stroke="none" stroke-width="1" fill="none" fill-rule="evenodd">
        <g id="video" transform="translate(0.000000, -2.000000)" fill="#FFFFFF">
            <path d="M16,3.42857143 L16,13.1428571 C16,13.3928584 15.8839297,13.5684519 15.6517857,13.6696429 C15.5744044,13.6994049 15.5000004,13.7142857 15.4285714,13.7142857 C15.2678563,13.7142857 15.1339291,13.6577387 15.0267857,13.5446429 L11.4285714,9.94642857 L11.4285714,11.4285714 C11.4285714,12.1369083 11.1770858,12.742557 10.6741071,13.2455357 C10.1711284,13.7485144 9.56547973,14 8.85714286,14 L2.57142857,14 C1.8630917,14 1.25744299,13.7485144 0.754464286,13.2455357 C0.25148558,12.742557 0,12.1369083 0,11.4285714 L0,5.14285714 C0,4.43452027 0.25148558,3.82887156 0.754464286,3.32589286 C1.25744299,2.82291415 1.8630917,2.57142857 2.57142857,2.57142857 L8.85714286,2.57142857 C9.56547973,2.57142857 10.1711284,2.82291415 10.6741071,3.32589286 C11.1770858,3.82887156 11.4285714,4.43452027 11.4285714,5.14285714 L11.4285714,6.61607143 L15.0267857,3.02678571 C15.1339291,2.91368991 15.2678563,2.85714286 15.4285714,2.85714286 C15.5000004,2.85714286 15.5744044,2.87202366 15.6517857,2.90178571 C15.8839297,3.0029767 16,3.17857018 16,3.42857143 Z" id="online-video"></path>
        </g>
    </g>
</svg>