<svg xmlns="http://www.w3.org/2000/svg" viewBox="0 0 14.943 17.97">
  <defs>
    <style>
      .cls-1 {
        fill: #7ed321;
      }
    </style>
  </defs>
  <g id="restaurant-cutlery" transform="translate(-0.032)">
    <path id="Shape" class="cls-1" d="M1.975,0C1.126,0,0,2.405,0,4.241c0,1.21.385,1.867.961,2.175a1.349,1.349,0,0,1,.686,1.317l-.828,8.9a1.263,1.263,0,0,0,.3.94,1.124,1.124,0,0,0,1.722,0,1.263,1.263,0,0,0,.3-.94L2.3,7.733A1.349,1.349,0,0,1,2.99,6.416c.576-.308.961-.965.961-2.175C3.951,2.405,2.87,0,1.975,0Z" transform="translate(0.032)"/>
    <path id="Shape-2" data-name="Shape" class="cls-1" d="M3.682,0A.291.291,0,0,0,3.4.3v3.67a.285.285,0,1,1-.569,0V.3A.291.291,0,0,0,2.547,0h0A.291.291,0,0,0,2.26.3v3.67a.285.285,0,1,1-.57,0V.3A.291.291,0,0,0,1.408,0h0a.291.291,0,0,0-.283.3v3.67a.292.292,0,0,1-.285.3.292.292,0,0,1-.285-.3V.3A.291.291,0,0,0,.269,0,.275.275,0,0,0,0,.282v3.96c0,1.21.386,1.867.961,2.175a1.348,1.348,0,0,1,.686,1.317l-.828,8.9a1.263,1.263,0,0,0,.3.94,1.124,1.124,0,0,0,1.722,0,1.263,1.263,0,0,0,.3-.94L2.3,7.733A1.349,1.349,0,0,1,2.99,6.416c.576-.308.961-.965.961-2.175V.282A.275.275,0,0,0,3.682,0Z" transform="translate(5.904)"/>
    <path id="Shape-3" data-name="Shape" class="cls-1" d="M1.84,8.486a.2.2,0,0,0,.194-.2V.358A.35.35,0,0,0,1.693,0a.369.369,0,0,0-.351.278L.162,4.6A4.6,4.6,0,0,0,.738,8.318a.365.365,0,0,0,.3.168L.284,16.628a1.263,1.263,0,0,0,.3.94,1.124,1.124,0,0,0,1.722,0,1.263,1.263,0,0,0,.3-.94Z" transform="translate(12.371)"/>
  </g>
</svg>
