<?xml version="1.0"?>
<svg xmlns="http://www.w3.org/2000/svg" height="512px" viewBox="-112 0 480 480" width="512px">
    <path d="m169.28125 103.894531c-.425781.074219-.851562.109375-1.28125.105469h-80c-.429688.003906-.863281-.03125-1.289062-.105469-37.335938 14.71875-63.882813 48.367188-69.503907 88.105469h221.554688c-5.753907-39.675781-32.242188-73.261719-69.480469-88.105469zm0 0"
          fill="#1498c6"/>
    <path d="m256 216c0-4.417969-3.582031-8-8-8h-240c-4.417969 0-8 3.582031-8 8s3.582031 8 8 8h240c4.417969 0 8-3.582031 8-8zm0 0"
          fill="#1498c6"/>
    <path d="m189.128906 240h-122.257812c19.894531 5.554688 40.476562 8.25 61.128906 8 20.652344.25 41.234375-2.445312 61.128906-8zm0 0"
          fill="#1498c6"/>
    <path d="m120 0h16v56h-16zm0 0" fill="#1498c6"/>
    <path d="m96 72h64v16h-64zm0 0" fill="#1498c6"/>
    <path d="m112 304c-4.417969 0-8-3.582031-8-8l-.113281-24c0-4.417969 3.582031-8 8-8s8 3.582031 8 8l.113281 24c0 4.417969-3.582031 8-8 8zm0 0"
          fill="#1498c6"/>
    <path d="m144 320c-4.417969 0-8-3.582031-8-8l-.113281-40c0-4.417969 3.582031-8 8-8s8 3.582031 8 8l.113281 40c0 4.417969-3.582031 8-8 8zm0 0"
          fill="#1498c6"/>
    <path d="m112 416c-4.417969 0-8-3.582031-8-8v-32c0-4.417969 3.582031-8 8-8s8 3.582031 8 8v32c0 4.417969-3.582031 8-8 8zm0 0"
          fill="#1498c6"/>
    <path d="m112 480c-4.417969 0-8-3.582031-8-8v-32c0-4.417969 3.582031-8 8-8s8 3.582031 8 8v32c0 4.417969-3.582031 8-8 8zm0 0"
          fill="#1498c6"/>
    <path d="m144 432c-4.417969 0-8-3.582031-8-8v-80c0-4.417969 3.582031-8 8-8s8 3.582031 8 8v80c0 4.417969-3.582031 8-8 8zm0 0"
          fill="#1498c6"/>
    <path d="m144 480c-4.417969 0-8-3.582031-8-8v-16c0-4.417969 3.582031-8 8-8s8 3.582031 8 8v16c0 4.417969-3.582031 8-8 8zm0 0"
          fill="#1498c6"/>
    <path d="m176 288c-4.417969 0-8-3.582031-8-8v-16c0-4.417969 3.582031-8 8-8s8 3.582031 8 8v16c0 4.417969-3.582031 8-8 8zm0 0"
          fill="#1498c6"/>
    <path d="m176 368c-4.417969 0-8-3.582031-8-8v-48c0-4.417969 3.582031-8 8-8s8 3.582031 8 8v48c0 4.417969-3.582031 8-8 8zm0 0"
          fill="#1498c6"/>
    <path d="m176 456c-4.417969 0-8-3.582031-8-8v-56c0-4.417969 3.582031-8 8-8s8 3.582031 8 8v56c0 4.417969-3.582031 8-8 8zm0 0"
          fill="#1498c6"/>
    <path d="m80 336c-4.417969 0-8-3.582031-8-8v-64c0-4.417969 3.582031-8 8-8s8 3.582031 8 8v64c0 4.417969-3.582031 8-8 8zm0 0"
          fill="#1498c6"/>
    <path d="m80 416c-4.417969 0-8-3.582031-8-8v-48c0-4.417969 3.582031-8 8-8s8 3.582031 8 8v48c0 4.417969-3.582031 8-8 8zm0 0"
          fill="#1498c6"/>
    <path d="m80 456c-4.417969 0-8-3.582031-8-8v-8c0-4.417969 3.582031-8 8-8s8 3.582031 8 8v8c0 4.417969-3.582031 8-8 8zm0 0"
          fill="#1498c6"/>
    <path d="m208 320c-4.417969 0-8-3.582031-8-8v-56c0-4.417969 3.582031-8 8-8s8 3.582031 8 8v56c0 4.417969-3.582031 8-8 8zm0 0"
          fill="#1498c6"/>
    <path d="m208 384c-4.417969 0-8-3.582031-8-8v-32c0-4.417969 3.582031-8 8-8s8 3.582031 8 8v32c0 4.417969-3.582031 8-8 8zm0 0"
          fill="#1498c6"/>
    <path d="m208 432c-4.417969 0-8-3.582031-8-8v-16c0-4.417969 3.582031-8 8-8s8 3.582031 8 8v16c0 4.417969-3.582031 8-8 8zm0 0"
          fill="#1498c6"/>
    <path d="m48 296c-4.417969 0-8-3.582031-8-8v-32c0-4.417969 3.582031-8 8-8s8 3.582031 8 8v32c0 4.417969-3.582031 8-8 8zm0 0"
          fill="#1498c6"/>
    <path d="m48 368c-4.417969 0-8-3.582031-8-8v-40c0-4.417969 3.582031-8 8-8s8 3.582031 8 8v40c0 4.417969-3.582031 8-8 8zm0 0"
          fill="#1498c6"/>
    <path d="m48 432c-4.417969 0-8-3.582031-8-8v-32c0-4.417969 3.582031-8 8-8s8 3.582031 8 8v32c0 4.417969-3.582031 8-8 8zm0 0"
          fill="#1498c6"/>
    <path d="m112 352c-4.417969 0-8-3.582031-8-8v-16c0-4.417969 3.582031-8 8-8s8 3.582031 8 8v16c0 4.417969-3.582031 8-8 8zm0 0"
          fill="#1498c6"/>
</svg>
