<?xml version="1.0" encoding="utf-8"?>
<!-- Generator: Adobe Illustrator 22.0.0, SVG Export Plug-In . SVG Version: 6.00 Build 0)  -->
<svg version="1.1" id="double-king-size-bed" xmlns="http://www.w3.org/2000/svg" xmlns:xlink="http://www.w3.org/1999/xlink"
	 x="0px" y="0px" viewBox="0 0 21 14" style="enable-background:new 0 0 21 14;" xml:space="preserve">
<style type="text/css">
	.st0{fill:#F79D43;}
</style>
<path id="Shape" class="st0" d="M19,9.6H2l2.3-3.1V0.8L5.3,0h10.5l0.9,0.8v5.7L19,9.6L19,9.6z M10.5,5c2.1,0,4.3,0.6,4.3,0.6v-4H6.2
	v4C6.2,5.6,8.4,4.9,10.5,5z"/>
<path id="Shape-2" class="st0" d="M2,10.3v1.6h2.2V14h1.9v-2.1h8.8V14h1.9v-2.1H19v-1.6H2z"/>
<path class="st0" d="M10.5,2.2c-1.7,0-3,0.4-3,0.9v1.4c0,0,1.8-0.3,3-0.3s3,0.3,3,0.3V3.1C13.5,2.6,12.2,2.2,10.5,2.2z"/>
</svg>
