<svg id="sofa" xmlns="http://www.w3.org/2000/svg" viewBox="0 0 18 19">
  <defs>
    <style>
      .cls-1 {
        fill: #d0021b;
      }
    </style>
  </defs>
  <path id="Shape" class="cls-1" d="M.8,10.133v.01a4.008,4.008,0,0,1,.491,1.934v.748a12.581,12.581,0,0,1,4.679-.853,12.854,12.854,0,0,1,4.742.85l.006-.747a4.374,4.374,0,0,1,.506-2.113L11.948,5a4.307,4.307,0,0,0-.917-3.432A4.438,4.438,0,0,0,7.594,0H4.407A4.43,4.43,0,0,0,.969,1.567,4.31,4.31,0,0,0,.052,5Z" transform="translate(3.231)"/>
  <path id="Shape-2" data-name="Shape" class="cls-1" d="M16.738,0c-1.4,0-2.133,1.355-2.133,2.692v.8a.878.878,0,0,1-.363.729.688.688,0,0,1-.656.063A12.122,12.122,0,0,0,9,3.455a11.929,11.929,0,0,0-4.518.831.687.687,0,0,1-.657-.063.881.881,0,0,1-.363-.729v-.8A2.507,2.507,0,0,0,1.119,0C.4,0,0,.864,0,1.3A1.569,1.569,0,0,0,.832,2.643c.047.021.1.043.153.063A1.527,1.527,0,0,1,2.177,4.079V5.815c0,.648.138,2.073,1.3,2.341a.415.415,0,0,0-.009.047v.864a.43.43,0,0,0,.429.432H4.32a.43.43,0,0,0,.429-.432V8.2H13.32v.864a.43.43,0,0,0,.429.432h.429a.43.43,0,0,0,.429-.432V8.2c0-.012-.006-.022-.007-.034,1.056-.2,1.293-1.363,1.293-2.354V4.081a1.524,1.524,0,0,1,1.187-1.374l.15-.063A1.528,1.528,0,0,0,18,1.3,1.466,1.466,0,0,0,16.738,0Z" transform="translate(0 9.5)"/>
</svg>
