<svg xmlns="http://www.w3.org/2000/svg" viewBox="0 0 17.93 17.965">
  <defs>
    <style>
      .cls-1 {
        fill: #933ec5;
      }
    </style>
  </defs>
  <g id="teamwork-2_copy_2" data-name="teamwork-2 copy 2" transform="translate(-0.035)">
    <ellipse id="Oval" class="cls-1" cx="2.241" cy="2.246" rx="2.241" ry="2.246" transform="translate(6.759 0)"/>
    <path id="Shape" class="cls-1" d="M6.719,4.981,6.21,1.011A1.117,1.117,0,0,0,5.1,0H4.482a.564.564,0,0,0-.4.164L3.362.889,2.638.164A.564.564,0,0,0,2.241,0H1.628A1.115,1.115,0,0,0,.514,1L0,4.982a.562.562,0,0,0,.556.632h.605l.468,5.726a1.118,1.118,0,0,0,1.115,1.011H3.976A1.121,1.121,0,0,0,5.092,11.33l.467-5.716h.6a.562.562,0,0,0,.556-.633Z" transform="translate(5.638 5.614)"/>
    <ellipse id="Oval-2" data-name="Oval" class="cls-1" cx="2.241" cy="2.246" rx="2.241" ry="2.246" transform="translate(12.362 0)"/>
    <path id="Shape-2" data-name="Shape" class="cls-1" d="M2.241,0A2.246,2.246,0,1,0,4.482,2.246,2.246,2.246,0,0,0,2.241,0Z" transform="translate(1.156 0)"/>
    <path id="Shape-3" data-name="Shape" class="cls-1" d="M5.456,4.981,4.948,1.012A1.116,1.116,0,0,0,3.834,0H3.22a.564.564,0,0,0-.4.164L2.1.889,1.375.164A.563.563,0,0,0,.979,0H.365a1.066,1.066,0,0,0-.2.037A2.188,2.188,0,0,1,.458.881L.966,4.838A1.682,1.682,0,0,1,.556,6.17a1.624,1.624,0,0,1-.556.4l.372,3.652a1.117,1.117,0,0,0,1.115,1.011H2.714A1.121,1.121,0,0,0,3.83,10.207L4.3,5.614h.6a.562.562,0,0,0,.556-.633Z" transform="translate(12.504 5.614)"/>
    <path id="Shape-4" data-name="Shape" class="cls-1" d="M4.9,6.164A1.684,1.684,0,0,1,4.5,4.84L5.006.853A2.078,2.078,0,0,1,5.285.036,1.052,1.052,0,0,0,5.1,0H4.482a.564.564,0,0,0-.4.164L3.362.889,2.638.164A.563.563,0,0,0,2.242,0H1.628A1.115,1.115,0,0,0,.514,1L0,4.982a.562.562,0,0,0,.556.632h.605l.468,4.6a1.118,1.118,0,0,0,1.115,1.011H3.976a1.121,1.121,0,0,0,1.116-1.021l.372-3.644A1.681,1.681,0,0,1,4.9,6.164Z" transform="translate(0.035 5.614)"/>
  </g>
</svg>
