<?xml version="1.0"?>
<svg xmlns="http://www.w3.org/2000/svg" height="512px" viewBox="-96 0 448 448" width="512px"><path d="m256 8c0-4.417969-3.582031-8-8-8h-240c-4.417969 0-8 3.582031-8 8s3.582031 8 8 8h240c4.417969 0 8-3.582031 8-8zm0 0" fill="#1498c6"/><path d="m240 168v-136h-224v136c0 4.417969 3.582031 8 8 8h208c4.417969 0 8-3.582031 8-8zm-144-96h-25.472656c-3.894532 11.019531-15.164063 17.632812-26.683594 15.65625-11.523438-1.976562-19.941406-11.96875-19.941406-23.65625s8.417968-21.679688 19.941406-23.65625c11.519531-1.976562 22.789062 4.636719 26.683594 15.65625h25.472656c4.417969 0 8 3.582031 8 8s-3.582031 8-8 8zm0 0" fill="#1498c6"/><path d="m56 64c0 4.417969-3.582031 8-8 8s-8-3.582031-8-8 3.582031-8 8-8 8 3.582031 8 8zm0 0" fill="#1498c6"/><path d="m48 192h160v16h-160zm0 0" fill="#1498c6"/><path d="m232 224h-208c-10.167969.011719-19.230469 6.417969-22.632812 16h253.265624c-3.402343-9.582031-12.464843-15.988281-22.632812-16zm0 0" fill="#1498c6"/><path d="m164.609375 386.921875c-2.847656.796875-5.722656 1.527344-8.632813 2.125-1.457031.304687-2.921874.570313-4.382812.800781-2.457031.425782-4.921875.800782-7.402344 1.074219-1.527344.175781-3.046875.375-4.582031.503906-3.261719.269531-6.523437.425781-9.792969.460938-.609375 0-1.207031.089843-1.816406.089843s-1.199219-.082031-1.808594-.089843c-3.273437-.035157-6.539062-.191407-9.800781-.460938-1.535156-.128906-3.039063-.320312-4.558594-.503906-2.503906-.296875-4.992187-.648437-7.464843-1.082031-1.4375-.253906-2.878907-.503906-4.3125-.800782-2.992188-.625-5.949219-1.355468-8.871094-2.191406-.800782-.222656-1.597656-.40625-2.398438-.648437l-.785156-.183594v61.984375h80v-61.984375c-.230469.074219-.480469.121094-.710938.191406-.890624.265625-1.792968.464844-2.679687.714844zm0 0" fill="#1498c6"/><path d="m82.992188 367.199219c7.117187 2.914062 14.503906 5.117187 22.054687 6.570312 35.183594 6.855469 71.589844-2.375 99.253906-25.167969 27.664063-22.792968 43.695313-56.757812 43.699219-92.601562h-240c-.148438 48.929688 29.570312 93 74.992188 111.199219zm0 0" fill="#1498c6"/></svg>
