<?xml version="1.0" encoding="utf-8"?>
<!-- Generator: Adobe Illustrator 22.0.0, SVG Export Plug-In . SVG Version: 6.00 Build 0)  -->
<svg version="1.1" id="double-king-size-bed" xmlns="http://www.w3.org/2000/svg" xmlns:xlink="http://www.w3.org/1999/xlink"
	 x="0px" y="0px" viewBox="0 0 21 17.4" style="enable-background:new 0 0 21 17.4;" xml:space="preserve">
<style type="text/css">
	.st0{fill:#EC66FF;}
	.st1{font-family:'MyriadPro-Regular';}
	.st2{font-size:12px;}
	.st3{letter-spacing:33;}
</style>
<g>
	<path class="st0" d="M12.8,2.7V1.9c0-0.4-1-0.7-2.3-0.7S8.2,1.5,8.2,1.9v0.7c0,0,1.4-0.1,2.3-0.1S12.8,2.7,12.8,2.7z"/>
	<path class="st0" d="M21,15.4L21,15.4l-2.2-2.9V8V7.5V5.1l-0.6-0.5h-1.2l-1-1.3V0H5v3.3l-1,1.3L3,4.6L2.2,5.1v2.4V8v4.5L0,15.4
		c0,0,0.6-0.1,2.2-0.2v0.5H0v1h2.2v0.8h0h1.9h0v-0.8h12.8v0.8h0h1.9h0v-0.8H21v-1h-2.2v-0.5C20.3,15.3,21,15.4,21,15.4z M5.9,0.8
		h9.3v2.7c0,0-1.9-0.4-4.7-0.4S5.9,3.5,5.9,3.5V0.8z M4.1,6.8c1.3-0.1,3.3-0.3,6.4-0.3c3.1,0,5.2,0.1,6.4,0.3v0.7
		c-2.6,0-10.3,0-12.9,0V6.8z M16.9,8v3.4c-1.8-0.2-5-0.7-6.4-0.6c-1.5,0-4.7,0.4-6.4,0.6V8H16.9z M16.9,15.6H4.1V15
		c1.5-0.1,3.5-0.1,6.1-0.1c2.9,0,5.1,0.1,6.8,0.1V15.6z"/>
	<path class="st0" d="M7.5,10.5c0.8-0.1,2.3-0.1,2.3-0.1V9.5c0-0.5-1-0.9-2.2-0.9S5.2,9,5.2,9.5v1.3C5.2,10.8,6.6,10.5,7.5,10.5z"/>
	<path class="st0" d="M15.8,10.8V9.5c0-0.5-1-0.9-2.2-0.9S11.2,9,11.2,9.5v0.9c0,0,1.4,0.1,2.3,0.1C14.4,10.5,15.8,10.8,15.8,10.8z"
		/>
</g>
<text transform="matrix(1 0 0 1 -451.0552 -68.043)"><tspan x="0" y="0" class="st1 st2">&lt;!-- ПутукфещкЖ Фвщиу Шддгыекфещк 22/0/0? ЫМП Учзщке Здгп-Шт  --&gt;</tspan><tspan x="0" y="14.4" class="st1 st2">Бымп мукышщт=Э1ю1Э</tspan><tspan x="0" y="28.8" class="st1 st2 st3">	</tspan><tspan x="36" y="28.8" class="st1 st2"> чьдты=ЭреезЖ..цццюц3ющкп.2000.ымпЭ чьдтыЖчдштл=ЭреезЖ..цццюц3ющкп.1999.чдштлЭ чьдтыЖф=ЭреезЖ..тыюфвщиуюсщь.ФвщиуЫМПМшуцукУчеутышщты.3ю0.Э</tspan><tspan x="0" y="43.2" class="st1 st2 st3">	</tspan><tspan x="36" y="43.2" class="st1 st2"> ч=Э0зчЭ н=Э0зчЭ цшвер=Э21зчЭ рушпре=Э0зчЭ мшуцИщч=Э0 0 21 0@ ыенду=Эутфиду-ифслпкщгтвЖтуц 0 0 21 0$@ чьдЖызфсу=ЭзкуыукмуЭЮ</tspan><tspan x="0" y="57.6" class="st1 st2">Быенду ензу=Эеуче.сыыЭЮ</tspan><tspan x="0" y="72" class="st1 st2 st3">	</tspan><tspan x="36" y="72" class="st1 st2">юые0ХашддЖ№04Ф89АжЪ</tspan><tspan x="0" y="86.4" class="st1 st2">Б.ыендуЮ</tspan><tspan x="0" y="100.8" class="st1 st2">БвуаыЮ</tspan><tspan x="0" y="115.2" class="st1 st2">Б.вуаыЮ</tspan><tspan x="0" y="129.6" class="st1 st2">Бзщдндшту сдфыы=Эые0Э зщштеы=Э0б0 10/3?0 21?0 @|&gt;</tspan><tspan x="0" y="144" class="st1 st2">Б.ымпЮ</tspan></text>
</svg>
