<?xml version="1.0" encoding="UTF-8"?>
<svg width="19px" height="19px" viewBox="0 0 19 19" version="1.1" xmlns="http://www.w3.org/2000/svg" xmlns:xlink="http://www.w3.org/1999/xlink">
    <!-- Generator: Sketch 50.2 (55047) - http://www.bohemiancoding.com/sketch -->
    <title>family</title>
    <desc>Created with Sketch.</desc>
    <defs></defs>
    <g id="Welcome" stroke="none" stroke-width="1" fill="none" fill-rule="evenodd">
        <g id="Events-Desktop" transform="translate(-349.000000, -482.000000)" fill="#FFFFFF" fill-rule="nonzero">
            <g id="family" transform="translate(349.000000, 482.000000)">
                <path d="M4.35430273,2.24177734 C3.93663672,1.09676758 2.67335937,0.486652344 1.50044336,0.911072266 C0.343410156,1.3315957 -0.288117187,2.6073418 0.132628906,3.76493164 C0.552595703,4.91825391 1.87305859,5.51497266 3.02359766,5.09563672 C4.18526953,4.67184766 4.77341602,3.39480273 4.35430273,2.24177734 Z" id="Shape"></path>
                <path d="M17.5322871,0.911072266 C16.3664219,0.488285156 15.0981348,1.09112695 14.6784277,2.24177734 C14.2567168,3.40192773 14.8542891,4.67455664 16.0096895,5.09563672 C17.1689863,5.51901758 18.4471816,4.90693555 18.8630293,3.76493164 C19.2837383,2.6073418 18.6893945,1.3315957 17.5322871,0.911072266 Z" id="Shape"></path>
                <path d="M14.4332461,11.3928008 C14.2489609,11.1481758 13.900541,11.0981895 13.6537266,11.281918 L11.3473789,13.0111035 C10.9435547,13.5791367 10.2464551,13.953125 9.49781055,13.953125 C8.74916602,13.953125 8.08910156,13.5791367 7.68527734,13.0110664 L5.37900391,11.2813613 C5.13222656,11.0965566 4.78269336,11.1470996 4.59948437,11.3928008 C4.41557031,11.6372773 4.46351562,11.9875156 4.71036719,12.1712441 L7.86158398,14.535334 C7.96433984,14.6119648 8.03662891,14.721252 8.06761523,14.8457168 L8.81885742,19 L10.1767637,19 L10.9651152,14.8457168 C10.9961016,14.721252 11.0683906,14.6119648 11.1711465,14.535334 L14.3223633,12.1718008 C14.5700312,11.986291 14.6165664,11.636498 14.4332461,11.3928008 Z" id="Shape"></path>
                <path d="M9.49781055,10.6132812 C8.8840957,10.6132812 8.3845293,11.1128477 8.3845293,11.7265625 C8.3845293,12.3402773 8.8840957,12.8398438 9.49781055,12.8398438 C10.1115254,12.8398438 10.6482012,12.3402773 10.6482012,11.7265625 C10.6482012,11.1128477 10.1115254,10.6132812 9.49781055,10.6132812 Z" id="Shape"></path>
                <path d="M18.3226797,8.8607168 C17.8350625,7.66264062 16.8582324,6.68458594 15.642752,6.24265039 C14.4256387,5.79963867 13.0748203,5.89367383 11.9310723,6.49703516 C10.7873613,7.10150977 9.91146875,8.20406641 9.59240234,9.45706445 L9.57933984,9.50823828 C10.6372539,9.54731445 11.5423887,10.3224922 11.7222578,11.338918 L12.986166,10.390959 C13.72275,9.83973633 14.7724258,9.98925 15.3236113,10.7241641 C15.8773574,11.4621211 15.7288828,12.508123 14.9898496,13.0627227 L11.9968301,15.307209 L11.3166152,19 L14.7833359,19 C14.9969746,19 15.1921328,18.8776875 15.2850918,18.6847187 L18.2068984,12.5794473 C18.7678809,11.4139902 18.8102969,10.058793 18.3226797,8.8607168 Z" id="Shape"></path>
                <path d="M6.04708398,10.390959 L7.31047266,11.3387324 C7.49041602,10.322418 8.35844141,9.54731445 9.41628125,9.50823828 L9.40321875,9.45706445 C9.08411523,8.20406641 8.24536914,7.10150977 7.1016582,6.49703516 C5.95902344,5.89363672 4.60601562,5.8001582 3.38997852,6.24265039 C2.17449805,6.68458594 1.16055859,7.66267773 0.672941406,8.86075391 C0.185324219,10.0588301 0.227740234,11.4140273 0.788722656,12.5794844 L3.74763867,18.6847559 C3.84063477,18.8776875 4.03575586,19 4.24939453,19 L7.71611523,19 L7.03586328,15.307209 L4.04284375,13.062166 C3.31067578,12.513875 3.15054883,11.4685039 3.70908203,10.7241641 C4.26301367,9.98813672 5.31213281,9.83866016 6.04708398,10.390959 Z" id="Shape"></path>
                <path d="M10.9373945,0 C10.3258691,0 9.81416797,0.279396484 9.49781055,0.6305625 C9.18197266,0.279396484 8.70686133,0 8.09533594,0 C7.00869922,0 6.1579668,0.902908203 6.1579668,2.05585937 C6.1579668,3.46249023 7.53650586,4.58438086 9.15425195,5.98715234 C9.25916016,6.07792187 9.36789063,6.12304688 9.49781055,6.12304688 C9.62773047,6.12304688 9.77883984,6.07792187 9.88322852,5.98715234 C11.2992852,4.76358203 12.8747637,3.55199805 12.8747637,2.05585937 C12.8747637,0.902908203 12.0240313,0 10.9373945,0 Z" id="Shape"></path>
            </g>
        </g>
    </g>
</svg>