<?xml version="1.0" encoding="UTF-8"?>
<svg width="19px" height="19px" viewBox="0 0 19 19" version="1.1" xmlns="http://www.w3.org/2000/svg" xmlns:xlink="http://www.w3.org/1999/xlink">
    <!-- Generator: Sketch 50.2 (55047) - http://www.bohemiancoding.com/sketch -->
    <title>badminton-racket-and-feather</title>
    <desc>Created with Sketch.</desc>
    <defs></defs>
    <g id="Welcome" stroke="none" stroke-width="1" fill="none" fill-rule="evenodd">
        <g id="Events-Desktop" transform="translate(-352.000000, -730.000000)" fill="#FFFFFF" fill-rule="nonzero">
            <g id="Group-11-Copy" transform="translate(85.000000, 716.000000)">
                <g id="badminton-racket-and-feather" transform="translate(267.000000, 14.000000)">
                    <path d="M18.7157732,14.5902799 L14.4246344,10.9960261 C13.2418956,10.005036 12.4332108,8.74467823 12.098185,7.37128489 L12.098185,7.37042345 C12.7302814,5.59545047 12.0519144,3.41983421 10.1515567,1.82752341 C7.55405556,-0.347830679 3.65386967,-0.620232157 1.45702261,1.22073441 C-0.740360916,3.06203807 -0.415170327,6.32950747 2.18166026,8.50512374 C4.0819285,10.0969851 6.67746261,10.6649345 8.79571673,10.1365738 L8.7985332,10.137173 C10.4374508,10.4169154 11.9419826,11.0946794 13.1247214,12.0852949 L17.4151897,15.6792491 C17.7746697,15.9801154 18.3562932,15.9801154 18.7157732,15.6792491 C18.8881144,15.5348647 18.9849026,15.3390188 18.9849026,15.1347457 C18.9849026,14.9304353 18.8881591,14.7346643 18.7157732,14.5902799 Z M1.63638261,4.24381778 L3.98876144,4.24381778 L3.98876144,6.08916645 L2.12832614,6.08916645 C1.78923203,5.48005532 1.62319438,4.84607487 1.63638261,4.24381778 Z M5.06510026,4.24381778 L7.27160379,4.2434807 L7.27298967,5.27312308 C7.27370497,5.54552456 7.27370497,5.81736423 7.27442026,6.08882936 L5.06505556,6.08912899 L5.06505556,4.24381778 L5.06510026,4.24381778 Z M8.3493732,5.27196201 L8.34803203,4.2434807 L10.2048908,4.2434807 C10.5439403,4.85255437 10.7101567,5.48657228 10.696745,6.08886682 L8.35075908,6.08886682 C8.3500885,5.8170646 8.3500885,5.5450002 8.3493732,5.27196201 Z M9.55254261,3.34174304 L8.34727203,3.34174304 L8.34584144,2.33060283 C8.56941556,2.47232801 8.78659673,2.62618821 8.99255673,2.79870041 C9.19865085,2.9716246 9.3829732,3.15417441 9.55254261,3.34174304 Z M7.26878732,1.78340283 L7.2708885,3.34170558 L5.06510026,3.34200521 L5.06510026,1.37099905 C5.78477556,1.35987528 6.54160144,1.49897868 7.26878732,1.78340283 Z M3.98876144,1.50721852 L3.98876144,3.34200521 L1.79915673,3.34200521 C1.95737085,2.90993819 2.22788614,2.51723511 2.61602261,2.19198632 C3.00420379,1.86681244 3.47307908,1.63987988 3.98876144,1.50721852 Z M2.78067438,6.99086665 L3.98876144,6.99086665 L3.98876144,8.00290575 C3.76518732,7.86054386 3.54657556,7.70642148 3.34061556,7.5335722 C3.13470026,7.36102254 2.95042261,7.17813565 2.78067438,6.99086665 Z M5.06510026,8.54920686 L5.06510026,6.99090411 L7.27585085,6.99060448 C7.27719203,7.67653335 7.27795203,8.33841688 7.27795203,8.961311 C6.55541556,8.97393293 5.79532614,8.83475462 5.06510026,8.54920686 Z M8.35433556,8.82246977 C8.35433556,8.24040029 8.35362026,7.62462238 8.35218967,6.99060448 L10.5342838,6.99060448 C10.3758461,7.42270895 10.1053756,7.81537458 9.71723908,8.14062337 C9.33182967,8.46343766 8.86572614,8.68947133 8.35433556,8.82246977 Z" id="Shape"></path>
                    <path d="M8.37742465,12.2291432 C8.02496347,12.1235235 7.636827,12.1393665 7.29840347,12.273526 L7.23809524,12.2973091 L8.4454223,14.4356963 L8.50488112,14.4121753 C9.20993759,14.1330696 9.51129994,13.428264 9.17765994,12.8371307 C9.01729994,12.5535306 8.72988583,12.3348753 8.37742465,12.2291432 Z" id="Shape"></path>
                    <polygon id="Shape" points="6.33333333 12.4197795 7.5407051 14.5577922 8.19515451 14.2986494 6.98858745 12.16"></polygon>
                    <path d="M0.0898827182,13.4366377 C0.0898827182,13.4369373 0.0891674241,13.4363381 0.0884968359,13.4366377 C-0.190423164,13.547089 0.212063895,14.748045 0.985296836,16.1185919 C1.75852978,17.4892136 2.61250154,18.5108034 2.88981213,18.4009889 L2.88981213,18.401326 L6.96448507,15.0586868 L5.75729213,12.92 L0.0898827182,13.4366377 Z" id="Shape"></path>
                </g>
            </g>
        </g>
    </g>
</svg>