<?xml version="1.0" encoding="UTF-8"?>
<svg width="44px" height="44px" viewBox="0 0 44 44" version="1.1" xmlns="http://www.w3.org/2000/svg" xmlns:xlink="http://www.w3.org/1999/xlink">
    <!-- Generator: Sketch 50.2 (55047) - http://www.bohemiancoding.com/sketch -->
    <title>contacts icon</title>
    <desc>Created with Sketch.</desc>
    <defs>
        <path d="M16.6367845,27.8551707 C15.7379912,27.5974473 14.8776015,27.2348624 14.0637394,26.7600311 C12.7809095,26.0119688 11.6162448,25.109568 10.5173093,24.1126439 C8.99593368,22.7339348 7.70645703,21.1543641 6.45612256,19.5356548 C5.52409534,18.3290074 4.64893506,17.08396 3.88677017,15.7650664 C3.17556397,14.5347883 2.54928894,13.2683255 2.07072029,11.9280165 C1.82700477,11.2397697 1.61209199,10.5433998 1.47767919,9.83152214 C1.37945445,9.31312163 1.26055082,8.78585957 1.31520218,8.36345916 C1.31224805,7.495766 1.46807828,6.77133451 1.67412867,6.0513338 C1.90307355,5.24493301 2.23245877,4.48431688 2.66006872,3.76579309 C2.80038978,3.53096209 2.96951358,3.31459265 3.11500436,3.08345396 C3.19919699,2.9534846 4.39783423,1.58437556 5.16443031,1.55705246 C5.92807227,1.52751397 9.49148857,2.93797689 9.19829141,6.7070883 C8.7832365,7.22991958 7.47308095,8.39078226 7.35122319,8.47275157 C7.01666825,8.69281333 6.7397188,8.98524439 6.44356752,9.25330619 C6.18877402,9.48813719 6.15037036,9.77909132 6.22496208,10.0663531 C6.41033358,10.7760154 6.65995736,11.4679545 6.93469122,12.1502937 C7.43098464,13.3783564 8.05725967,14.5370037 8.77068146,15.6483894 C9.72412611,17.133437 10.8762358,18.4486383 12.1494648,19.6656241 C13.3303773,20.7939945 14.6316704,21.7672877 16.0422663,22.5877193 C16.3384176,22.7612579 16.6714955,22.7516579 16.9720779,22.5773808 C17.2866925,22.397196 17.5665961,22.163842 17.8199125,21.9002109 C17.9306923,21.7872262 19.3686139,19.5533779 20.3360906,19.4455624 C21.5952875,19.2454391 25.1239928,22.152765 24.9999194,24.9219985 C24.9164653,25.753507 21.4771224,27.5767704 20.7363749,27.7665552 C19.9306366,27.9718477 19.1189901,28.0523401 18.2925729,28.0523401 C18.2748482,28.0523401 18.2563849,28.0523401 18.2386601,28.0523401 C17.6980548,28.0486478 17.1537568,28.0028631 16.6367845,27.8551707 Z" id="path-1"></path>
    </defs>
    <g id="Welcome" stroke="none" stroke-width="1" fill="none" fill-rule="evenodd">
        <g id="Main-Mobile-Portrait" transform="translate(-247.000000, -29.000000)">
            <g id="contacts-icon" transform="translate(248.000000, 30.000000)">
                <g id="Page-1" transform="translate(8.076923, 6.461538)">
                    <mask id="mask-2" fill="white">
                        <use xlink:href="#path-1"></use>
                    </mask>
                    <g id="Clip-2"></g>
                    <polygon id="Fill-1" fill="#FFFFFF" mask="url(#mask-2)" points="-17.7692308 46.8461538 42 46.8461538 42 -14.5384615 -17.7692308 -14.5384615"></polygon>
                </g>
                <circle id="Oval-3" stroke="#B8E986" stroke-width="1.61538462" cx="21" cy="21" r="21"></circle>
            </g>
        </g>
    </g>
</svg>