<?xml version="1.0" encoding="UTF-8"?>
<svg width="37px" height="12px" viewBox="0 0 37 12" version="1.1" xmlns="http://www.w3.org/2000/svg" xmlns:xlink="http://www.w3.org/1999/xlink">
    <!-- Generator: Sketch 50.2 (55047) - http://www.bohemiancoding.com/sketch -->
    <title>mcvsax_acc_hrz copy</title>
    <desc>Created with Sketch.</desc>
    <defs></defs>
    <g id="Symbols" stroke="none" stroke-width="1" fill="none" fill-rule="evenodd">
        <g id="m-footer" transform="translate(-122.000000, -292.000000)" fill="#FFFFFF" fill-rule="nonzero">
            <g id="mcvsax_acc_hrz-copy" transform="translate(122.000000, 292.000000)">
                <path d="M13.8542341,0.209936017 L9.07587569,11.5761798 L5.95040857,11.5761798 L3.60630822,2.48918279 C3.45604538,1.9193711 3.3358351,1.73943056 2.91509915,1.49950985 C1.98921782,1.05480972 1.00929405,0.73220799 0,0.539826998 L0.060105137,0.209936017 L5.07888408,0.209936017 C5.75727337,0.212991538 6.33179805,0.709877745 6.43124966,1.37954949 L7.66340497,7.94737902 L10.728767,0.209936017 L13.8542341,0.209936017 Z M26.0856295,7.85740875 C26.0856295,4.85839984 21.938375,4.6784593 21.9684276,3.35889538 C21.9684276,2.93903413 22.359111,2.51917288 23.2306355,2.39921253 C24.2305348,2.30604275 25.2371795,2.48209824 26.1457346,2.90904404 L26.6566283,0.509836908 C25.7742606,0.171721074 24.8369749,-0.00111295213 23.891792,5.39269139e-06 C20.9766928,5.39269139e-06 18.9331182,1.55949003 18.9030656,3.74876654 C18.873013,5.39822144 20.3756415,6.29792412 21.4875865,6.83774572 C22.5995315,7.37756733 23.0202675,7.76743849 23.0202675,8.24727991 C23.0202675,8.99703214 22.0886379,9.35691321 21.2471659,9.35691321 C20.1897232,9.38608435 19.1431148,9.13790237 18.2118565,8.63715107 L17.6709103,11.1263285 C18.7115543,11.5431466 19.8254981,11.747115 20.9466403,11.7261303 C24.0420548,11.7561203 26.0555769,10.2266258 26.0856295,7.85740875 Z M33.779087,11.5761798 L36.5138707,11.5761798 L34.1397178,0.209936017 L31.6153021,0.209936017 C31.061297,0.203312784 30.5600466,0.536784981 30.3530942,1.04965851 L25.9053141,11.5761798 L29.0007286,11.5761798 L29.60178,9.86674473 L33.3884036,9.86674473 L33.779087,11.5761798 Z M30.4733045,7.55750786 L32.036038,3.2989152 L32.9376151,7.55750786 L30.4733045,7.55750786 Z M18.0615937,0.209936017 L15.6273356,11.5761798 L12.6821839,11.5761798 L15.116442,0.209936017 L18.0615937,0.209936017 Z" id="Shape"></path>
            </g>
        </g>
    </g>
</svg>