<?xml version="1.0" encoding="UTF-8"?>
<svg width="75px" height="25px" viewBox="0 0 75 25" version="1.1" xmlns="http://www.w3.org/2000/svg" xmlns:xlink="http://www.w3.org/1999/xlink">
    <!-- Generator: Sketch 50.2 (55047) - http://www.bohemiancoding.com/sketch -->
    <title>Page 1 Copy</title>
    <desc>Created with Sketch.</desc>
    <defs>
        <polygon id="path-1" points="0 0.0763393626 9.23634259 0.0763393626 9.23634259 3.64205857 0 3.64205857"></polygon>
        <polygon id="path-3" points="0.0634969854 0.030252235 3.63593454 0.030252235 3.63593454 9.24093231 0.0634969854 9.24093231"></polygon>
    </defs>
    <g id="Symbols" stroke="none" stroke-width="1" fill="none" fill-rule="evenodd">
        <g id="m-footer" transform="translate(-29.000000, -320.000000)">
            <g id="Page-1-Copy" transform="translate(29.000000, 320.000000)">
                <path d="M39.8148148,8.34395587 C39.2607202,9.7719308 38.7393264,11.1138066 38.2194229,12.4562833 C37.9555801,13.1372647 37.682548,13.8149841 37.4389881,14.503777 C37.3575255,14.7339184 37.2494882,14.8120342 37.0190087,14.8070554 C36.3716128,14.7928057 35.7232236,14.7860242 35.0763245,14.8089439 C34.7774627,14.8195024 34.7071764,14.7204412 34.6840788,14.4163903 C34.5945858,13.2358967 34.4664313,12.0584934 34.2590493,10.8618615 C33.9894115,11.53898 33.7188629,12.2155835 33.4507152,12.8933029 C33.3469829,13.1552914 33.2499563,13.4201986 33.1476313,13.6828739 C32.711674,14.8022483 32.7114256,14.8020766 31.5322049,14.8020766 C31.2083414,14.8020766 30.8823255,14.7775259 30.5612768,14.808343 C30.1755712,14.8455124 30.0418699,14.7287679 30.0183584,14.2965554 C29.9258023,12.5895095 29.7830772,10.8852104 29.6604693,9.17988132 C29.6473062,8.99583694 29.6534324,8.80998989 29.6338119,8.62697561 C29.6103831,8.40833707 29.6834842,8.33494251 29.9013801,8.34077973 C30.4515009,8.35563033 31.002698,8.35769053 31.5525706,8.33811864 C31.8066444,8.32910528 31.8833054,8.40876628 31.8804078,8.67341591 C31.867907,9.82171893 31.8750267,10.9701936 31.8750267,12.2135233 C32.1988901,12.0426127 32.2241402,11.8546196 32.2881347,11.6934091 C32.6863411,10.6902642 33.098373,9.69269901 33.4746407,8.68079829 C33.5763034,8.40739281 33.7060309,8.32901944 33.9706188,8.33880538 C34.4880387,8.35820558 35.008025,8.36833489 35.524286,8.3355434 C35.8803537,8.31296706 35.9458383,8.46318985 35.9671974,8.79393751 C36.0412092,9.93906439 36.1504883,11.0817019 36.3206159,12.2355846 C36.7166698,11.0811868 37.1288673,9.93219706 37.4986776,8.76878593 C37.6045624,8.43554885 37.7464597,8.32060696 38.0767806,8.33665934 C38.6252457,8.36344191 39.1758633,8.34395587 39.8148148,8.34395587" id="Fill-1" fill="#F6E927"></path>
                <path d="M50.5989798,9.6050698 C50.0651218,9.58385924 50.0324639,9.6402776 49.9789521,10.5240793 C49.9658103,10.7415089 49.9775357,10.8495368 50.228962,10.8545174 C50.9094265,10.8680853 51.3442092,10.6421542 51.3741128,10.2076384 C51.4019704,9.80249111 51.1776147,9.62799781 50.5989798,9.6050698 M49.9887102,13.4670222 C50.6667351,13.4624709 51.069883,13.19867 51.0808214,12.7734285 C51.0917598,12.3465554 50.7973667,12.165364 50.1039178,12.1722338 C49.7158004,12.1760981 49.5973664,12.4582757 49.6006715,13.2398889 C49.6024815,13.6760363 49.8917595,13.3712741 49.9887102,13.4670222 M52.4155453,11.5242385 C52.4215261,11.5316235 52.4367926,11.5639975 52.461109,11.5784242 C53.2086205,12.0228153 53.4144832,12.3708573 53.3236707,13.0410078 C53.2028758,13.931851 52.70081,14.5238573 51.9393697,14.6953451 C51.1004161,14.8843509 50.2523341,14.7875724 49.408108,14.8064644 C48.7771419,14.8206334 48.1455462,14.8044893 47.5144227,14.8145364 C47.2925065,14.8180572 47.1865847,14.790492 47.2329353,14.4871897 C47.5174131,12.6229795 47.7878046,10.7561073 48.0493825,8.88786111 C48.1054911,8.48683566 48.2327388,8.3162925 48.6491859,8.33466926 C49.6330146,8.37820671 50.6195189,8.35192967 51.6049215,8.34677731 C51.9137943,8.34514573 52.2173946,8.36876071 52.5220179,8.43050318 C53.046118,8.53672769 53.5107256,8.74033183 53.6637062,9.35724122 C53.815585,9.96934174 53.5182015,10.8086614 53.0545382,11.146828 C52.8530036,11.2938421 52.6269953,11.4009253 52.4155453,11.5242385" id="Fill-3" fill="#F6E927"></path>
                <path d="M64.5747139,9.7955518 C64.2413625,10.5515654 63.8945838,11.1434485 63.664068,11.8452956 C64.0151885,11.8452956 64.3273134,11.8306166 64.6375087,11.8501886 C64.8688286,11.864696 64.9036431,11.7540452 64.8689894,11.5515431 C64.7763649,11.0103928 64.6871979,10.4685559 64.5747139,9.7955518 M60.1851852,14.7307148 C60.7205897,13.6002568 61.2544665,12.4682536 61.7925242,11.3384823 C62.2109421,10.4599716 62.6456015,9.58995935 63.0493056,8.70389454 C63.1787547,8.42001386 63.3385157,8.32627401 63.6288514,8.33374229 C64.4463905,8.35477367 65.2649748,8.35202672 66.0826747,8.33494409 C66.357171,8.32927849 66.4477853,8.41855454 66.5006102,8.71625584 C66.841037,10.6359485 67.2028511,12.5515207 67.5740724,14.464861 C67.629229,14.7496859 67.5666753,14.8100331 67.3120386,14.8033374 C66.7145629,14.7875424 66.1158812,14.7809325 65.5190487,14.8069428 C65.2367533,14.8191324 65.1653553,14.7231606 65.1192843,14.4312966 C64.9609705,13.4255676 64.9445683,13.428572 63.9904243,13.428572 C63.9746653,13.428572 63.9583435,13.4314907 63.9433081,13.428057 C63.2592382,13.2738841 62.8470917,13.564203 62.6985872,14.2915453 C62.6091789,14.729513 62.3516476,14.8415373 61.9465766,14.8097756 C61.3989509,14.7667686 60.8461794,14.7981869 60.2955787,14.7949249 C60.2708145,14.7947532 60.2460504,14.7671119 60.1851852,14.7307148" id="Fill-5" fill="#F6E927"></path>
                <path d="M57.6717861,11.4447153 C58.4134985,11.4398952 58.8515206,11.1144517 58.8631455,10.5806244 C58.8731748,10.1197013 58.5029264,9.86113685 57.8243531,9.85502563 C57.4509136,9.8515827 57.2804915,10.2896102 57.2662073,11.1826218 C57.2587613,11.6461271 57.5566011,11.3589862 57.6717861,11.4447153 M57.6157892,8.33755154 C58.1507612,8.33755154 58.6858092,8.33264536 59.2207812,8.33858442 C60.7274557,8.35528266 61.4104359,9.40210739 60.9879896,11.0412893 C60.6885542,12.2031081 59.8928203,12.9137301 58.801906,12.9689892 C58.3420777,12.9923151 57.8785265,13.0087551 57.4208257,12.9679563 C57.111209,12.9402407 57.0461705,13.1166912 57.0095484,13.3824858 C56.9547671,13.7797146 56.8903365,14.1756522 56.8489276,14.5746025 C56.8286411,14.7698169 56.7571443,14.8172434 56.5925726,14.814403 C56.0132285,14.8044184 55.4336565,14.8107879 54.8542365,14.8147473 C54.6841943,14.8158662 54.599629,14.806226 54.6392903,14.5398288 C54.9298361,12.5891473 55.2067056,10.6357975 55.4642003,8.67917688 C55.5035577,8.38024395 55.6056742,8.32911635 55.8324732,8.33359217 C56.4267093,8.34538422 57.0212492,8.33755154 57.6157892,8.33755154" id="Fill-7" fill="#F6E927"></path>
                <path d="M43.466658,14.8038316 C42.7045261,14.8040035 41.9415478,14.7826956 41.1806008,14.8131968 C40.8119338,14.8279749 40.6908221,14.7466956 40.7586988,14.3540462 C40.9952517,12.9856158 41.2070067,11.6126317 41.4249401,10.2409364 C41.5062736,9.72860192 41.5937009,9.21643933 41.6487978,8.7009259 C41.6779966,8.42873481 41.7720253,8.3323338 42.0511493,8.33439585 C43.6747737,8.34659633 45.2985674,8.34625266 46.9221073,8.33336482 C47.2182427,8.33113093 47.2642837,8.44772289 47.1923446,8.69327912 C47.1876051,8.70934595 47.1847275,8.72601422 47.1804111,8.74225289 C47.0785114,9.12459202 47.207071,9.67155177 46.9151672,9.86486931 C46.6328272,10.0517429 46.1482958,9.92887889 45.7524612,9.93291708 C45.2223119,9.93832997 44.6919934,9.94193856 44.1620134,9.93343259 C43.614768,9.92466886 43.8472584,10.3943016 43.7737959,10.6351323 C43.6735888,10.9636003 43.9993463,10.8278484 44.1347612,10.8306837 C44.8799662,10.846321 45.6257637,10.8415095 46.3712226,10.8364403 C46.5944032,10.8349797 46.7166998,10.8236384 46.6628724,11.1549417 C46.4636432,12.378341 46.483363,12.3816918 45.2702149,12.3816918 C44.7731577,12.3816918 44.2760158,12.3838398 43.7790432,12.3809185 C43.2219802,12.3776536 43.4801995,12.8533866 43.4085988,13.097654 C43.3342899,13.3510289 43.6241624,13.2519644 43.7514524,13.2538546 C44.5796837,13.2662269 45.4082535,13.2695778 46.2365694,13.2575491 C46.4848018,13.2539405 46.5630039,13.3173487 46.4960582,13.5728715 C46.4284354,13.8307141 46.3592891,14.0985234 46.3599662,14.361693 C46.3608972,14.7446335 46.2018693,14.824624 45.852245,14.8124235 C45.0578675,14.7846717 44.2618819,14.8036598 43.466658,14.8038316" id="Fill-9" fill="#F6E927"></path>
                <path d="M17.5856645,20.4684369 C17.6312239,21.5702761 17.3725118,22.6550563 17.3498225,23.753194 C17.3477434,23.8555485 17.4096643,23.9956421 17.2728958,24.0497966 C17.1473364,24.099445 17.0268391,24.0732931 16.8991102,23.9681223 C16.5126691,23.6499544 16.0612336,23.389884 15.7023632,23.0507946 C15.2024757,22.5786123 14.5992661,22.2192452 14.0774125,21.7745827 C13.9011411,21.5117764 13.6246211,21.3285522 13.3634683,21.1522483 C13.011016,20.9142259 12.9448464,20.6580984 12.9667221,20.2700849 C13.0215922,19.2989246 13.1974116,18.3299369 13.0958974,17.353144 C13.054677,16.8667994 13.2539089,16.4076528 13.2980219,15.9309643 C13.325231,15.6373389 13.4965306,15.7491885 13.6477623,15.8359323 C13.9779774,16.025272 14.1844408,16.3622692 14.5893226,16.463658 C14.8761477,16.5957854 14.8712664,16.9112978 15.1398316,17.0914642 C15.8114707,17.5422422 16.4097989,18.0783961 17.0559465,18.5607173 C17.4059581,18.8219947 17.6582521,19.0817433 17.5774385,19.5354181 C17.5234724,19.8384581 17.5790656,20.1568674 17.5856645,20.4684369" id="Fill-11" fill="#F6E927"></path>
                <path d="M3.29892152,10.9310335 C2.58749618,9.85596304 1.67553378,8.97591809 0.925925926,7.88759259 C1.17419112,7.7113892 1.42001075,7.62708727 1.70211953,7.62478973 C2.50229554,7.61825059 3.30239266,7.59607052 4.10248978,7.5780437 C4.26681657,7.57433229 4.44928794,7.62152016 4.55066092,7.40740741 C4.88657233,7.60667454 5.24465169,7.4883514 5.58379757,7.45706955 C5.88381427,7.42932237 6.06439229,7.53182786 6.25057146,7.77271575 C6.8607816,8.5625382 7.49126634,9.33283159 8.10573651,10.1186775 C8.17792038,10.2110208 8.22809409,10.307429 8.34942611,10.3061035 C8.5370253,10.7004845 8.8190552,11.0125077 9.09753506,11.3188754 C9.19196577,11.4227064 9.29128763,11.4925162 9.24939732,11.6401771 C9.206797,11.7900472 9.06834596,11.7303112 8.97060189,11.7435662 C8.51107066,11.8058648 8.0367871,11.666422 7.58727483,11.8707261 C6.68406916,11.8413883 5.78583353,11.9431868 4.8883079,12.0256331 C4.48068595,12.0630122 4.15731797,12.0282841 3.89572045,11.615346 C3.73439146,11.3606729 3.56588353,11.0837313 3.29892152,10.9310335" id="Fill-13" fill="#F6E927"></path>
                <path d="M7.41519823,4.59257205 C7.73290926,3.70809283 7.55399106,2.79352929 7.61876105,1.8937704 C7.64269392,1.56141775 7.57658938,1.2138646 7.90132902,0.925925926 C8.89672272,1.73107752 9.86017628,2.56457172 10.931995,3.28635807 C10.9652697,3.33932232 10.9833306,3.41738323 11.0339544,3.44152986 C12.1488345,3.97386411 12.1004349,4.86998121 11.9713398,5.79262003 C11.9563929,5.89941939 11.9344173,6.00574373 11.926499,6.11285977 C11.8862847,6.65817779 11.749983,7.20262494 11.9033669,7.75015969 C11.658789,8.11908855 11.8388638,8.52213936 11.7861047,8.90642706 C11.7682218,9.03713554 11.8120839,9.19468241 11.6062079,9.24630078 C11.4391227,9.28818133 11.3453485,9.22437089 11.217321,9.11495894 C10.9358207,8.87420516 10.7699811,8.50931394 10.3366094,8.42175271 C10.1414097,8.21068741 9.96453781,7.98964677 9.72556503,7.80803244 C9.04040889,7.28709856 8.38221058,6.73805959 7.69198317,6.22274674 C7.44740529,6.04018237 7.38503748,5.8493844 7.41395266,5.58266309 C7.44962953,5.25466476 7.58495254,4.92215377 7.41519823,4.59257205" id="Fill-15" fill="#F6E927"></path>
                <g id="Group-19" transform="translate(68.518519, 8.333333)" fill="#F6E927">
                    <path d="M6.47730283,0.0946380471 C5.81436166,1.14438552 5.22340305,2.1448064 4.57113725,3.09388047 C3.96645316,3.97376263 3.47538562,4.88041246 3.47134423,6.02468855 C3.47020044,6.34994108 3.32676906,6.45288721 3.02404575,6.43638889 C2.4304183,6.40389731 1.83435076,6.4268771 1.19664924,6.4268771 C1.2544488,5.97611953 1.26649673,5.5501936 1.37088671,5.15381313 C1.49769499,4.67224747 1.38728105,4.25212963 1.23866449,3.81930135 C0.855265795,2.70255051 0.485745098,1.57982323 0.0870958606,0.469806397 C-0.0286557734,0.147415825 0.0268562092,0.0785606061 0.32591939,0.0888299663 C0.907270153,0.108779461 1.48976471,0.104402357 2.07134423,0.0898400673 C2.30833769,0.0839478114 2.4025098,0.160968013 2.44749891,0.435631313 C2.5675207,1.16820707 2.72978649,1.89236532 2.89319608,2.70953704 C3.26721569,1.9471633 3.61736819,1.28201178 3.92245534,0.59253367 C4.08494989,0.225193603 4.27367538,0.0538973064 4.66523312,0.083526936 C5.23834858,0.126877104 5.81611547,0.0946380471 6.47730283,0.0946380471" id="Fill-17"></path>
                </g>
                <path d="M14.0848533,3.34595573 C15.1980985,2.6171175 16.0858388,1.65468535 17.3130488,0.925925926 C17.3186168,2.20367834 17.6029452,3.4057728 17.5669326,4.62875201 C17.563969,4.73648577 17.5435829,4.84642623 17.5609156,4.95155925 C17.6843999,5.70317368 17.4565601,6.27194807 16.7060446,6.75355819 C16.0097724,7.20049176 15.3196969,7.69218961 14.7956742,8.31944129 C14.3907353,8.51993485 14.0818897,8.82327594 13.7527477,9.09997912 C13.663839,9.17469134 13.6047461,9.25996416 13.4772204,9.25925486 C13.2931165,9.25830914 13.3248183,9.12117911 13.3102696,9.02424236 C13.2425553,8.57210731 13.1806784,8.11934178 13.1167359,7.66673387 C13.1796007,6.91243988 13.1359546,6.15680613 13.0064532,5.41520061 C12.8661749,4.61228064 13.041388,3.97580815 13.8843147,3.55038981 C13.9681045,3.50806865 14.0188453,3.41530885 14.0848533,3.34595573" id="Fill-20" fill="#F6E927"></path>
                <path d="M19.550672,7.40740741 C19.630161,7.62958758 19.8099978,7.55678625 19.9560095,7.56346044 C20.9250988,7.60842338 21.9003893,7.55178061 22.8580425,7.77914206 C22.9564574,7.80250172 23.0995698,7.72416784 23.1399183,7.88294324 C23.17624,8.02564789 23.0858787,8.11618851 22.9952757,8.22481969 C22.3106395,9.04486651 21.6390501,9.87791044 20.9668164,10.7102518 C20.9181727,10.7704073 20.8968307,10.8567327 20.862764,10.9309391 C20.5186338,11.0681112 20.3603001,11.4215797 20.1393899,11.6948701 C19.9352313,11.9473475 19.7093279,12.0838171 19.4098952,12.0224321 C18.746601,11.8864017 18.0709042,11.9525288 17.4048718,11.8607587 C17.0360976,11.8099998 16.6619276,11.7644221 16.30016,11.9214411 C15.9229296,11.8538211 15.545538,11.787167 15.1684687,11.7177906 C15.0535438,11.6967142 14.8987537,11.7778583 14.8339223,11.6254936 C14.7642587,11.4618882 14.9017335,11.3800416 14.9794507,11.2557788 C15.2161459,10.8770187 15.6325974,10.6550141 15.7564617,10.1843961 C15.9356542,10.1313539 16.0384987,9.97617906 16.1528597,9.83505513 C16.7151618,9.14067623 17.2836652,8.45218114 17.8384775,7.7509524 C18.01767,7.52446914 18.1993591,7.43796816 18.4885638,7.45763945 C18.8380093,7.48135037 19.205656,7.60833557 19.550672,7.40740741" id="Fill-22" fill="#F6E927"></path>
                <path d="M20.8850551,14.0477518 C20.9296892,14.1505543 20.9581216,14.2482255 21.0380183,14.3455429 C21.6969672,15.148234 22.3320107,15.9752545 22.9861944,16.7828115 C23.0730006,16.8900375 23.1724346,16.9739958 23.1428109,17.1238645 C23.1023066,17.3282309 22.9426721,17.2210934 22.8341842,17.2466613 C21.7387422,17.5057909 20.6210625,17.3873291 19.5163284,17.48907 C18.5010213,17.8186219 17.8211849,17.3331853 17.2377645,16.432646 C16.8555948,15.842726 16.4266466,15.270323 15.8949287,14.8200092 C15.6303008,14.2521182 15.1023157,13.9161965 14.8148148,13.3540561 C15.0169391,13.2307285 15.208977,13.3204374 15.3824306,13.2771754 C15.7433157,13.1870242 16.142799,13.3848438 16.4741398,13.0927148 C16.6988194,13.1733997 16.9252462,13.1676492 17.1598533,13.1472125 C17.9482571,13.0789134 18.7393611,13.046091 19.5268118,12.9672639 C19.8305939,12.9368301 20.0185019,13.0697125 20.1992622,13.3086708 C20.4042456,13.5796554 20.5607032,13.9123922 20.8850551,14.0477518" id="Fill-24" fill="#F6E927"></path>
                <path d="M10.9390433,21.8040585 C10.0050165,22.4464761 9.14191173,23.1633034 8.29421319,23.8954953 C8.1762756,23.9974165 8.07471823,24.1072212 7.90409832,24.0646668 C7.69071274,24.011494 7.78102531,23.8335542 7.75853571,23.7061325 C7.62625436,22.9588174 7.61545227,22.204021 7.61244185,21.4502704 C7.61111373,21.1195693 7.38958231,20.8279636 7.4411136,20.4938035 C7.52761887,20.4206808 7.54054597,20.3173116 7.51008761,20.2326856 C7.15441547,19.243398 7.77606697,18.6666219 8.55629671,18.1488909 C8.73568226,18.0297549 8.89824488,17.8883362 9.06045333,17.7494916 C9.45738592,17.409781 9.93382897,17.1434343 10.2289386,16.7094445 C10.6475639,16.5780811 10.8612151,16.2187424 11.1961684,15.9981677 C11.3350019,15.9067845 11.4262884,15.6780047 11.6495907,15.7570802 C11.8855544,15.8407409 11.7634553,16.0564889 11.780721,16.2130309 C11.8271168,16.6307713 11.7248511,17.0568777 11.8618252,17.4706763 C11.9156586,18.4662385 11.9530232,19.4628464 12.0334191,20.4567193 C12.056617,20.743418 11.9695805,20.9138767 11.7340595,21.0910925 C11.4486895,21.3057144 11.1132048,21.4838955 10.9390433,21.8040585" id="Fill-26" fill="#F6E927"></path>
                <path d="M4.63580868,17.5331774 C4.40678221,17.5153917 4.17626141,17.4691487 3.94896522,17.4846542 C2.94933389,17.5531522 1.97345462,17.2808933 0.925925926,17.245413 C1.641555,16.0171011 2.60445715,15.1086592 3.35217509,13.98843 C3.55218001,13.7432602 3.75218492,13.4981816 3.95211119,13.2528293 C4.06630983,13.1127322 4.15872264,12.9543022 4.36423299,12.9633319 C5.20727377,13.0004539 6.05298861,12.9163592 6.8942991,13.0359342 C7.15321227,13.0728739 7.4104738,13.0936696 7.66278044,12.9897825 C8.08465474,13.1905335 8.530753,13.1732038 8.97362665,13.1926313 C9.07099436,13.1969182 9.21264157,13.1291499 9.25306726,13.2887656 C9.28885264,13.4301396 9.16120499,13.5126838 9.08357823,13.5775334 C8.74113961,13.8635649 8.48332754,14.2202834 8.33098404,14.6776966 C7.60953493,15.2607959 7.12308963,16.1079453 6.56900601,16.867534 C6.09915569,17.5117433 5.56945333,17.68048 4.90510354,17.5531522 C4.81678049,17.5361873 4.72562607,17.5392884 4.63580868,17.5331774" id="Fill-28" fill="#F6E927"></path>
                <g id="Group-32" transform="translate(0.000000, 10.185185)">
                    <mask id="mask-2" fill="white">
                        <use xlink:href="#path-1"></use>
                    </mask>
                    <g id="Clip-31"></g>
                    <path d="M7.75749521,2.69899225 C7.50150862,2.79718346 7.24041347,2.77745909 6.97764208,2.7426615 C6.1237947,2.62965547 5.26547733,2.70906977 4.4099537,2.67409991 C4.20130109,2.66548665 4.10751117,2.81518519 3.99161079,2.94748493 C3.7887053,3.17909561 3.58571999,3.41062016 3.38273467,3.64205857 C2.28399585,3.06910422 1.18525702,2.49606374 -7.98212005e-06,1.87780362 C1.16857439,1.24696813 2.25286558,0.661696813 3.33707695,0.0763393626 C3.60711207,0.225176572 3.77761015,0.495116279 3.94084451,0.74335056 C4.20553161,1.14584841 4.53279853,1.17969854 4.94515485,1.14326443 C5.85328065,1.06290267 6.76212484,0.963763997 7.67519955,0.991498708 C8.1779933,1.27289406 8.68158525,1.55515073 9.23634259,1.86608958 C8.70241858,2.16677864 8.2299569,2.43292851 7.75749521,2.69899225" id="Fill-30" fill="#0B0C0C" mask="url(#mask-2)"></path>
                </g>
                <path d="M16.4256273,15.3495426 C16.9576898,15.7534251 17.3869007,16.2668082 17.7694547,16.7959023 C18.3533405,17.6035086 19.0337192,18.0389718 20.0497567,17.7433996 C20.4556789,18.9003762 20.8615216,20.0571942 21.2962963,21.2962963 C20.0585793,20.8874942 18.8952589,20.5032107 17.732018,20.1189271 C17.7262952,19.8116908 17.6774128,19.4977098 17.7248645,19.1989637 C17.7958432,18.751519 17.5740048,18.4953828 17.2663242,18.2377391 C16.6980967,17.7621258 16.172075,17.2334285 15.5814331,16.788999 C15.3452877,16.6112589 15.3495798,16.3001345 15.0973786,16.169924 C15.2131066,15.6894704 14.8398521,15.3076467 14.8148148,14.8148148 C15.3685763,14.9985853 15.8971415,15.1741036 16.4256273,15.3495426" id="Fill-33" fill="#0B0C0C"></path>
                <g id="Group-37" transform="translate(10.185185, 0.000000)">
                    <mask id="mask-4" fill="white">
                        <use xlink:href="#path-3"></use>
                    </mask>
                    <g id="Clip-36"></g>
                    <path d="M3.63593454,3.37375479 C3.57262705,3.44399745 3.5239621,3.537947 3.44360034,3.58081098 C2.63515935,4.01168582 2.46711456,4.65632184 2.60165375,5.46954023 C2.72585702,6.22065773 2.76771748,6.9859834 2.70742463,7.74995211 C2.42353144,8.24524266 2.13972438,8.74053321 1.85290267,9.24093231 C1.52163652,8.78762771 1.39476314,8.24420498 1.0038932,7.83751596 C0.855400517,7.28555236 0.987355728,6.73654215 1.02628768,6.18673372 C1.03395349,6.07873563 1.05531438,5.97153576 1.06978467,5.86393678 C1.194677,4.93370051 1.24153316,4.03012452 0.162204996,3.49348659 C0.113195521,3.46914112 0.0957105943,3.39043742 0.0634969854,3.33703704 C0.648854436,2.25713602 1.23412575,1.17723499 1.85583118,0.0302043423 C2.46470284,1.1738825 3.05031869,2.27381865 3.63593454,3.37375479" id="Fill-35" fill="#0B0C0C" mask="url(#mask-4)"></path>
                </g>
                <path d="M4.93611929,17.7373598 C5.02667511,17.742693 5.11857896,17.7399866 5.20762817,17.754792 C5.87743993,17.8659117 6.41149726,17.7186542 6.88521047,17.1564487 C7.4438495,16.4935509 7.93429413,15.7542384 8.66175395,15.2453641 C9.18867465,15.2208477 9.6332863,14.8773794 10.1851852,14.8148148 C10.013034,15.366752 9.85444233,15.8750692 9.6958507,16.3833067 C9.43155774,16.8128212 9.00486695,17.0762928 8.6493838,17.412438 C8.50411387,17.549905 8.35852675,17.6897598 8.19787342,17.8076455 C7.49911868,18.3199426 6.94238275,18.8906651 7.26091405,19.8695696 C7.28819181,19.9533074 7.27661462,20.0555917 7.19914261,20.1279469 C6.06497454,20.5070754 4.93072717,20.8862039 3.7037037,21.2962963 C4.12912576,20.0677703 4.53266217,18.9026049 4.93611929,17.7373598" id="Fill-38" fill="#0B0C0C"></path>
                <path d="M20.1571822,7.14956565 C19.8169253,7.33083924 19.4543499,7.2162756 19.1097246,7.19488405 C18.8245092,7.17713698 18.6453263,7.25517653 18.4686055,7.45950545 C17.9214464,8.09214077 17.3607849,8.71328802 16.8062392,9.33974355 C16.6934556,9.4670629 16.5920298,9.60705871 16.4153885,9.65491241 C15.9042883,9.8243018 15.3931086,9.99361196 14.8148148,10.1851852 C14.9929652,9.61141625 15.1493531,9.10800175 15.3056616,8.60450803 C15.7691068,7.97401187 16.3794089,7.47962936 16.9952708,7.03040679 C17.6589466,6.54624468 17.8604479,5.97437722 17.7512385,5.21878011 C17.7359889,5.11309 17.7540183,5.00256699 17.7565599,4.89434158 C18.9179925,4.50366848 20.0794251,4.11307461 21.2962963,3.7037037 C20.9097346,4.87326694 20.5334187,6.01137668 20.1571822,7.14956565" id="Fill-40" fill="#0B0C0C"></path>
                <path d="M7.21197066,4.88449081 C7.36434082,5.21566488 7.24287593,5.54978237 7.21085264,5.8793654 C7.18489861,6.14737536 7.24087947,6.33909516 7.46041068,6.52254157 C8.07995349,7.04034412 8.67074721,7.59203573 9.28573808,8.11548646 C9.50023821,8.29797825 9.65899705,8.52008683 9.83420676,8.73217188 C9.77311495,9.25283829 10.1829491,9.66992829 10.1851852,10.1851852 C9.65460483,10.1034855 9.22408726,9.77143636 8.69869771,9.77772096 C8.57587523,9.77891423 8.52500532,9.69204369 8.45193472,9.60899162 C7.8299163,8.90153762 7.19176644,8.20808473 6.57398053,7.49697135 C6.38559415,7.28011319 6.20279788,7.18791267 5.89909573,7.21281238 C5.55578372,7.24105327 5.19330566,7.34749355 4.85326786,7.16810428 C4.52888234,6.18754901 4.20465653,5.20723239 3.88003143,4.22699533 C3.82796364,4.06956235 3.77421882,3.91268624 3.7037037,3.7037037 C4.91284235,4.11069062 6.06240651,4.49763049 7.21197066,4.88449081" id="Fill-42" fill="#0B0C0C"></path>
                <path d="M20.7545975,14.8148148 C20.4271795,14.676718 20.2692428,14.3372524 20.0623217,14.0607879 C19.8798527,13.8169973 19.6901683,13.6814277 19.3835146,13.7124769 C18.58862,13.792898 17.7900375,13.8263843 16.9941809,13.8960645 C16.757356,13.9169144 16.5287887,13.9227813 16.3021456,13.840555 C15.8157486,13.5538912 15.3291112,13.2672274 14.8148148,12.9642266 C15.318208,12.6650167 15.769009,12.3971269 16.21981,12.1293273 C16.5799378,11.9678532 16.9524118,12.0146978 17.3195144,12.0668678 C17.9825279,12.1611888 18.6551618,12.0932235 19.3154494,12.2330353 C19.6135249,12.2961266 19.8384043,12.1558635 20.0416376,11.8963678 C20.2615464,11.6154806 20.4191624,11.2520963 20.7617327,11.1111111 C21.8393901,11.7161198 22.9171276,12.3210382 24.0740741,12.9704545 C22.9146424,13.6146357 21.83466,14.2147704 20.7545975,14.8148148" id="Fill-44" fill="#0B0C0C"></path>
                <path d="M11.1111111,21.6728931 C11.2868059,21.354042 11.625244,21.1765909 11.9131262,20.9628486 C12.1507206,20.7863589 12.2385233,20.6165987 12.2151212,20.3310748 C12.1340175,19.3412745 12.096324,18.3487503 12.042106,17.3571074 C12.3424039,16.8284395 12.6427018,16.300012 12.9604173,15.7407407 C13.2712551,16.2718121 13.5580655,16.7618653 13.8448759,17.2519987 C13.9452729,18.2244946 13.7715432,19.1892194 13.7173252,20.1561072 C13.6957095,20.5424939 13.7610033,20.7974145 14.1092666,21.0343898 C14.3674049,21.2099982 14.6406385,21.3923362 14.8148148,21.6540664 C14.2093957,22.7504976 13.6037979,23.847089 12.9672057,25 C12.3332038,23.8635122 11.7221575,22.7682026 11.1111111,21.6728931" id="Fill-46" fill="#0B0C0C"></path>
            </g>
        </g>
    </g>
</svg>