<?xml version="1.0" encoding="UTF-8"?>
<svg width="78px" height="15px" viewBox="0 0 78 15" version="1.1" xmlns="http://www.w3.org/2000/svg" xmlns:xlink="http://www.w3.org/1999/xlink">
    <!-- Generator: Sketch 50.2 (55047) - http://www.bohemiancoding.com/sketch -->
    <title>mc_hrz_rev copy</title>
    <desc>Created with Sketch.</desc>
    <defs></defs>
    <g id="Symbols" stroke="none" stroke-width="1" fill="none" fill-rule="evenodd">
        <g id="m-footer" transform="translate(-30.000000, -291.000000)">
            <g id="mc_hrz_rev-copy" transform="translate(24.000000, 289.000000)">
                <rect id="Rectangle-path" x="0" y="0" width="89" height="20"></rect>
                <path d="M40.4065678,12.5736649 L40.4065678,9.7980264 C40.4065678,8.75068547 39.7376887,8.04567329 38.6611826,8.03642117 C38.0367687,7.99610348 37.4398025,8.29809488 37.1029353,8.8247025 C36.795912,8.31361872 36.2335817,8.01116718 35.6373305,8.03642117 C35.1187542,8.01140867 34.6255423,8.26191389 34.3403351,8.6951727 L34.3403351,8.140045 L33.375,8.140045 L33.375,12.5736649 L34.3495994,12.5736649 L34.3495994,10.11815 C34.3495994,9.34837296 34.775755,8.94127932 35.4353698,8.94127932 C36.0949846,8.94127932 36.4007049,9.35762509 36.4007049,10.1088979 L36.4007049,12.5736649 L37.3697457,12.5736649 L37.3697457,10.11815 C37.3697457,9.34837296 37.8144299,8.94127932 38.4555161,8.94127932 C39.0966024,8.94127932 39.4301155,9.35762509 39.4301155,10.1088979 L39.4301155,12.5736649 L40.4065678,12.5736649 Z M54.8273034,8.14374586 L53.2505276,8.14374586 L53.2505276,6.80033682 L52.2759282,6.80033682 L52.2759282,8.14374586 L51.3754429,8.14374586 L51.3754429,9.02454847 L52.2759282,9.02454847 L52.2759282,11.0433629 C52.2759282,12.0721995 52.6742911,12.6846904 53.815647,12.6846904 C54.2419406,12.6860658 54.6599911,12.5674204 55.0218527,12.3423617 L54.7439251,11.5170718 C54.4849364,11.6711361 54.1910533,11.7570847 53.8897611,11.7668793 C53.4080199,11.7668793 53.2486748,11.4708112 53.2486748,11.026709 L53.2486748,9.02454847 L54.8254506,9.02454847 L54.8273034,8.14374586 Z M63.0595183,8.03272032 C62.5800381,8.01876196 62.1313668,8.26801319 61.8903696,8.68221972 L61.8903696,8.14374586 L60.9342988,8.14374586 L60.9342988,12.5736649 L61.8996339,12.5736649 L61.8996339,10.0903937 C61.8996339,9.35022339 62.2146185,8.95053145 62.8464405,8.95053145 C63.0531323,8.9475454 63.2583867,8.98527286 63.4504698,9.06155699 L63.7469259,8.15299798 C63.5262961,8.07419513 63.2938323,8.03352027 63.0595183,8.03272032 Z M50.6139213,8.49532673 C50.0673746,8.17104576 49.4390216,8.01046986 48.8036864,8.03272032 C47.6808589,8.03272032 46.9508358,8.57119418 46.9508358,9.45014638 C46.9508358,10.1736628 47.4881625,10.617765 48.4812904,10.7565469 L48.9352387,10.8213118 C49.4633011,10.8953288 49.7152888,11.0341107 49.7152888,11.2839182 C49.7152888,11.626247 49.3632472,11.8223921 48.7036324,11.8223921 C48.1714764,11.8392747 47.6491929,11.6762747 47.221352,11.3597857 L46.7822264,12.1092081 C47.3443786,12.5017469 48.0179565,12.7034909 48.7036324,12.6846904 C49.9839521,12.6846904 50.7269452,12.0814517 50.7269452,11.239508 C50.7269452,10.4604788 50.1414444,10.0533851 49.1779622,9.91460322 L48.7240138,9.84983832 C48.3071224,9.79432555 47.9717565,9.7110564 47.9717565,9.41498829 C47.9717565,9.0911638 48.2867411,8.8968691 48.8166563,8.8968691 C49.3021786,8.90403526 49.7778731,9.03458454 50.1988828,9.27620636 L50.6139213,8.49532673 Z M76.4648919,8.03272032 C75.9854117,8.01876196 75.5367404,8.26801319 75.2957432,8.68221972 L75.2957432,8.14374586 L74.3396723,8.14374586 L74.3396723,12.5736649 L75.3050075,12.5736649 L75.3050075,10.0903937 C75.3050075,9.35022339 75.6199921,8.95053145 76.2518141,8.95053145 C76.4585058,8.9475454 76.6637603,8.98527286 76.8558434,9.06155699 L77.1522994,8.15299798 C76.9316697,8.07419513 76.6992059,8.03352027 76.4648919,8.03272032 Z M64.0341177,10.3587054 C64.0341177,11.7021144 64.9716601,12.6846904 66.4002078,12.6846904 C66.979476,12.7133122 67.5485193,12.5245394 67.9955121,12.1554687 L67.5322995,11.3764395 C67.1986032,11.6302322 66.7918341,11.7697545 66.3724151,11.774281 C65.6016292,11.774281 65.0365098,11.2080508 65.0365098,10.356855 C65.0365098,9.50565915 65.6034821,8.94868102 66.3724151,8.93942889 C66.7918341,8.94395546 67.1986032,9.08347767 67.5322995,9.33727041 L67.9955121,8.5582412 C67.5485193,8.18917048 66.979476,8.00039766 66.4002078,8.02901946 C64.9716601,8.02901946 64.0341177,9.01159549 64.0341177,10.3550045 L64.0341177,10.3587054 Z M73.0723226,10.3587054 L73.0723226,8.13819458 L72.1069875,8.13819458 L72.1069875,8.67666845 C71.7730278,8.24628877 71.2509462,8.00421094 70.7062325,8.02716904 C69.4629697,8.02716904 68.4828118,9.00049294 68.4828118,10.3531541 C68.4828118,11.7058153 69.4574112,12.6791392 70.7062325,12.6791392 C71.2509462,12.7020973 71.7730278,12.4600194 72.1069875,12.0296398 L72.1069875,12.5662632 L73.0723226,12.5662632 L73.0723226,10.3587054 Z M69.4814983,10.3587054 C69.4814983,9.57967617 69.9910321,8.94127932 70.8266677,8.94127932 C71.6252463,8.94127932 72.162573,9.55377021 72.162573,10.3587054 C72.162573,11.1636405 71.6252463,11.7761314 70.8266677,11.7761314 C69.9910321,11.7761314 69.4814983,11.1358842 69.4814983,10.3587054 Z M57.8344798,8.03272032 C56.5374845,8.03272032 55.625882,8.97828783 55.625882,10.3587054 C55.625882,11.7668793 56.5726886,12.6846904 57.8993296,12.6846904 C58.5617386,12.7078686 59.2094824,12.4865273 59.7188288,12.0629474 L59.2463519,11.3486831 C58.8778423,11.6431418 58.4212723,11.8059891 57.9493566,11.8112895 C57.3267988,11.8112895 56.7616794,11.5244735 56.6227156,10.7269401 L59.9170838,10.7269401 C59.9263481,10.6066624 59.9356123,10.4863847 59.9356123,10.356855 C59.9356123,8.97643741 59.072184,8.03086989 57.8289213,8.03086989 L57.8344798,8.03272032 Z M57.8159513,8.89501868 C58.4385091,8.89501868 58.836872,9.28360807 58.9387787,9.97011599 L56.6393912,9.97011599 C56.741298,9.32986871 57.1303966,8.89501868 57.8178042,8.89501868 L57.8159513,8.89501868 Z M82.0234435,10.3587054 L82.0234435,6.36363636 L81.0581084,6.36363636 L81.0581084,8.6803693 C80.7241487,8.24998962 80.2020671,8.00791179 79.6573534,8.03086989 C78.4140907,8.03086989 77.4339327,9.00419379 77.4339327,10.356855 C77.4339327,11.7095161 78.4085321,12.68284 79.6573534,12.68284 C80.2020671,12.7057981 80.7241487,12.4637203 81.0581084,12.0333406 L81.0581084,12.5699641 L82.0234435,12.5699641 L82.0234435,10.3587054 Z M83.1518295,12.1647208 C83.1900056,12.1645713 83.2278186,12.172124 83.2630005,12.1869259 C83.2968602,12.2013597 83.3276687,12.2220812 83.3537902,12.24799 C83.3796788,12.2734132 83.4004363,12.3035664 83.4149342,12.3368104 C83.4450219,12.4064925 83.4450219,12.4854786 83.4149342,12.5551606 C83.4003961,12.5883824 83.3796436,12.6185284 83.3537902,12.6439811 C83.3275846,12.6697874 83.2967966,12.6904949 83.2630005,12.7050451 C83.2278648,12.7199967 83.1900205,12.7275556 83.1518295,12.7272502 C83.0363332,12.7286902 82.9312121,12.6608883 82.885019,12.5551606 C82.8551495,12.4854337 82.8551495,12.4065373 82.885019,12.3368104 C82.9139965,12.2688662 82.968569,12.2150297 83.0369527,12.1869259 C83.074492,12.1713294 83.1148882,12.163765 83.1555352,12.1647208 L83.1518295,12.1647208 Z M83.1518295,12.6643358 C83.1810931,12.6647947 83.210128,12.6591214 83.2370606,12.6476819 C83.2625883,12.6366429 83.2858359,12.6209556 83.305616,12.6014213 C83.3913631,12.5154896 83.3913631,12.3764814 83.305616,12.2905498 C83.2859207,12.2709125 83.2626523,12.2552112 83.2370606,12.2442891 C83.2100963,12.2329532 83.1810834,12.2272842 83.1518295,12.2276353 C83.1219718,12.2272402 83.0923448,12.2329061 83.0647455,12.2442891 C82.9976598,12.2728956 82.9490827,12.3327863 82.9349911,12.4042635 C82.9208994,12.4757406 82.9431172,12.549552 82.9943372,12.6014213 C83.0146099,12.6212193 83.038516,12.6369264 83.0647455,12.6476819 C83.093477,12.6596229 83.12443,12.6653007 83.1555352,12.6643358 L83.1518295,12.6643358 Z M83.1685051,12.3127549 C83.1962498,12.3108135 83.223795,12.3186732 83.2463248,12.33496 C83.2648225,12.3497137 83.2751501,12.3724046 83.2741176,12.396024 C83.2747943,12.4162753 83.2666905,12.4358338 83.2518834,12.4496864 C83.2348948,12.4647792 83.2134123,12.473881 83.1907393,12.4755923 L83.2759704,12.5736649 L83.2092678,12.5736649 L83.1295952,12.4755923 L83.1036553,12.4755923 L83.1036553,12.5736649 L83.0480698,12.5736649 L83.0480698,12.3146053 L83.1685051,12.3127549 Z M83.1036553,12.360866 L83.1036553,12.4311821 L83.1685051,12.4311821 C83.1800014,12.4345232 83.192213,12.4345232 83.2037093,12.4311821 C83.2122556,12.4253923 83.2171691,12.4155781 83.2166792,12.4052762 C83.2171691,12.3949742 83.2122556,12.38516 83.2037093,12.3793702 C83.192213,12.3760291 83.1800014,12.3760291 83.1685051,12.3793702 L83.1036553,12.360866 Z M78.4363249,10.3587054 C78.4363249,9.57967617 78.9458588,8.94127932 79.7814943,8.94127932 C80.5800729,8.94127932 81.1173996,9.55377021 81.1173996,10.3587054 C81.1173996,11.1636405 80.5800729,11.7761314 79.7814943,11.7761314 C78.9458588,11.7761314 78.4363249,11.1358842 78.4363249,10.3587054 Z M45.8446841,10.3587054 L45.8446841,8.13819458 L44.8793489,8.13819458 L44.8793489,8.67666845 C44.5453762,8.25000667 44.0259552,8.0102697 43.4841525,8.03272032 C42.2408898,8.03272032 41.2607319,9.00604422 41.2607319,10.3587054 C41.2607319,11.7113665 42.2353312,12.6846904 43.4841525,12.6846904 C44.0288662,12.7076485 44.5509478,12.4655707 44.8849075,12.035191 L44.8849075,12.5718145 L45.8502426,12.5718145 L45.8446841,10.3587054 Z M42.2538597,10.3587054 C42.2538597,9.57967617 42.7633936,8.94127932 43.5990292,8.94127932 C44.3976078,8.94127932 44.9349344,9.55377021 44.9349344,10.3587054 C44.9349344,11.1636405 44.3976078,11.7761314 43.5990292,11.7761314 C42.7633936,11.7761314 42.2538597,11.1377346 42.2538597,10.3587054 Z" id="Shape" fill="#FFFFFF" fill-rule="nonzero"></path>
                <g id="_Group_" transform="translate(6.489583, 2.727273)" fill-rule="nonzero">
                    <rect id="Rectangle-path" fill="#FF5F00" x="7.85333863" y="1.5995086" width="5.69213453" height="10.4318182"></rect>
                    <path d="M8.214744,6.81818182 C8.2131714,4.78286268 9.12939028,2.85983637 10.6994059,1.6031941 C8.0321964,-0.534388492 4.2019766,-0.223031102 1.90052202,2.31845267 C-0.400932548,4.85993644 -0.400932548,8.77826995 1.90052202,11.3197537 C4.2019766,13.8612375 8.0321964,14.1725949 10.6994059,12.0350123 C9.12889065,10.777971 8.2126158,8.85414762 8.214744,6.81818182 Z" id="_Path_" fill="#EB001B"></path>
                    <path d="M21.2253372,6.81818182 C21.2252792,9.35811678 19.8031025,11.6750584 17.562811,12.7849927 C15.3225196,13.894927 12.657426,13.6029904 10.6994059,12.0331695 C12.2687365,10.7754604 13.1850243,8.85268977 13.1850243,6.81726044 C13.1850243,4.78183111 12.2687365,2.85906047 10.6994059,1.60135135 C12.6576823,0.0313248325 15.3231903,-0.260466287 17.5636238,0.849930657 C19.8040574,1.9603276 21.2259712,4.27791441 21.2253372,6.81818182 Z" id="Shape" fill="#F79E1B"></path>
                    <path d="M20.6001059,10.9754098 L20.6001059,10.7204423 L20.6850362,10.7204423 L20.6850362,10.6698884 L20.4736141,10.6698884 L20.4736141,10.7226403 L20.5585443,10.7226403 L20.5585443,10.9776078 L20.6001059,10.9754098 Z M21.0175291,10.9754098 L21.0175291,10.6676904 L20.9615113,10.6676904 L20.8856162,10.88749 L20.809721,10.6676904 L20.7428611,10.6676904 L20.7428611,10.9754098 L20.7808086,10.9754098 L20.7808086,10.7446203 L20.8512827,10.9446378 L20.9000724,10.9446378 L20.9705464,10.7446203 L20.9705464,10.9776078 L21.0175291,10.9754098 Z" id="Shape" fill="#F79E1B"></path>
                </g>
            </g>
        </g>
    </g>
</svg>