<?xml version="1.0" encoding="UTF-8"?>
<svg width="42px" height="42px" viewBox="0 0 42 42" version="1.1" xmlns="http://www.w3.org/2000/svg" xmlns:xlink="http://www.w3.org/1999/xlink">
    <!-- Generator: Sketch 50.2 (55047) - http://www.bohemiancoding.com/sketch -->
    <title>basketball-ball</title>
    <desc>Created with Sketch.</desc>
    <defs></defs>
    <g id="Welcome" stroke="none" stroke-width="1" fill="none" fill-rule="evenodd">
        <g id="Opportunities-Desktop" transform="translate(-147.000000, -1484.000000)" fill="#FFFFFF" fill-rule="nonzero">
            <g id="Group" transform="translate(81.000000, 1235.000000)">
                <g id="basketball-ball" transform="translate(66.000000, 249.000000)">
                    <path d="M36.9973996,7.39591264 C31.6443767,1.10297348 23.3824506,-1.25153665 15.8764654,0.630201739 C12.8446884,1.39010887 9.93712087,2.84181194 7.39550345,5.00400814 C-1.43938839,12.516271 -2.5105272,25.7685705 5.00347151,34.6043272 C10.3551588,40.8959309 18.6197561,43.253112 26.1244057,41.3687026 C29.1575182,40.6114665 32.0637502,39.1557569 34.6067032,36.9962317 C43.4389239,29.4839688 44.5100627,16.2316693 36.9973996,7.39591264 Z M37.4261222,27.7798537 C35.8728374,26.6954168 34.0364086,26.2867497 32.0170048,26.6219636 C31.878104,23.8814901 31.5094826,21.2478577 31.0046317,18.7838354 C32.6514074,18.6142252 35.5402768,18.4299244 38.622806,18.7464411 C39.0101255,21.8020957 38.6041078,24.919184 37.4261222,27.7798537 Z M3.66254462,18.7330859 C4.09393843,17.0222933 6.5874748,12.8060774 10.4780326,12.0875712 C13.1358459,11.5987733 16.0487558,11.6521939 18.8628325,11.7002723 C21.4538665,11.7456798 23.9126777,11.767048 26.1377615,11.4345052 C26.6906935,12.9983914 27.235612,14.7358943 27.7164225,16.602942 C14.8734414,19.0389185 7.29132786,24.6040028 4.34235716,27.2042474 C3.83216386,25.8380172 2.86386505,21.8969172 3.66254462,18.7330859 Z M27.8740215,8.37350845 C27.1514702,6.54786163 26.4556307,5.03205392 25.8973563,3.89820304 C27.4426276,4.34025797 28.9197842,4.99332403 30.2967718,5.84404607 C30.2567043,7.33715005 28.8944081,8.04764318 27.8740215,8.37350845 Z M28.3227779,19.2071932 C28.8556761,21.7647013 29.2389889,24.5118524 29.3525136,27.361838 C26.1190634,28.4663076 24.2946548,29.6161846 22.3754198,30.8234888 C20.8849075,31.7623547 19.3449785,32.7346084 16.9569533,33.7909995 C14.1735951,35.0236784 11.7147839,34.7071617 10.0092424,34.1342265 C8.26897575,33.1325914 6.85192054,31.4338184 5.67660613,29.6055005 C7.97915391,27.504738 15.3916482,21.6418341 28.3227779,19.2071932 Z M34.5572866,9.46996496 C36.1613236,11.3557099 37.4007461,13.6207406 38.0912433,15.8470415 C34.4183858,15.6801023 31.4146561,16.0473685 30.4009474,16.1622226 C29.920137,14.259116 29.3712117,12.4842187 28.8116018,10.8762606 C30.3087921,10.3620879 31.9662525,9.32973605 32.6514074,7.57353592 C33.3218709,8.15581977 33.9696294,8.7768335 34.5572866,9.46996496 Z M9.4669951,7.4413201 C11.5745475,5.64906111 13.9919556,4.4030271 16.65244,3.73660592 C18.6250984,3.24113044 20.616455,3.11025013 22.5597305,3.27852482 C22.963077,4.01172168 24.0088398,6.0069787 25.1707983,8.88501009 C23.2542345,9.10403428 21.1333262,9.07198196 18.9095779,9.03058105 C15.9632784,8.97448948 12.9141388,8.92106895 9.99187983,9.45928085 C8.55612643,9.72504802 7.31670397,10.3273646 6.24422957,11.0912782 C7.12972213,9.76377791 8.19151185,8.52575698 9.4669951,7.4413201 Z M25.3444243,38.2636339 C21.3951008,39.2532494 17.3749913,38.8485888 13.8250075,37.278025 C15.1325448,37.1925522 16.5482644,36.8947327 18.0374412,36.2349891 C20.6030991,35.0971317 22.2992915,34.0300564 23.7978174,33.0858485 C25.4592846,32.0401415 26.9578105,31.1066176 29.3698762,30.199804 C29.312446,32.4621637 29.0640273,34.7739374 28.5738678,37.0857111 C27.5427965,37.5785156 26.4716577,37.9818406 25.3444243,38.2636339 Z M32.5298692,34.5575842 C32.2373762,34.8073252 31.926185,35.0250139 31.6190006,35.2480447 C31.9155003,33.2514521 32.0570723,31.2735568 32.0730993,29.3397334 C33.6784719,28.9804803 35.0661443,29.2596026 36.214747,30.1931264 C35.250455,31.7957425 34.0324018,33.2794979 32.5298692,34.5575842 Z" id="Shape"></path>
                </g>
            </g>
        </g>
    </g>
</svg>