<?xml version="1.0" encoding="UTF-8"?>
<svg width="63px" height="36px" viewBox="0 0 63 36" version="1.1" xmlns="http://www.w3.org/2000/svg" xmlns:xlink="http://www.w3.org/1999/xlink">
    <!-- Generator: Sketch 50.2 (55047) - http://www.bohemiancoding.com/sketch -->
    <title>boat</title>
    <desc>Created with Sketch.</desc>
    <defs></defs>
    <g id="Welcome" stroke="none" stroke-width="1" fill="none" fill-rule="evenodd">
        <g id="Opportunities-Desktop" transform="translate(-1165.000000, -1490.000000)" fill="#FFFFFF" fill-rule="nonzero">
            <g id="Group" transform="translate(81.000000, 1235.000000)">
                <g id="boat" transform="translate(1084.000000, 255.000000)">
                    <path d="M62.0842373,15.0531733 C61.2480117,13.9617433 59.9835835,13.3357487 58.6151808,13.3357487 L44.1872135,13.3357487 L44.1872135,9.47551092 L61.7163276,3.62434018 C62.6835979,3.30148619 63.2079,2.24960704 62.8874863,1.27496984 C62.5670727,0.300332646 61.5227751,-0.227838637 60.5558739,0.0948913748 L41.9630208,6.30115192 C41.8290229,6.32942024 41.7011773,6.37343452 41.5794841,6.42922726 L37.2850302,7.86272875 C36.3177599,8.18558275 35.7934577,9.2374619 36.1138714,10.2120991 C36.3705469,10.9928255 37.0912316,11.4870252 37.8649494,11.4870252 C38.0571484,11.4870252 38.2529158,11.4564012 38.4453609,11.3921776 L40.497042,10.7072907 L40.497042,13.3357487 L22.5001043,13.3357487 L22.5001043,10.7072907 L24.5519085,11.3921776 C24.7443536,11.4565252 24.9399979,11.4870252 25.1323199,11.4870252 C25.9061608,11.4870252 26.6267224,10.9927015 26.883521,10.2120991 C27.2039347,9.2374619 26.6796325,8.18558275 25.7123622,7.86272875 L21.4179083,6.42922726 C21.2962151,6.37343452 21.1683695,6.32942024 21.0343716,6.30115192 L2.44139549,0.094767391 C1.47437124,-0.227962621 0.430319732,0.300208662 0.109783001,1.27484586 C-0.210630684,2.24948306 0.313671432,3.3013622 1.28094178,3.6242162 L18.8100559,9.47538694 L18.8100559,13.3356247 L4.38491859,13.3356247 C3.0165159,13.3356247 1.75208771,13.9616193 0.915862129,15.0530493 C0.0796365521,16.1444793 -0.201402179,17.5354543 0.144974366,18.8693967 L2.34787997,27.3522491 C3.67001709,32.4438947 8.2414492,36 13.4646598,36 L49.5350704,36 C54.7585272,36 59.3299593,32.4440186 60.6520964,27.3523731 L62.855002,18.8695207 C63.2013786,17.5354543 62.9204629,16.1444793 62.0842373,15.0531733 Z M57.0822647,26.4110875 C56.1847618,29.8677578 53.0812772,32.2819717 49.5353165,32.2819717 L13.4647829,32.2819717 C9.91869917,32.2819717 6.8153376,29.8678818 5.9177117,26.4110875 L5.62572181,25.2865539 L57.3742546,25.2865539 L57.0822647,26.4110875 Z M59.2850472,17.9283592 L58.3396792,21.5687736 L4.66029717,21.5687736 L3.71492914,17.9283592 C3.63999368,17.6396007 3.75910292,17.4265965 3.8367454,17.3251777 C3.91438789,17.2237589 4.08886815,17.053777 4.38491859,17.053777 L58.6151808,17.053777 C58.9112313,17.053777 59.0858346,17.2237589 59.163354,17.3251777 C59.2409965,17.4264725 59.3601057,17.6397247 59.2850472,17.9283592 Z" id="Shape"></path>
                </g>
            </g>
        </g>
    </g>
</svg>