<?xml version="1.0" encoding="UTF-8"?>
<svg width="54px" height="54px" viewBox="0 0 54 54" version="1.1" xmlns="http://www.w3.org/2000/svg" xmlns:xlink="http://www.w3.org/1999/xlink">
    <!-- Generator: Sketch 50.2 (55047) - http://www.bohemiancoding.com/sketch -->
    <title>confetti</title>
    <desc>Created with Sketch.</desc>
    <defs></defs>
    <g id="Welcome" stroke="none" stroke-width="1" fill="none" fill-rule="evenodd">
        <g id="Opportunities-Desktop" transform="translate(-554.000000, -1267.000000)" fill="#FFFFFF" fill-rule="nonzero">
            <g id="Group" transform="translate(81.000000, 1235.000000)">
                <g id="confetti" transform="translate(473.000000, 32.000000)">
                    <path d="M36.2074195,29.726731 C38.2123876,28.7910141 40.2086666,28.1084217 42.1696661,27.6903444 C42.7352907,27.5697938 43.0967754,27.0100722 42.977118,26.4402257 C42.8574606,25.8703792 42.3025141,25.5060908 41.7361566,25.6267468 C39.4662254,26.1106365 37.1609099,26.9198966 34.8552804,28.0382851 C33.5673145,26.4907451 32.0929009,24.8726467 30.5021798,23.2700522 C28.8117966,21.5671571 27.1038259,19.9954649 25.4812799,18.6423034 C26.8853438,16.8536624 28.031354,14.8510257 28.8983728,12.6592839 C30.2501979,9.24199757 30.9356892,5.33776301 30.9356892,1.05468544 C30.9356892,0.472182672 30.4669002,0 29.8888179,0 C29.3107355,0 28.8419465,0.472182672 28.8419465,1.05468544 C28.8419465,7.65406318 27.162346,13.1158572 23.8454387,17.3305912 C23.2195143,16.8495491 22.612643,16.407425 22.033095,16.0137109 C18.9304822,13.9055002 17.0825449,13.4113801 16.0497016,14.4145968 C16.0423735,14.4214523 16.0347313,14.4282023 16.0276126,14.4352687 C16.0265657,14.4363234 16.0255188,14.4372726 16.024472,14.4382218 C16.0238438,14.4388546 16.0233204,14.4395929 16.0226923,14.4401202 C15.7581479,14.7072721 15.594836,15.0303222 15.5329659,15.4158097 L0.08145826,52.5374677 C-0.0829005475,52.9323419 0.00608352027,53.3882824 0.306640295,53.6910826 C0.507011478,53.892844 0.774801179,54 1.04719711,54 C1.18349977,54 1.32105867,53.973211 1.4518129,53.9179455 C1.45474414,53.9166799 1.4518129,53.9179455 1.45474414,53.9166799 L38.2984404,38.3507884 C38.6477814,38.2938354 38.9445694,38.1499763 39.1955045,37.9224806 C39.21372,37.9071877 39.230784,37.8909455 39.247848,37.8747034 C39.254548,37.8680589 39.2617714,37.8625745 39.2683667,37.8558245 C39.2694136,37.8547698 39.2702511,37.8536097 39.2711933,37.8526604 C39.2784167,37.8454886 39.2851167,37.8376839 39.292026,37.8301956 C40.2877054,36.7895375 39.7972461,34.9279123 37.7046549,31.8023519 C37.2623518,31.141697 36.7597488,30.4462374 36.2074195,29.726731 Z M8.30327206,46.4863155 C8.08479,47.8587776 7.59893699,48.7609555 7.36517061,49.1322048 L3.00191536,50.975584 L7.43321725,40.3298001 C8.30023613,42.5194326 8.60079291,44.616991 8.30327206,46.4863155 Z M14.7452998,42.9176818 C14.3232013,45.3417708 13.203677,46.5102568 12.8853234,46.8000844 L10.1267126,47.9655118 C10.7399699,45.7660708 10.9011881,42.2747456 8.53117596,37.6919264 L11.6684401,30.1552497 C14.9234773,36.3726204 15.1677124,40.4922217 14.7452998,42.9176818 Z M18.4795947,44.4364288 L16.2231682,45.3898645 C16.4381955,44.8425882 16.6277839,44.2192691 16.7651335,43.5129463 C17.6030493,39.2042398 16.2352072,33.8768127 12.7017022,27.672942 L13.834417,24.9517481 C14.7309577,26.0386015 15.7524948,27.5768602 16.1662184,28.5467489 C16.3365443,28.9461583 16.7227352,29.185361 17.1285025,29.185361 C17.2663755,29.185361 17.4066563,29.1576227 17.5413886,29.0994041 C18.0725711,28.8693772 18.3180625,28.2492222 18.0898445,27.7139693 C17.4759591,26.2749565 15.9193661,24.0358593 14.7286546,22.8034594 L16.459447,18.645362 C16.762621,19.2054 17.1381337,19.819016 17.5884978,20.4916944 C17.8985811,20.9549122 18.2382909,21.4351105 18.603649,21.9287033 C22.1846819,27.4031535 22.1036541,33.0065918 21.4036112,36.7453462 C20.659181,40.7220377 19.0651099,43.6334968 18.4795947,44.4364288 Z M26.5460528,41.0286347 L21.5761356,43.1283025 C22.2937659,41.5424775 23.0258431,39.4606339 23.4609229,37.1364236 C23.9468806,34.5404208 24.160547,31.126615 23.2613892,27.440173 C23.7572921,27.9679376 24.2674326,28.4968623 24.7907636,29.0240996 C26.3566738,30.6015926 27.9372402,32.0653905 29.451435,33.3483099 C29.3013136,38.3277962 27.0343136,40.5968465 26.5460528,41.0286347 Z M30.1546185,39.5040869 C30.7150087,38.3360228 31.2098649,36.8306703 31.4305453,34.9504825 C32.0624369,35.4364816 32.6751707,35.8830354 33.2599531,36.2803354 C33.9279617,36.734272 34.5369268,37.1123767 35.0930249,37.4178136 L30.1546185,39.5040869 Z M33.8366745,34.1175974 C31.5607761,32.4930654 28.8739807,30.1544059 26.2713538,27.5323525 C23.6688315,24.9104045 21.3473942,22.2035543 19.7350029,19.9106681 C18.175688,17.6934029 17.7554738,16.5611981 17.6448195,16.0707694 C18.1316147,16.1823551 19.2554311,16.6057058 21.4562688,18.1765543 C21.7826833,18.4095344 22.1181009,18.6585456 22.4597997,18.9195802 C22.3864141,18.9957285 22.3139706,19.0726151 22.2393286,19.1478142 C21.8305254,19.5596688 21.8305254,20.2274956 22.2393286,20.6394558 C22.4437826,20.8453304 22.711677,20.9483731 22.9795714,20.9483731 C23.2474658,20.9483731 23.5154649,20.8453304 23.7198141,20.6394558 C23.8513012,20.5069873 23.9807992,20.3727258 24.1088316,20.2371988 C25.6968308,21.5596688 27.3759078,23.1037283 29.0216943,24.7617993 C30.4369597,26.1876285 31.7676379,27.638032 32.9478807,29.0336972 C32.7588158,29.1394821 32.5698555,29.2470601 32.3808952,29.3569583 C31.8801766,29.6482624 31.7085944,30.293308 31.9977403,30.7976586 C32.1916208,31.1360017 32.5434743,31.3252123 32.9053777,31.3252123 C33.0829271,31.3252123 33.262989,31.2795444 33.4277666,31.1836735 C33.7183781,31.0145019 34.0091989,30.8521858 34.2999151,30.6936666 C34.7547807,31.275642 35.1768793,31.8414808 35.5580452,32.3835891 C37.1174648,34.6008543 37.5375743,35.7330591 37.6482286,36.2234878 C37.161224,36.1117967 36.0374076,35.6884459 33.8366745,34.1175974 Z" id="Shape"></path>
                    <path d="M18.9095006,30.5880562 C18.6831211,30.0859763 18.0920578,29.8620987 17.5890698,30.0880696 C17.1017597,30.3069632 16.8760791,30.8677536 17.0684069,31.3590682 C17.2195928,31.7540935 17.5975578,32 18.0010866,32 C18.1105316,32 18.2217742,31.9818585 18.3310195,31.9437814 C18.8514828,31.7619681 19.1258943,31.1933031 18.9436523,30.6736799 C18.9341657,30.646667 18.9212839,30.6141719 18.9095006,30.5880562 Z" id="Shape"></path>
                    <path d="M39.3159452,16.6949529 C39.5266293,16.8982482 39.8026869,17 40.0787445,17 C40.35491,17 40.6308597,16.8982482 40.8415438,16.6949529 C43.2518428,14.3679923 47.1568876,13.3015251 50.0079727,13.0793792 C50.6018363,13.0331378 51.0443484,12.5307318 50.9964509,11.9575057 C50.9484456,11.3841754 50.4292329,10.95863 49.8343983,11.003205 C46.6009967,11.2551371 42.1399531,12.4957384 39.3159452,15.2221034 C38.8946849,15.6287981 38.8946849,16.2882581 39.3159452,16.6949529 Z" id="Shape"></path>
                    <path d="M53.2836614,11.0518348 C53.2563072,11.0443041 53.2284697,11.0368725 53.2003423,11.0296391 C52.6823528,10.8972578 52.1578873,11.2207795 52.028849,11.751791 C51.8999075,12.2828025 52.2153021,12.820552 52.7332915,12.9527351 L52.7826837,12.9658147 C52.8665827,12.9889022 52.9508684,13 53.0338008,13 C53.4604486,13 53.8509463,12.7081864 53.9667424,12.2656603 C54.1050598,11.737126 53.799331,11.1937285 53.2836614,11.0518348 Z" id="Shape"></path>
                    <path d="M7,8 L8,8 L8,9 C8,9.5522 8.4477,10 9,10 C9.5523,10 10,9.5522 10,9 L10,8 L11,8 C11.5523,8 12,7.5522 12,7 C12,6.4478 11.5523,6 11,6 L10,6 L10,5 C10,4.4478 9.5523,4 9,4 C8.4477,4 8,4.4478 8,5 L8,6 L7,6 C6.4477,6 6,6.4478 6,7 C6,7.5523 6.4477,8 7,8 Z" id="Shape"></path>
                    <path d="M32,19.0001 L33.0001,19.0001 L33.0001,20 C33.0001,20.5523 33.4479,21 34.0001,21 C34.5524,21 35.0001,20.5523 35.0001,20 L35.0001,19.0001 L36,19.0001 C36.5522,19.0001 37,18.5523 37,18.0001 C37,17.4479 36.5522,17.0001 36,17.0001 L35.0001,17.0001 L35.0001,16 C35.0001,15.4478 34.5524,15 34.0001,15 C33.4479,15 33.0001,15.4478 33.0001,16 L33.0001,17.0001 L32,17.0001 C31.4478,17.0001 31,17.4479 31,18.0001 C31,18.5524 31.4478,19.0001 32,19.0001 Z" id="Shape"></path>
                    <path d="M46,44 L45,44 L45,43 C45,42.4478 44.5522,42 44,42 C43.4478,42 43,42.4478 43,43 L43,44 L42,44 C41.4478,44 41,44.4478 41,45 C41,45.5522 41.4478,46 42,46 L43,46 L43,47 C43,47.5522 43.4478,48 44,48 C44.5522,48 45,47.5522 45,47 L45,46 L46,46 C46.5522,46 47,45.5522 47,45 C47,44.4478 46.5523,44 46,44 Z" id="Shape"></path>
                    <path d="M41,6 C42.6542,6 44,4.6542 44,3 C44,1.3458 42.6542,0 41,0 C39.3458,0 38,1.3458 38,3 C38,4.6542 39.3458,6 41,6 Z M41,2 C41.5514,2 42,2.4486 42,3 C42,3.5514 41.5514,4 41,4 C40.4486,4 40,3.5514 40,3 C40,2.4486 40.4486,2 41,2 Z" id="Shape"></path>
                    <path d="M48,18 C46.3458,18 45,19.3458 45,21 C45,22.6542 46.3458,24 48,24 C49.6542,24 51,22.6542 51,21 C51,19.3458 49.6541,18 48,18 Z M48,22 C47.4486,22 47,21.5514 47,21 C47,20.4486 47.4486,20 48,20 C48.5514,20 49,20.4486 49,21 C49,21.5514 48.5514,22 48,22 Z" id="Shape"></path>
                    <path d="M21,10 C22.6542,10 24,8.6542 24,7 C24,5.3458 22.6542,4 21,4 C19.3458,4 18,5.3458 18,7 C18,8.6542 19.3458,10 21,10 Z M21,6 C21.5514,6 22,6.4486 22,7 C22,7.5514 21.5514,8 21,8 C20.4486,8 20,7.5514 20,7 C20,6.4487 20.4486,6 21,6 Z" id="Shape"></path>
                    <path d="M47,31 C47,30.4492 46.5508,30 46,30 C45.4492,30 45,30.4492 45,31 C45,31.5508 45.4492,32 46,32 C46.5508,32 47,31.5507 47,31 Z" id="Shape"></path>
                    <path d="M35,10 C35.5508,10 36,9.5508 36,9 C36,8.4492 35.5508,8 35,8 C34.4492,8 34,8.4492 34,9 C34.0001,9.5507 34.4493,10 35,10 Z" id="Shape"></path>
                    <path d="M50.00005,38 C49.4492775,38 49,38.4492775 49,39.00005 C49,39.5508225 49.4492775,40 50.00005,40 C50.5507225,40 51,39.5508225 51,39.00005 C51,38.4492775 50.5507225,38 50.00005,38 Z" id="Shape"></path>
                    <path d="M14,3 C14.5508,3 15,2.5508 15,2 C15,1.4492 14.5508,1 14,1 C13.4492,1 13,1.4492 13,2 C13,2.5508 13.4492,3 14,3 Z" id="Shape"></path>
                </g>
            </g>
        </g>
    </g>
</svg>