<?xml version="1.0" encoding="UTF-8"?>
<svg width="65px" height="38px" viewBox="0 0 65 38" version="1.1" xmlns="http://www.w3.org/2000/svg" xmlns:xlink="http://www.w3.org/1999/xlink">
    <!-- Generator: Sketch 50.2 (55047) - http://www.bohemiancoding.com/sketch -->
    <title>dumbbell</title>
    <desc>Created with Sketch.</desc>
    <defs></defs>
    <g id="Welcome" stroke="none" stroke-width="1" fill="none" fill-rule="evenodd">
        <g id="Opportunities-Desktop" transform="translate(-548.000000, -1484.000000)" fill="#FFFFFF" fill-rule="nonzero">
            <g id="Group" transform="translate(81.000000, 1235.000000)">
                <g id="dumbbell" transform="translate(467.000000, 249.000000)">
                    <path d="M61.2157741,13.4338453 L59.7347102,13.4338453 L59.7347102,9.18513712 C59.7347102,7.04525681 57.9771563,5.30357872 55.8177706,5.30357872 L53.1809791,5.30357872 L53.1809791,3.88155839 C53.1809791,1.74167808 51.4234253,3.24472132e-15 49.2640396,3.24472132e-15 L46.356288,3.24472132e-15 C44.1969023,3.24472132e-15 42.4393485,1.74167808 42.4393485,3.88155839 L42.4393485,13.418319 L22.5615716,13.418319 L22.5615716,3.88155839 C22.5615716,1.74167808 20.8040178,0 18.6446321,0 L15.7368805,0 C13.5774948,0 11.819941,1.74167808 11.819941,3.88155839 L11.819941,6.52467133 L9.18407114,6.52467133 C7.02468542,6.52467133 5.26713162,8.26634941 5.26713162,10.4062297 L5.26713162,13.9526041 L3.78514603,13.9526041 C1.6985693,13.9516908 0,15.6933689 0,17.8332492 L0,20.6845963 C0,22.8244767 1.6985693,24.5661547 3.78514603,24.5661547 L5.26620998,24.5661547 L5.26620998,28.8148629 C5.26620998,30.9547432 7.02376379,32.6964213 9.1831495,32.6964213 L11.8190194,32.6964213 L11.8190194,34.1184416 C11.8190194,36.2583219 13.5765732,38 15.7359589,38 L18.6437105,38 C20.8030962,38 22.56065,36.2583219 22.56065,34.1184416 L22.56065,24.0629221 L42.4384269,24.0629221 L42.4384269,34.1184416 C42.4384269,36.2583219 44.1959807,38 46.3553664,38 L49.263118,38 C51.4225037,38 53.1800575,36.2583219 53.1800575,34.1184416 L53.1800575,31.4753287 L55.816849,31.4753287 C57.9762347,31.4753287 59.7337885,29.7336506 59.7337885,27.5937703 L59.7337885,24.0483092 L61.2148525,24.0483092 C63.3023508,24.0483092 64.9999985,22.3066311 64.9999985,20.1667508 L64.9999985,17.3154037 C65.0018418,15.1755233 63.3032725,13.4338453 61.2157741,13.4338453 Z M3.78514603,22.2828851 C2.96857934,22.2828851 2.30408207,21.5659384 2.30408207,20.6845963 L2.30408207,17.8332492 C2.30408207,16.9519071 2.96857934,16.2349605 3.78514603,16.2349605 L5.26620998,16.2349605 L5.26620998,22.2828851 L3.78514603,22.2828851 Z M9.18407114,30.4131516 C8.29469546,30.4131516 7.57121369,29.696205 7.57121369,28.8148629 L7.57121369,10.4053164 C7.57121369,9.52397433 8.29469546,8.80702766 9.18407114,8.80702766 L11.819941,8.80702766 L11.819941,30.4122383 L9.18407114,30.4122383 L9.18407114,30.4131516 Z M20.2574896,34.1184416 C20.2574896,34.9997837 19.5340078,35.7167304 18.6446321,35.7167304 L15.7368805,35.7167304 C14.8475049,35.7167304 14.1240231,34.9997837 14.1240231,34.1184416 L14.1240231,3.88155839 C14.1240231,3.00021631 14.8475049,2.28326964 15.7368805,2.28326964 L18.6446321,2.28326964 C19.5340078,2.28326964 20.2574896,3.00021631 20.2574896,3.88155839 L20.2574896,34.1184416 Z M22.5615716,21.7796525 L22.5615716,15.7015887 L42.4393485,15.7015887 L42.4393485,21.7796525 L22.5615716,21.7796525 Z M50.876897,34.1184416 C50.876897,34.9997837 50.1534153,35.7167304 49.2640396,35.7167304 L46.356288,35.7167304 C45.4669123,35.7167304 44.7434306,34.9997837 44.7434306,34.1184416 L44.7434306,3.88155839 C44.7434306,3.00021631 45.4669123,2.28326964 46.356288,2.28326964 L49.2640396,2.28326964 C50.1534153,2.28326964 50.876897,3.00021631 50.876897,3.88155839 L50.876897,34.1184416 Z M57.4306281,27.5937703 C57.4306281,28.4751124 56.7071463,29.192059 55.8177706,29.192059 L53.1809791,29.192059 L53.1809791,7.58684837 L55.8177706,7.58684837 C56.7071463,7.58684837 57.4306281,8.30379503 57.4306281,9.18513712 L57.4306281,27.5937703 Z M62.6977597,20.1667508 C62.6977597,21.0480929 62.0332624,21.7650395 61.2166957,21.7650395 L59.7356318,21.7650395 L59.7356318,15.7171149 L61.2166957,15.7171149 C62.0332624,15.7171149 62.6977597,16.4340616 62.6977597,17.3154037 L62.6977597,20.1667508 Z" id="Shape"></path>
                </g>
            </g>
        </g>
    </g>
</svg>