<?xml version="1.0" encoding="UTF-8"?>
<svg width="43px" height="64px" viewBox="0 0 43 64" version="1.1" xmlns="http://www.w3.org/2000/svg" xmlns:xlink="http://www.w3.org/1999/xlink">
    <!-- Generator: Sketch 50.2 (55047) - http://www.bohemiancoding.com/sketch -->
    <title>grill</title>
    <desc>Created with Sketch.</desc>
    <defs></defs>
    <g id="Welcome" stroke="none" stroke-width="1" fill="none" fill-rule="evenodd">
        <g id="Opportunities-Desktop" transform="translate(-764.000000, -1264.000000)" fill="#FFFFFF" fill-rule="nonzero">
            <g id="Group" transform="translate(81.000000, 1235.000000)">
                <g id="grill" transform="translate(683.000000, 29.000000)">
                    <path d="M26.148124,18.8940523 C25.9437617,18.7029318 25.8313258,18.4487519 25.8313258,18.1783502 C25.8313258,17.9079485 25.9437617,17.6537686 26.148124,17.4626482 C26.5056971,17.1280447 26.5056971,16.5855277 26.148124,16.2509241 C25.7904289,15.9163206 25.2107919,15.9164348 24.8532188,16.2508099 C24.3030032,16.7656812 24,17.4501962 24,18.1783502 C24,18.9065042 24.3030032,19.5910192 24.8530968,20.1057764 C25.274884,20.5004692 25.274884,21.1427161 24.8532188,21.5374089 C24.4957679,21.8718982 24.4957679,22.4144152 24.8533409,22.7490188 C25.0320664,22.9162634 25.2664605,23 25.5007325,23 C25.7350045,23 25.9693986,22.9163777 26.148124,22.7490188 C27.2839587,21.6862612 27.2839587,19.9569241 26.148124,18.8940523 Z" id="Shape"></path>
                    <path d="M35.1467204,18.8942503 C34.9424656,18.7030195 34.8298996,18.4488448 34.8298996,18.1784486 C34.8298996,17.9080524 34.9424656,17.6538777 35.1467204,17.4626469 C35.5043189,17.1280502 35.5043189,16.5855443 35.1467204,16.2509475 C34.7891219,15.9163508 34.2093215,15.9163508 33.8518451,16.2509475 C32.7160516,17.3136834 32.7160516,19.0429853 33.8518451,20.1057212 C34.0560999,20.2970662 34.1686659,20.5512409 34.1686659,20.8216371 C34.1686659,21.0920333 34.0560999,21.346208 33.851723,21.5373245 C33.4941245,21.8719212 33.4941245,22.4144272 33.851723,22.7490239 C34.0305833,22.9162651 34.264872,23 34.4992827,23 C34.7335714,23 34.9679822,22.9163794 35.1467204,22.7491381 C35.6969752,22.2342773 36,21.5497762 36,20.8217513 C36,20.0937264 35.6968532,19.4091111 35.1467204,18.8942503 Z" id="Shape"></path>
                    <path d="M40.9581838,29.940758 L39.7359629,29.940758 C39.7435714,29.8681333 39.7478122,29.7945086 39.7478122,29.7198839 L39.7478122,27.9953906 C39.7478122,26.8397702 38.8095995,25.8995238 37.6564785,25.8995238 L36.231448,25.8995238 C35.7148199,25.8995238 35.2959794,26.3192722 35.2959794,26.8370202 C35.2959794,27.3547681 35.7148199,27.7745165 36.231448,27.7745165 L37.6564785,27.7745165 C37.7779647,27.7745165 37.8768749,27.8735161 37.8768749,27.9953906 L37.8768749,29.7198839 C37.8768749,29.8416334 37.7779647,29.940758 37.6564785,29.940758 L20.1315341,29.940758 C20.0100479,29.940758 19.9111377,29.8417584 19.9111377,29.7198839 L19.9111377,27.9953906 C19.9111377,27.8736411 20.0099232,27.7745165 20.1315341,27.7745165 L31.8167845,27.7745165 C32.3334126,27.7745165 32.7522531,27.3547681 32.7522531,26.8370202 C32.7522531,26.3192722 32.3334126,25.8995238 31.8167845,25.8995238 L20.1315341,25.8995238 C18.9784132,25.8995238 18.0402005,26.8396452 18.0402005,27.9953906 L18.0402005,29.7198839 C18.0402005,29.7945086 18.0444413,29.8681333 18.0520498,29.940758 L9.9636139,29.940758 C9.90536538,29.7527588 9.82965479,29.5725095 9.73922616,29.4011352 L31.6566323,7.43622095 C32.4526537,6.63847407 32.4526537,5.34060414 31.6566323,4.54285725 L30.6511906,3.53523619 C28.3765051,1.2554951 25.351948,0 22.134809,0 C18.9176701,0 15.8931129,1.2554951 13.6183027,3.53536119 L12.43375,4.72248155 L11.7410043,4.02823426 C10.8741367,3.15948766 9.51907921,3.10386288 8.72006428,3.90448475 L4.86194224,7.77096964 C4.06305204,8.57159152 4.11843178,9.92971121 4.98542409,10.7984578 L5.67816979,11.4927051 L4.49349233,12.6799505 C-0.0848158215,17.2683075 -0.197321514,24.6605287 4.15160973,29.3893852 C3.91462435,29.8336335 3.77991687,30.3403815 3.77991687,30.8782544 C3.77991687,32.3036238 4.72386707,33.5119941 6.01805672,33.9092425 C6.02466736,34.0719919 6.03414678,34.2341163 6.04724334,34.3951156 L2.61644336,34.3951156 C1.17382602,34.3951156 0,35.571361 0,37.0172304 C0,38.4629748 1.17370129,39.6392202 2.61644336,39.6392202 L7.73757277,39.6392202 C9.29581403,42.2213351 11.7916443,44.1744524 14.7489724,45.0205741 L11.8900556,56.1140308 C11.7608362,56.6154038 12.0616829,57.1267768 12.5618468,57.2561513 C12.6403014,57.2765263 12.7190055,57.2861512 12.7964623,57.2861512 C13.2126835,57.2861512 13.5926085,57.0055273 13.701497,56.582904 L16.5853597,45.3923227 C17.0659411,45.4510725 17.5550041,45.4818223 18.0511767,45.4818223 L18.6619753,45.4818223 L14.5698614,61.3603853 C14.4538633,61.8105086 14.0497408,62.1247573 13.5869957,62.1247573 C13.5015562,62.1247573 13.4156178,62.1137574 13.3315504,62.0918825 C13.0687461,62.0238827 12.8479755,61.8572584 12.7101498,61.6228843 C12.5723241,61.3885102 12.533658,61.1143863 12.6016354,60.8508873 L12.9690875,59.4250179 C13.0983069,58.9236448 12.7974602,58.4122718 12.2972963,58.2828973 C11.7966335,58.1533978 11.2867407,58.4547717 11.157646,58.9561447 L10.790194,60.3820141 C10.5973627,61.1303862 10.7067502,61.9092582 11.0985244,62.5751306 C11.490174,63.241003 12.1170627,63.7141261 12.8635666,63.9073754 C13.1003025,63.9687501 13.3437738,63.999875 13.5871204,63.999875 C14.9030129,63.999875 16.0521426,63.1072535 16.3815523,61.8293835 L17.7620545,56.4726544 L31.2572495,56.4726544 L31.6748427,58.0878981 C31.3748691,58.6512709 31.2041149,59.2938934 31.2041149,59.9758907 C31.2041149,62.1947571 33.0054533,64 35.2195204,64 C37.4337123,64 39.2350506,62.1947571 39.2350506,59.9758907 C39.2350506,58.4900215 38.426681,57.1905266 37.2281586,56.4935293 L34.2622242,45.0196991 C37.3722208,44.1287026 39.9713268,42.0130859 41.5058695,39.2292218 C41.5414173,39.176972 41.5716018,39.1209722 41.5961734,39.0619724 C42.491604,37.375229 43,35.4521115 43,33.4118695 L43,31.9868751 C42.9997505,30.8585045 42.0838644,29.940758 40.9581838,29.940758 Z M6.18481959,9.09671447 L10.0428169,5.23035457 C10.0814829,5.19185472 10.2629639,5.19860469 10.4180022,5.35397909 L11.1107479,6.04822637 L7.00104714,10.1668353 L6.30830145,9.472588 C6.19005822,9.35408846 6.16972737,9.23621392 6.16635968,9.1910891 C6.16324145,9.14808927 6.17047574,9.11108941 6.18481959,9.09671447 Z M5.81636969,14.0056953 L14.9411801,4.86110601 C16.8627573,2.93548853 19.4174598,1.87499268 22.134809,1.87499268 C24.8521582,1.87499268 27.4068607,2.93548853 29.3283132,4.86110601 L30.3337549,5.86872708 C30.4002355,5.93535182 30.4002355,6.04385139 30.3337549,6.11047613 L8.4163488,28.0753903 C7.97593017,27.8417662 7.47439427,27.7088918 6.94242444,27.7088918 C6.41494487,27.7088918 5.91777448,27.8396413 5.4800999,28.0693904 C1.85397407,24.073156 1.96560666,17.8648052 5.81636969,14.0056953 Z M2.61631863,37.7642275 C2.20533609,37.7642275 1.87081251,37.4291038 1.87081251,37.0172304 C1.87081251,36.605357 2.20521136,36.2701083 2.61631863,36.2701083 L6.34908788,36.2701083 C6.47356757,36.7816063 6.63022738,37.2804794 6.81757057,37.7642275 L2.61631863,37.7642275 Z M6.94242444,32.1726243 C6.230221,32.1726243 5.6508541,31.5918766 5.6508541,30.8782544 C5.6508541,30.1645072 6.23034573,29.5838844 6.94242444,29.5838844 C7.65462789,29.5838844 8.23399478,30.1646322 8.23399478,30.8782544 C8.23411951,31.5920016 7.65462789,32.1726243 6.94242444,32.1726243 Z M18.2451305,54.5974117 L18.7702402,52.5600447 L30.2458208,52.5600447 L30.7724273,54.5974117 L18.2451305,54.5974117 Z M19.2534409,50.685052 L20.594404,45.4818223 L28.416169,45.4818223 L29.7612481,50.685052 L19.2534409,50.685052 Z M37.3639887,59.9756407 C37.3639887,61.1606361 36.4019527,62.1247573 35.2193957,62.1247573 C34.0369633,62.1247573 33.0749274,61.1606361 33.0749274,59.9756407 C33.0749274,58.7905203 34.0369633,57.8263991 35.2193957,57.8263991 C36.4019527,57.8263991 37.3639887,58.7905203 37.3639887,59.9756407 Z M35.1555343,55.9530314 C34.4424578,55.9642814 33.774159,56.1624056 33.197162,56.5011543 L30.3487224,45.4819473 L30.9555297,45.4819473 C31.4530743,45.4819473 31.943634,45.4509475 32.4255875,45.3919477 L35.1555343,55.9530314 Z M30.9555297,43.6068297 L18.0511767,43.6068297 C14.7804042,43.6068297 11.8671054,42.0502107 10.0048992,39.6392202 L39.0019319,39.6392202 C37.1396009,42.0502107 34.2264269,43.6068297 30.9555297,43.6068297 Z M40.1528077,37.7642275 L8.85389866,37.7642275 C8.29498734,36.5828571 7.95559932,35.2779872 7.89024125,33.9019926 C8.87722301,33.5906188 9.65690492,32.8064968 9.9636139,31.8156257 L40.9581838,31.8156257 C41.0522296,31.8156257 41.1286886,31.8922504 41.1286886,31.9865001 L41.1286886,33.4116195 L41.1288133,33.4116195 C41.1288133,34.9679884 40.7777007,36.4433576 40.1528077,37.7642275 Z" id="Shape"></path>
                    <path d="M30.1467204,18.8942503 C29.9424656,18.7030195 29.8298996,18.4488448 29.8298996,18.1784486 C29.8298996,17.9080524 29.9424656,17.6538777 30.1467204,17.4626469 C30.5043189,17.1280502 30.5043189,16.5855443 30.1467204,16.2509475 C29.7891219,15.9163508 29.2093215,15.9163508 28.8518451,16.2509475 C27.7160516,17.3136834 27.7160516,19.0429853 28.8518451,20.1057212 C29.056222,20.2969519 29.168788,20.5511267 29.168788,20.8215228 C29.168788,21.091919 29.056222,21.3460937 28.8518451,21.5372103 C28.4942466,21.8719212 28.4942466,22.4143129 28.851723,22.7490239 C29.0305833,22.9162651 29.264872,23 29.4992827,23 C29.7335714,23 29.9679822,22.9163794 30.1467204,22.7491381 C30.6969752,22.2342773 31,21.5497762 31,20.8217513 C31,20.0937264 30.6969752,19.4091111 30.1467204,18.8942503 Z" id="Shape"></path>
                </g>
            </g>
        </g>
    </g>
</svg>