<?xml version="1.0" encoding="UTF-8"?>
<svg width="55px" height="48px" viewBox="0 0 55 48" version="1.1" xmlns="http://www.w3.org/2000/svg" xmlns:xlink="http://www.w3.org/1999/xlink">
    <!-- Generator: Sketch 50.2 (55047) - http://www.bohemiancoding.com/sketch -->
    <title>hobby-horse</title>
    <desc>Created with Sketch.</desc>
    <defs></defs>
    <g id="Welcome" stroke="none" stroke-width="1" fill="none" fill-rule="evenodd">
        <g id="Opportunities-Desktop" transform="translate(-346.000000, -1478.000000)" fill="#FFFFFF" fill-rule="nonzero">
            <g id="Group" transform="translate(81.000000, 1235.000000)">
                <g id="hobby-horse" transform="translate(265.000000, 243.000000)">
                    <path d="M54.997959,38.5028106 C54.997207,38.4840179 54.9965625,38.46544 54.9948437,38.4468621 C54.9930176,38.4282841 54.9901172,38.4097062 54.9875391,38.3912357 C54.9848535,38.3728725 54.9823828,38.3546167 54.9788379,38.3362536 C54.975293,38.3174609 54.9703516,38.2986682 54.965625,38.2798755 C54.9611133,38.262264 54.9570312,38.2443304 54.9517676,38.2266116 C54.9459668,38.2078188 54.9390918,38.1892409 54.9323242,38.1704482 C54.9259863,38.1530515 54.920293,38.1355475 54.9130957,38.1183656 C54.9055762,38.1000024 54.8966601,38.082391 54.8880664,38.0641352 C54.8815136,38.0507118 54.8763574,38.0368589 54.8691601,38.0234356 L52.7180367,33.9241557 C52.7157808,33.9199676 52.7130953,33.9161017 52.7108394,33.9121284 C52.7085835,33.9076181 52.7068648,33.9032153 52.7042867,33.8989198 C52.6970894,33.885926 52.6886031,33.8743282 52.6809761,33.8617639 C52.6706636,33.8447968 52.660566,33.8275075 52.6496089,33.8115069 C52.6389741,33.7958284 52.6275874,33.7812238 52.6164156,33.766297 C52.6044917,33.7506185 52.5928902,33.7348326 52.5802144,33.7197985 C52.568398,33.705516 52.5557222,33.6923074 52.5432612,33.6786693 C52.5300483,33.6646016 52.5170503,33.6502118 52.5034077,33.6368958 C52.48998,33.623902 52.4761226,33.6117673 52.4621577,33.5995251 C52.4481929,33.5870683 52.4343354,33.5743966 52.4197261,33.5629062 C52.4049018,33.551201 52.3897554,33.540355 52.3745014,33.5296163 C52.3596772,33.5188776 52.3450678,33.5079241 52.3297065,33.4981519 C52.3140229,33.4878428 52.2976948,33.4785001 52.2815815,33.4690501 C52.2658979,33.4599222 52.2505366,33.4506869 52.2344233,33.4422033 C52.2179877,33.4337198 52.2011225,33.4260953 52.1842573,33.4182561 C52.1676069,33.410739 52.1511713,33.4027924 52.1343061,33.3959196 C52.1174408,33.3891542 52.1003608,33.3834627 52.0832807,33.3773417 C52.0657709,33.3712206 52.0482611,33.3648848 52.0303217,33.3597302 C52.013349,33.3545756 51.9960541,33.3506023 51.9788666,33.3463069 C51.96039,33.3415818 51.9421283,33.3369642 51.9234369,33.333313 C51.9062494,33.329984 51.8889545,33.3275141 51.871767,33.3250442 C51.8527533,33.3221448 51.8337396,33.3192454 51.8145111,33.317205 C51.7972162,33.3155942 51.7798138,33.3149499 51.7624115,33.3140908 C51.7429681,33.3129095 51.7236322,33.3118357 51.7041888,33.3118357 C51.6865716,33.3118357 51.6689544,33.3128021 51.6514447,33.3136612 C51.6321087,33.3146277 51.6125579,33.315272 51.593222,33.3169902 C51.5754974,33.3188158 51.5574505,33.3217153 51.5398333,33.3241852 C51.5207122,33.3268698 51.5015911,33.3295545 51.4825774,33.3330983 C51.4644231,33.336642 51.4463763,33.3415818 51.4281145,33.3460921 C51.4097454,33.3506023 51.3913762,33.3550052 51.3731145,33.3603745 C51.3545305,33.3659587 51.3364837,33.3728314 51.3181145,33.379382 C51.3004973,33.3857178 51.2824504,33.3918389 51.2650481,33.3990338 C51.246679,33.4065509 51.2288469,33.4156788 51.2106926,33.4241624 C51.1975871,33.4304982 51.1842668,33.4356527 51.1711614,33.4425255 C51.1669719,33.4447806 51.1631047,33.4474653 51.1589153,33.4497204 C51.1547258,33.4519756 51.1502141,33.4536937 51.1459172,33.456271 C49.5916298,34.321702 48.008983,35.1142173 46.4006624,35.8344611 L40.5116866,17.8987024 C42.9122437,18.5920996 44.0594022,21.3800781 44.1145096,21.5179628 C44.3020682,21.9935794 44.7823515,22.2869604 45.2914239,22.2384215 L48.8011121,21.8975755 C49.1036121,21.8682589 49.3819423,21.7199576 49.5751943,21.4854246 C49.7684462,21.2506769 49.860292,20.9490271 49.8309658,20.6466256 L47.9262682,1.03498703 C47.8650377,0.405162903 47.3048325,-0.0563859599 46.6749105,0.00557627685 C40.7770187,0.577841025 35.8015588,2.52981256 31.8867826,5.80672358 C28.6387742,8.52554492 26.9611664,11.4961885 26.2500335,13.0252705 C26.1704338,13.19666 26.1082366,13.3443169 26.0575334,13.4725369 C26.0279924,13.4971285 25.9997404,13.5227939 25.9729924,13.5501776 C25.8941447,13.5567282 25.8096037,13.5638157 25.7144279,13.5731584 L9.08788167,15.1866465 C8.56215892,15.2376552 8.1396686,15.6413226 8.06436585,16.1636524 C7.55067434,19.732441 3.40397432,22.4742431 3.36369111,22.5003381 C3.07977503,22.6841845 2.89167929,22.9843309 2.84989218,23.3195927 C2.80810506,23.6552842 2.91649375,23.9921568 3.14637661,24.2400058 C5.31329109,26.5787849 7.56324271,26.8357617 9.06876058,26.6389216 C9.36234462,26.6004771 9.63863373,26.5440989 9.89429785,26.4767674 L8.827491,39.6702135 C6.88874062,39.2417398 4.96406251,38.7169401 3.05678675,38.093774 C3.04357386,38.0892637 3.03046838,38.086579 3.01714807,38.0828205 C2.99706017,38.0772364 2.97718712,38.0711153 2.95720665,38.0666051 C2.93991173,38.0628465 2.92250938,38.0596249 2.90510703,38.0565107 C2.88469687,38.052967 2.86428671,38.0489936 2.84387655,38.0464164 C2.82658163,38.0441612 2.80917928,38.0430874 2.79188435,38.0414766 C2.77147419,38.0398658 2.75127888,38.0381476 2.73108356,38.037718 C2.71368121,38.0372885 2.69638629,38.037718 2.67898394,38.0381476 C2.65900347,38.0385771 2.63913042,38.0387919 2.61925737,38.0401879 C2.6017476,38.0415839 2.58445267,38.0437317 2.56705033,38.045772 C2.54782181,38.0480272 2.52827102,38.0502823 2.50925734,38.0536113 C2.491855,38.0565107 2.47456007,38.0605914 2.45737257,38.0641352 C2.43868116,38.0683233 2.41998975,38.0721892 2.40151318,38.0773438 C2.3844331,38.0820688 2.36756786,38.0876529 2.3505952,38.0930223 C2.33276317,38.0988212 2.31460887,38.1045127 2.29688426,38.1111706 C2.28012644,38.1175065 2.26401316,38.1248088 2.24768503,38.1317889 C2.2303901,38.1391986 2.21288033,38.1466083 2.19590767,38.1550919 C2.18000923,38.1629311 2.1646479,38.1717369 2.14896431,38.1802204 C2.13242133,38.1893483 2.11598578,38.1983688 2.0998725,38.208141 C2.08461859,38.2174837 2.06990179,38.227578 2.05507757,38.2378872 C2.03960882,38.2484111 2.02392522,38.258935 2.00899358,38.2701032 C1.99470646,38.2810567 1.98084904,38.2928693 1.96677677,38.3045744 C1.95259708,38.316387 1.93809512,38.3283069 1.92434512,38.3407638 C1.91070254,38.3532207 1.89791934,38.3667514 1.88481386,38.37996 C1.87192324,38.3931686 1.85892519,38.4059477 1.84657167,38.4198006 C1.83400331,38.4338683 1.82207948,38.4489024 1.81004822,38.4639366 C1.79855408,38.4780043 1.78727478,38.4918572 1.77642517,38.5066766 C1.76471618,38.5225698 1.75408142,38.5391074 1.74323181,38.5559672 C1.73345641,38.5707865 1.72335875,38.5857133 1.71422789,38.601177 C1.70413023,38.6183589 1.69499937,38.6366147 1.68554625,38.6544409 C1.67716734,38.6706564 1.66857359,38.686657 1.66094663,38.7031946 C1.65267515,38.721343 1.64526304,38.7400283 1.63795835,38.758821 C1.63269467,38.7720296 1.62635678,38.7845938 1.6215228,38.798232 L0.0660537437,43.1582472 C0.0643349933,43.1629722 0.0635830401,43.1675899 0.0619717116,43.1721001 C0.0603603832,43.1766104 0.0584267891,43.1805837 0.0569228825,43.1850939 C0.052303741,43.1987321 0.0497256155,43.212585 0.0455361616,43.2264379 C0.039950223,43.2458749 0.0338271749,43.2656341 0.0294228772,43.2852859 C0.0252334232,43.3031121 0.0222256101,43.3212605 0.0188955314,43.3391941 C0.0153506088,43.3588459 0.0114834205,43.3786051 0.00901271694,43.3980421 C0.00664943523,43.4166201 0.00546779437,43.4348758 0.00396388783,43.453239 C0.00245998128,43.4724612 0.000741230948,43.4916835 0.000204121469,43.5107984 C-0.000332988011,43.5295911 0.000311543365,43.548169 0.000741230948,43.5667469 C0.00106349664,43.5853249 0.00117091853,43.6041176 0.00256740318,43.6223733 C0.00396388783,43.6413808 0.00632716954,43.6599588 0.00869045125,43.6787515 C0.0108388892,43.6965777 0.0126650614,43.7146187 0.0157802964,43.7324449 C0.0190029533,43.7512376 0.0231924072,43.7698155 0.0273818611,43.7883935 C0.0311416275,43.8055754 0.0346865501,43.8230794 0.0394131135,43.8402613 C0.0443545207,43.8586245 0.0503701469,43.8764507 0.0561709293,43.8944917 C0.0615420241,43.9114589 0.0669131188,43.9285334 0.0731435888,43.9452857 C0.0796963245,43.9626824 0.0872158572,43.9797569 0.094627968,43.9969388 C0.101825235,44.0135838 0.108807658,44.030014 0.116756879,44.0462294 C0.124813521,44.0628744 0.133729538,44.0786602 0.142752977,44.0947683 C0.151454151,44.1108763 0.160155325,44.1269843 0.169823295,44.1428776 C0.179383844,44.1583413 0.189803768,44.1731607 0.199794004,44.1880875 C0.21032135,44.2035512 0.220741274,44.2190149 0.232020573,44.2337269 C0.242762763,44.2482241 0.254471749,44.2618623 0.266073314,44.2757152 C0.278104566,44.2899976 0.290028397,44.3046023 0.30270418,44.3186699 C0.314950277,44.3318785 0.32816317,44.3446576 0.340946375,44.3574366 C0.354374112,44.3706452 0.367694427,44.3839612 0.381659274,44.3966328 C0.395409277,44.4088749 0.410126076,44.4205801 0.424413189,44.4321779 C0.438915144,44.4439905 0.453309679,44.4559104 0.468563588,44.4668639 C0.484032341,44.4783543 0.500038203,44.488556 0.51625891,44.4990799 C0.531727663,44.5091743 0.546981572,44.5196982 0.562987434,44.5290409 C0.579852672,44.5389205 0.597362441,44.5478336 0.614764788,44.5569615 C0.631415182,44.565445 0.64774331,44.5743581 0.664930814,44.5823048 C0.682548004,44.5905736 0.701024571,44.5975537 0.719393715,44.604856 C0.733143717,44.6104401 0.746356611,44.6168833 0.760428879,44.6218231 C0.76558513,44.6236487 0.770741381,44.6249374 0.775897632,44.6267629 C0.779657398,44.6279442 0.783202321,44.6296624 0.787391775,44.630951 C7.60621146,46.8727598 14.6247285,48 21.7285384,48 C23.9089881,48 26.0978166,47.893687 28.2909421,47.6809535 C37.5171939,46.7851321 46.3049495,44.0519209 54.4102538,39.5574573 C54.4236815,39.550155 54.4358202,39.5413493 54.4487108,39.53351 C54.4654686,39.5232009 54.4825487,39.5133213 54.498662,39.5023678 C54.5143456,39.4916291 54.5291698,39.4802461 54.5442089,39.4690779 C54.5598925,39.457158 54.5756835,39.4455602 54.5907226,39.4329959 C54.6049023,39.4211833 54.6182226,39.4084043 54.6317577,39.39584 C54.6459374,39.3826314 54.660332,39.3698524 54.6736523,39.3559995 C54.6866503,39.3427909 54.698789,39.3287232 54.7110351,39.3148703 C54.7233886,39.3010174 54.7361718,39.2871645 54.747666,39.2725599 C54.7598046,39.2580627 54.7705468,39.2428137 54.7815039,39.2277796 C54.7923535,39.2127454 54.8033105,39.1982482 54.8130859,39.1827844 C54.8233984,39.167106 54.8326367,39.1507831 54.8421972,39.1346751 C54.8512207,39.1189966 54.8606738,39.1036403 54.8690527,39.0875323 C54.8777539,39.0708873 54.8854883,39.0539202 54.8932226,39.0371678 C54.9006347,39.0205228 54.908584,39.0045222 54.9153515,38.9876625 C54.922334,38.9704806 54.9282422,38.9529765 54.9343652,38.9355798 C54.9404883,38.9183979 54.9466113,38.9013234 54.9517676,38.8839267 C54.9570312,38.86653 54.9611133,38.848489 54.965625,38.8308776 C54.9701367,38.8130514 54.974541,38.7953325 54.9780859,38.7771842 C54.9816309,38.7593579 54.984209,38.7413169 54.9867871,38.7234907 C54.9894727,38.7049128 54.992373,38.6868718 54.9943066,38.6682938 C54.9961328,38.6501455 54.9966699,38.6321045 54.9977441,38.6138487 C54.9987109,38.5952708 54.9997852,38.5766928 55,38.5579001 C55,38.5394296 54.9988184,38.5212812 54.997959,38.5028106 Z M25.6802677,15.878218 C25.5699454,17.0655949 25.1091055,18.1925129 24.3343788,19.1336517 C23.3123669,20.3751515 21.8679721,21.1441491 20.2672784,21.2994305 C18.6666921,21.4546046 17.1015551,20.9779142 15.8598654,19.9562353 C14.9185273,19.1818684 14.2492889,18.1642702 13.9125213,17.0200629 L25.6802677,15.878218 Z M8.77173903,24.3673666 C7.72469781,24.503748 6.72395543,24.2272267 5.78455095,23.5438166 C7.17684615,22.3956359 9.39650478,20.2006478 10.1485655,17.3856078 L11.6020911,17.2447162 C12.0182436,18.9976999 12.9878336,20.5607161 14.4035468,21.7255417 C15.9055197,22.9612427 17.7500611,23.6197391 19.6699052,23.6197391 C19.9415752,23.6197391 20.2148565,23.6065305 20.4887823,23.5798986 C22.698773,23.3655543 24.6929531,22.3036053 26.1040471,20.5896032 C27.4422017,18.9641952 28.1024166,16.9366232 27.9842525,14.8489147 C28.017983,14.7733143 28.0507467,14.693848 28.0816842,14.6056834 C28.1347506,14.4540531 28.2009225,14.2653743 28.3285397,13.9908934 C29.7335107,10.9699927 34.2000057,3.94635306 45.7578498,2.41641201 L47.4393247,19.7281455 L45.8676349,19.8807423 C45.0349004,18.3251358 42.8023511,15.0924681 38.7762859,15.4835712 C38.4299577,15.5171833 38.1177897,15.706399 37.9276529,15.9974175 C37.7374087,16.2887581 37.6898208,16.6504372 37.798317,16.980974 L44.2839139,36.7335042 C43.4121852,37.0846593 42.5332593,37.4141223 41.6476732,37.7231818 L36.9332484,28.804593 C36.7368812,28.432927 36.3525257,28.1987162 35.9319689,28.1945281 L22.0882944,28.05267 C22.0844272,28.05267 22.0804526,28.05267 22.0765854,28.05267 C21.7556088,28.05267 21.4489192,28.1871184 21.231927,28.4237991 C21.0121418,28.6634866 20.9045051,28.9851104 20.9360871,29.3089893 C21.0596223,30.5820609 20.5740753,32.0888063 19.6370341,33.3387898 C18.653157,34.6512724 17.3040454,35.4801918 15.9358127,35.6130294 C15.474006,35.6578097 15.084709,35.9766414 14.950002,36.4204714 L13.6995037,40.5390809 C12.8272379,40.4207405 11.9573354,40.2822114 11.0897961,40.1252118 L12.3319155,24.762443 C12.3682241,24.3174317 12.1424233,23.8920723 11.7534486,23.6723587 C11.3646888,23.4530746 10.8835461,23.4794918 10.5209972,23.739905 C10.5141222,23.7448448 9.7964365,24.2335626 8.77173903,24.3673666 Z M39.4374677,38.446003 C35.6100255,39.6159832 31.6633451,40.4021626 27.6221333,40.7943395 C23.7288416,41.172234 19.8513408,41.1753482 16.0132639,40.8065816 L16.9349438,37.7708616 C18.6715261,37.3927523 20.2604034,36.3272596 21.4709407,34.7121607 C22.4557847,33.3986043 23.0693785,31.8403131 23.213109,30.355045 L35.2258848,30.4781104 L39.4374677,38.446003 Z M28.0697604,45.4007003 C19.4400224,46.2381033 10.8856945,45.3657995 2.6233394,42.8107432 L3.40902315,40.6079159 C9.38887783,42.446809 15.5256759,43.3719471 21.7320834,43.3719471 C23.7627869,43.3719471 25.801547,43.2730438 27.8437447,43.0748076 C36.0822522,42.2754196 43.9432791,39.9015249 51.2288469,36.0183075 L52.3146674,38.0875455 C44.7600078,42.1115472 36.6094788,44.5715661 28.0697604,45.4007003 Z" id="Shape"></path>
                    <path d="M43.0965777,12.9952171 C43.6464347,12.942032 44.0486174,12.4533416 43.9952467,11.9035764 C43.941876,11.3539041 43.452908,10.951535 42.9034223,11.0047202 C42.3535653,11.0582765 41.9513826,11.5470598 42.0047533,12.0969178 C42.058124,12.6464045 42.5469992,13.0487735 43.0965777,12.9952171 Z" id="Shape"></path>
                    <path d="M31.5814824,15.9098859 C31.7155671,15.9710779 31.8563746,16 31.9948479,16 C32.3726379,16 32.7345544,15.7847118 32.902347,15.4206283 C32.9086964,15.4070508 32.9151392,15.3929152 32.920835,15.3793376 C33.1354078,14.8748286 32.8987988,14.292574 32.3922464,14.0788668 C31.8870012,13.8655316 31.3036023,14.0998841 31.0880024,14.6023472 C31.0887494,14.6005803 31.0893096,14.5988134 31.0900566,14.5970464 L31.0866018,14.6054161 C31.0867885,14.6049512 31.0869753,14.6046722 31.087162,14.6043002 C30.8639055,15.1005325 31.0840807,15.682601 31.5814824,15.9098859 Z" id="Shape"></path>
                    <path d="M33.4407578,12.7705583 C33.6544098,12.9251128 33.9088093,13 34.1615746,13 C34.5044419,13 34.8440407,12.8619765 35.0734906,12.597282 C36.147525,11.3575597 38.7146176,9.49005933 40.1796755,9.07758205 C40.792958,8.90500283 41.1371328,8.31048584 40.9482125,7.74972786 C40.7590744,7.18916904 40.1087487,6.87478209 39.4952482,7.04726172 C37.5436172,7.59666712 34.5890965,9.73433909 33.2511839,11.2783903 C32.8526428,11.7381701 32.9375153,12.4064789 33.4407578,12.7705583 Z" id="Shape"></path>
                </g>
            </g>
        </g>
    </g>
</svg>