<?xml version="1.0" encoding="UTF-8"?>
<svg width="54px" height="63px" viewBox="0 0 54 63" version="1.1" xmlns="http://www.w3.org/2000/svg" xmlns:xlink="http://www.w3.org/1999/xlink">
    <!-- Generator: Sketch 50.2 (55047) - http://www.bohemiancoding.com/sketch -->
    <title>palette (1)</title>
    <desc>Created with Sketch.</desc>
    <defs></defs>
    <g id="Welcome" stroke="none" stroke-width="1" fill="none" fill-rule="evenodd">
        <g id="Opportunities-Desktop" transform="translate(-971.000000, -1471.000000)" fill="#FFFFFF" fill-rule="nonzero">
            <g id="Group" transform="translate(81.000000, 1235.000000)">
                <g id="palette-(1)" transform="translate(890.000000, 236.000000)">
                    <path d="M45.6972184,11.4229667 C44.1494422,9.88923813 42.6016661,8.62224498 40.9865953,7.55530338 C39.640703,6.62172948 38.2948107,5.88820713 36.9489184,5.28805248 C37.4199807,3.88769163 37.6891591,2.88743388 37.7564537,2.15391153 C37.8237484,1.08696994 37.4872753,0.353447586 36.7470345,0.0867121858 C36.0740884,-0.113339364 35.4011422,0.0200283359 34.5936068,0.620182985 C33.853366,1.15365379 32.8439468,2.22059538 31.6326437,3.68764008 C21.8749244,1.75380843 12.4536782,6.28831023 7.20469822,12.156489 C5.45503821,14.0903207 4.17644051,16.15752 3.43619974,18.2247194 L3.43619974,18.2914032 C2.69595897,20.4252864 2.49407512,22.5591696 2.96513743,24.4930013 C3.77267282,27.6938261 6.39716283,30.3611801 11.3096698,31.7615409 L9.56000977,34.1621595 C7.20469822,34.6289465 5.05127052,35.8292558 3.43619974,37.7630874 C0.542531266,41.2306476 -0.265004123,45.2316786 0.0714689559,49.032658 C0.47523665,54.6341014 3.36890513,59.8354417 5.25315436,61.9026411 C6.12798437,62.9028988 6.73363591,63.1696342 7.40658207,62.9028988 L15.481936,62.7028473 C16.0875875,62.7028473 16.6259444,62.2360603 16.6259444,61.5692218 C16.6259444,60.9690672 16.1548821,60.4355964 15.481936,60.4355964 L9.22353669,60.5022802 C9.76189362,59.5020225 10.7040182,58.2350293 12.7228567,56.9013523 L12.7901513,56.9013523 C15.6165252,55.1008884 18.7793721,52.9670052 20.730916,49.7661804 C20.7982106,49.6994965 20.8655052,49.6328127 20.8655052,49.5661288 C22.2786921,47.0988264 22.5478706,44.2314209 21.8749244,41.6974346 C21.8076298,41.4306992 21.6730406,41.1639638 21.605746,40.8972284 L23.1535221,37.3629843 C23.4227006,37.7630874 23.5572898,38.2298744 23.7591737,38.7633452 C24.1629414,40.0303383 24.4994145,41.497383 24.7685929,43.0311116 C25.8453068,49.3660773 28.7389752,52.6335859 32.3055899,53.7005275 C35.6703207,54.7007853 39.640703,53.5671598 43.2073176,51.0331735 C46.639343,48.5658711 49.80219,44.6982078 51.8210284,40.163706 C55.4549377,31.7615409 55.2530538,20.8920734 45.6972184,11.4229667 Z M35.1319637,3.35422083 C35.5862024,4.87127842 26.3163691,24.2929497 26.3163691,24.2929497 L21.5384514,21.5589119 L24.9704768,16.8243585 L28.9408591,11.289599 C28.9408591,11.289599 34.3580757,3.88769163 35.1319637,3.35422083 Z M22.2786921,14.2236884 C21.7403352,13.6902176 21.4711567,13.0233791 21.4711567,12.3565406 C21.4711567,11.6897021 21.7403352,11.0228636 22.2786921,10.4893928 C22.8170491,9.95592198 23.4899952,9.68918658 24.1629414,9.68918658 C24.8358875,9.68918658 25.5088337,9.95592198 26.0471906,10.4893928 C26.1817798,10.6227605 26.3163691,10.7561282 26.3163691,10.8894959 L23.4227006,14.8905269 C23.355406,14.823843 23.2208168,14.823843 23.0862275,14.7571592 C22.8170491,14.6237915 22.5478706,14.4904238 22.2786921,14.2236884 Z M5.25315436,23.9595305 C4.91668129,22.4258019 5.05127052,20.7587057 5.65692206,19.0916094 L5.65692206,19.0249256 C6.32986822,17.2911455 7.40658207,15.4239977 8.95435823,13.7569014 C13.5303921,8.62224498 21.5384514,4.68789783 29.8156891,6.08825868 C29.6138052,6.35499408 29.3446268,6.68841333 29.0754483,7.08851643 L27.729556,8.88898038 C27.729556,8.82229653 27.6622614,8.82229653 27.6622614,8.82229653 C26.7201368,7.88872263 25.4415391,7.42193568 24.230236,7.42193568 C22.9516383,7.42193568 21.6730406,7.95540648 20.730916,8.88898038 C19.7214967,9.82255428 19.2504344,11.0895474 19.2504344,12.3565406 C19.2504344,13.6235337 19.7887914,14.8905269 20.730916,15.8241008 C21.1346837,16.2908877 21.605746,16.5576231 22.1441029,16.8243585 L12.7901513,29.7610254 C8.21411746,28.6940838 5.92610052,26.5602006 5.25315436,23.9595305 Z M18.7793721,48.6992388 L18.7793721,48.7659226 C17.0970067,51.4999605 14.1360436,53.4337921 11.5115536,55.1675722 L11.444259,55.1675722 C8.55059053,57.03472 7.47387668,58.9685517 6.86822514,60.168861 C5.18585975,58.2350293 2.89784282,53.7672114 2.49407512,48.9659742 C2.22489666,45.6984656 2.89784282,42.2309054 5.32044898,39.3634998 C6.59904668,37.8297713 8.28141207,36.8961974 10.1656613,36.5627781 C12.806975,36.0126363 14.943579,37.0295651 15.6838198,37.4296682 C17.6353637,38.5632936 18.9139614,40.3637576 19.5869075,42.4976408 C20.1252644,44.4981563 19.9233806,46.7654072 18.7793721,48.6992388 Z M21.8076298,34.4955788 L19.7214967,38.2298744 C17.568069,34.6456174 12.7228567,34.0954757 12.5209729,34.0954757 L14.2033383,31.7615409 L20.192559,23.4260597 L25.3742445,26.3601491 L21.8076298,34.4955788 Z M49.6676007,39.4301837 C47.8506461,43.5645824 44.9569776,47.0988264 41.7941307,49.2993934 C38.8331676,51.4332766 35.603026,52.4335344 32.9112414,51.6333282 C30.1521622,50.833122 27.9314399,48.0990842 26.9893152,42.83106 C26.7201368,41.1639638 26.3163691,39.6302352 25.8453068,38.1631905 C25.4415391,36.8961974 24.9031821,35.7625719 24.230236,34.828998 C24.230236,34.828998 36.0740884,7.82203878 36.141383,7.62198723 C37.3526861,8.15545803 38.5639891,8.82229653 39.7079976,9.62250273 C41.1211845,10.6227605 42.6016661,11.8230698 44.014853,13.2234306 C52.763153,21.8923311 53.0323315,31.8282248 49.6676007,39.4301837 Z" id="Shape"></path>
                    <path d="M28.7857143,61 L26.2142857,61 C25.5714286,61 25,61.4117647 25,62 C25,62.5294118 25.5,63 26.2142857,63 L28.7857143,63 C29.4285714,63 30,62.5882353 30,62 C30,61.4705882 29.5,61 28.7857143,61 Z" id="Shape"></path>
                    <path d="M22.9148936,61 L19.0851064,61 C18.5106383,61 18,61.4117647 18,62 C18,62.5294118 18.4468085,63 19.0851064,63 L22.9148936,63 C23.4893617,63 24,62.5882353 24,62 C24,61.4705882 23.5531915,61 22.9148936,61 Z" id="Shape"></path>
                    <path d="M38.5,12 C36.8072917,12 35.1822917,12.609375 33.8958333,13.8958333 L33.828125,13.9635417 C32.609375,15.25 32,16.875 32,18.5 C32,20.1927083 32.609375,21.8177083 33.8958333,23.1041667 C35.1822917,24.390625 36.8072917,25 38.5,25 C40.1927083,25 41.8177083,24.390625 43.1041667,23.1041667 L43.171875,23.0364583 C44.390625,21.75 45,20.125 45,18.5 C45,16.8072917 44.390625,15.1822917 43.1041667,13.8958333 C41.8854167,12.609375 40.1927083,12 38.5,12 Z M42.6302083,18.5677083 C42.6302083,19.6510417 42.2239583,20.6666667 41.4791667,21.4791667 L41.4114583,21.546875 C40.6666667,22.359375 39.5833333,22.765625 38.5,22.765625 C37.484375,22.765625 36.4010417,22.359375 35.5885417,21.546875 C34.7760417,20.734375 34.3697917,19.6510417 34.3697917,18.5677083 C34.3697917,17.484375 34.7760417,16.46875 35.5208333,15.65625 L35.5885417,15.5885417 C36.4010417,14.7760417 37.484375,14.3697917 38.5677083,14.3697917 C39.5833333,14.3697917 40.6666667,14.7760417 41.4791667,15.5885417 C42.2916667,16.4010417 42.6979167,17.4166667 42.6302083,18.5677083 Z" id="Shape"></path>
                    <path d="M40,33 C40,34.2837838 40.5405405,35.5675676 41.4864865,36.5135135 C42.4324324,37.527027 43.7162162,38 45,38 C46.2837838,38 47.5675676,37.4594595 48.5135135,36.5135135 C49.527027,35.5675676 50,34.2837838 50,33 C50,31.7162162 49.4594595,30.4324324 48.5135135,29.4864865 C47.5,28.5405405 46.2162162,28.0675676 45,28 C43.7162162,28 42.4324324,28.5405405 41.4864865,29.4864865 C40.472973,30.4324324 40,31.7162162 40,33 Z M43.0405405,31.1756757 C43.5810811,30.6351351 44.2567568,30.3648649 44.9324324,30.3648649 C45.6081081,30.3648649 46.2837838,30.6351351 46.8243243,31.1756757 C47.3648649,31.7162162 47.6351351,32.3918919 47.6351351,33.0675676 C47.6351351,33.7432432 47.3648649,34.4189189 46.8243243,34.9594595 C46.2837838,35.5 45.6081081,35.7702703 44.9324324,35.7702703 C44.2567568,35.7702703 43.5810811,35.5 43.0405405,34.9594595 C42.5,34.4189189 42.2297297,33.7432432 42.2297297,33.0675676 C42.2297297,32.3918919 42.5,31.7162162 43.0405405,31.1756757 Z" id="Shape"></path>
                    <path d="M41.6640625,41.3359375 C40.8203125,40.421875 39.625,40 38.5,40 C37.375,40 36.25,40.421875 35.3359375,41.3359375 C34.421875,42.1796875 34,43.375 34,44.5 C34,45.625 34.421875,46.75 35.3359375,47.6640625 C36.1796875,48.578125 37.375,49 38.5,49 C39.625,49 40.75,48.578125 41.6640625,47.6640625 C42.578125,46.8203125 43,45.625 43,44.5 C43,43.375 42.578125,42.25 41.734375,41.40625 C41.6640625,41.40625 41.6640625,41.3359375 41.6640625,41.3359375 Z M39.90625,45.9765625 C39.484375,46.3984375 38.9921875,46.609375 38.4296875,46.609375 C37.8671875,46.609375 37.375,46.3984375 36.953125,45.9765625 C36.53125,45.5546875 36.3203125,45.0625 36.3203125,44.5 C36.3203125,43.9375 36.53125,43.4453125 36.953125,43.0234375 C37.375,42.6015625 37.8671875,42.390625 38.4296875,42.390625 C38.9921875,42.390625 39.484375,42.6015625 39.90625,43.0234375 L39.9765625,43.09375 C40.328125,43.515625 40.5390625,44.0078125 40.5390625,44.5 C40.5390625,45.0625 40.328125,45.5546875 39.90625,45.9765625 Z" id="Shape"></path>
                    <path d="M16.6640625,21.6640625 C17.578125,20.8203125 18,19.625 18,18.5 C18,17.375 17.578125,16.25 16.6640625,15.3359375 C15.8203125,14.421875 14.625,14 13.5,14 C12.375,14 11.1796875,14.421875 10.3359375,15.3359375 C9.421875,16.1796875 9,17.375 9,18.5 C9,19.625 9.421875,20.75 10.3359375,21.6640625 C11.1796875,22.578125 12.375,23 13.5,23 C14.625,23 15.75,22.578125 16.6640625,21.6640625 Z M11.390625,18.5 C11.390625,17.9375 11.6015625,17.4453125 12.0234375,17.0234375 C12.4453125,16.6015625 12.9375,16.390625 13.5,16.390625 C14.0625,16.390625 14.5546875,16.6015625 14.9765625,17.0234375 C15.3984375,17.4453125 15.609375,17.9375 15.609375,18.5 C15.609375,19.0625 15.3984375,19.5546875 14.9765625,19.9765625 C14.5546875,20.3984375 14.0625,20.609375 13.5,20.609375 C12.9375,20.609375 12.4453125,20.3984375 12.0234375,19.9765625 C11.6015625,19.5546875 11.390625,19.0625 11.390625,18.5 Z" id="Shape"></path>
                </g>
            </g>
        </g>
    </g>
</svg>