<?xml version="1.0" encoding="UTF-8"?>
<svg width="47px" height="55px" viewBox="0 0 47 55" version="1.1" xmlns="http://www.w3.org/2000/svg" xmlns:xlink="http://www.w3.org/1999/xlink">
    <!-- Generator: Sketch 50.2 (55047) - http://www.bohemiancoding.com/sketch -->
    <title>ping-pong (1)</title>
    <desc>Created with Sketch.</desc>
    <defs></defs>
    <g id="Welcome" stroke="none" stroke-width="1" fill="none" fill-rule="evenodd">
        <g id="Opportunities-Desktop" transform="translate(-1173.000000, -1273.000000)" fill="#FFFFFF" fill-rule="nonzero">
            <g id="Group" transform="translate(81.000000, 1235.000000)">
                <g id="ping-pong-(1)" transform="translate(1092.000000, 38.000000)">
                    <path d="M5.49872462,40 C4.02918256,40 2.64775738,40.5720087 1.60859667,41.6109285 C-0.536198888,43.7553813 -0.536198888,47.2447732 1.60859667,49.3892261 C2.64775738,50.4279913 4.02918256,51 5.49872462,51 C6.96826668,51 8.34969187,50.4278368 9.38869799,49.3892261 C10.4277041,48.3504609 11,46.9692014 11,45.5 C11,44.0309532 10.4277041,42.6496937 9.38869799,41.6109285 C8.34969187,40.5721632 6.96826668,40 5.49872462,40 Z M7.42106373,47.422048 C6.90766701,47.9353257 6.22499315,48.2180071 5.49872462,48.2180071 C4.7724561,48.2180071 4.08978224,47.9353257 3.57623093,47.422048 C2.51635503,46.3622632 2.51635503,44.6378913 3.57623093,43.5781066 C4.08962765,43.0646743 4.77230151,42.7819929 5.49872462,42.7819929 C6.22483856,42.7819929 6.90751242,43.0646743 7.42106373,43.577952 C7.93461503,44.0913843 8.21736197,44.7738998 8.21736197,45.5 C8.21736197,46.2261002 7.93461503,46.9086157 7.42106373,47.422048 Z" id="Shape"></path>
                    <path d="M46.9982803,43.694286 C46.9644864,42.4989352 46.4284508,41.3564916 45.5280848,40.5596973 L37.0998869,33.1018622 C37.6458997,32.5415564 38.1542565,31.947626 38.6215778,31.3234173 C38.7210284,31.2228619 38.8051913,31.1079642 38.8714917,30.9820707 C40.9752423,28.0307447 42.1844201,24.4550507 42.1844201,20.696572 C42.1844201,15.9532557 40.2501218,10.7458864 37.0104135,6.76669574 C33.4573876,2.40329091 28.8960161,0 24.1663188,0 C20.0558545,0 16.0731632,1.81589416 12.7684419,5.15541835 C9.87552341,5.7888698 7.35079745,7.10852048 5.38029141,9.05971031 C2.03598298,12.3716654 0.526522244,17.2649384 1.13014562,22.8383551 C1.68066429,27.9206277 4.0311103,32.9573237 7.4180634,36.3111902 C10.5150327,39.3782107 14.5759327,41.1466159 18.7761922,41.4721861 L18.2700884,50.3864018 C18.2021787,51.5803183 18.6390855,52.7635578 19.4686453,53.6325417 C20.298205,54.5015255 21.4666692,55 22.6743987,55 L25.658078,55 C26.8656466,55 28.0341108,54.5016849 28.8636705,53.6325417 C29.6932302,52.7635578 30.130137,51.5803183 30.0622274,50.3864018 L29.4886967,40.2824129 L37.1895212,48.8168764 C37.9941378,49.7086485 39.1477971,50.2393135 40.3550438,50.2729383 C40.3959183,50.2740538 40.436471,50.2746912 40.4771846,50.2746912 C41.6414648,50.2746912 42.7732385,49.8122318 43.5982924,48.995199 L45.7079971,46.9060044 C46.5620172,46.0604463 47.0322351,44.8897961 46.9982803,43.694286 Z M40.4363101,47.4057537 C40.0158175,47.3939612 39.6297624,47.2164354 39.349434,46.905845 L31.6354138,38.3568798 C30.7718992,37.3999299 29.5735033,36.8896628 28.3479113,36.8896628 C27.7240115,36.8896628 27.0928703,37.0219307 26.495362,37.294753 C24.6888368,38.1199132 22.7709527,38.5632495 20.8517812,38.6462755 L35.257154,24.3809488 C35.1733129,26.2814625 34.7256243,28.1807014 33.8922024,29.9696639 C33.0753556,31.7235674 33.5064692,33.7690977 34.9647563,35.0595857 L43.5976487,42.6986118 C43.9114492,42.976215 44.0905568,43.3585169 44.1026261,43.7749216 C44.1143735,44.1914856 43.9571514,44.5831897 43.6594433,44.8776848 L41.5497385,46.9668794 C41.2525132,47.261534 40.8569637,47.4175463 40.4363101,47.4057537 Z M21.1620413,50.5475136 L21.6774787,41.467246 C23.3404603,41.3317909 24.9953957,40.965903 26.5922378,40.3628891 L27.1704353,50.5476729 C27.1939301,50.9635995 27.0478118,51.3594469 26.7586326,51.6622288 C26.4696143,51.9650106 26.0787315,52.1317 25.658078,52.1317 L22.6743987,52.1317 C22.2537451,52.1317 21.8627015,51.9650106 21.5735223,51.6620694 C21.2846649,51.3592876 21.1383856,50.9634402 21.1620413,50.5475136 Z M7.42852342,11.0880298 C10.1412078,8.4017176 14.2460398,7.20015183 18.9853925,7.70276966 C23.4812682,8.18036815 27.9169586,10.2000823 30.8510735,13.1058317 C32.9709164,15.2050659 34.3575926,17.8378335 34.9475375,20.6310756 L17.4028726,38.0053342 C17.2961804,38.1109891 17.2097646,38.229074 17.1433033,38.3548081 C14.2936732,37.7800008 11.60561,36.4015467 9.46645634,34.28303 C6.53218053,31.3772806 4.49247745,26.9845538 4.01035119,22.5325454 C3.5018335,17.8387897 4.71583902,13.7743421 7.42852342,11.0880298 Z M34.755556,8.56729145 C37.5935997,12.0529477 39.2878004,16.5873446 39.2878004,20.696572 C39.2878004,22.9301458 38.7771907,25.0859524 37.8536517,27.0342737 C38.2290858,25.0606143 38.262397,23.0491868 37.9682291,21.0865232 C37.9667808,20.9458093 37.9442516,20.8057329 37.901285,20.6702778 C37.2814084,17.110201 35.5831846,13.7351398 32.8996274,11.0775121 C29.5126742,7.72348631 24.4266927,5.3957315 19.2945262,4.85072421 C18.8091815,4.7992513 18.3294691,4.76435171 17.8549062,4.74379442 C19.8508381,3.51641251 21.9964288,2.86845941 24.1663188,2.86845941 C28.0027307,2.86845941 31.7633478,4.89231687 34.755556,8.56729145 Z" id="Shape"></path>
                </g>
            </g>
        </g>
    </g>
</svg>