<?xml version="1.0" encoding="UTF-8"?>
<svg width="60px" height="60px" viewBox="0 0 60 60" version="1.1" xmlns="http://www.w3.org/2000/svg" xmlns:xlink="http://www.w3.org/1999/xlink">
    <!-- Generator: Sketch 50.2 (55047) - http://www.bohemiancoding.com/sketch -->
    <title>recommended</title>
    <desc>Created with Sketch.</desc>
    <defs></defs>
    <g id="Welcome" stroke="none" stroke-width="1" fill="none" fill-rule="evenodd">
        <g id="Opportunities-Desktop" transform="translate(-962.000000, -1268.000000)" fill="#FFFFFF" fill-rule="nonzero">
            <g id="Group" transform="translate(81.000000, 1235.000000)">
                <g id="recommended" transform="translate(881.000000, 33.000000)">
                    <path d="M46,26.7791564 C46,24.9086391 44.4519958,23.3870911 42.5490987,23.3870911 L36.2070476,23.3870911 C37.7478906,21.6845961 38.7549269,19.7459928 38.9494547,18.0068006 C39.068261,16.9445444 38.7343823,15.8901353 38.0331667,15.11384 C37.3922934,14.4042459 36.5159206,14.0087704 35.56547,14.0001154 C35.5544346,14 35.5433992,14 35.5324813,14 C34.613141,14 33.7502689,14.3480462 33.0990646,14.9822841 C32.4477429,15.6166375 32.0873324,16.4617111 32.0831061,17.3635615 C32.0496478,17.5610107 31.6962811,18.2417549 30.8316481,19.0500159 C30.1237408,19.7119499 28.9009278,20.6218782 27.0954707,21.19807 C26.3875634,21.4240231 25.7405855,21.8400398 25.1726161,22.4345802 C24.8745437,22.7463908 24.4281981,23.1770633 23.8756078,23.6093514 C23.6044195,23.4681019 23.2960161,23.3873219 22.9683595,23.3873219 L16.9450428,23.3873219 C15.8724987,23.3873219 15,24.2449741 15,25.2992678 L15,41.0880541 C15,42.1423478 15.8724987,43 16.9450428,43 L22.9683595,43 C23.6995115,43 24.3370976,42.6009471 24.6693327,42.0132153 L40.0393736,42.0132153 C41.6654472,42.0132153 42.988283,40.712889 42.988283,39.1144847 C42.988283,38.5770673 42.8388359,38.073462 42.5784481,37.6414047 C43.4257063,37.1315678 43.9921495,36.2132153 43.9921495,35.1672304 C43.9921495,34.629813 43.8427024,34.1262077 43.5823146,33.6941504 C44.4295728,33.1843136 44.9960161,32.265961 44.9960161,31.2199761 C44.9960161,30.6150497 44.8065364,30.0528213 44.4828713,29.5875288 C45.3977505,28.9767171 46,27.9457342 46,26.7791564 Z M42.5490987,28.3210147 L42.0471067,28.3210147 C41.5273877,28.3210147 41.1059305,28.735185 41.1059305,29.2461759 C41.1059305,29.7570513 41.5272703,30.171337 42.0471067,30.171337 C42.6352685,30.171337 43.113781,30.6417071 43.113781,31.2198607 C43.113781,31.7980143 42.6352685,32.2683844 42.0471067,32.2683844 L41.0432402,32.2683844 C40.5235212,32.2683844 40.1020639,32.6825547 40.1020639,33.1935456 C40.1020639,33.704421 40.5234038,34.1187067 41.0432402,34.1187067 C41.631402,34.1187067 42.1099144,34.5890768 42.1099144,35.1672304 C42.1099144,35.745384 41.631402,36.2157541 41.0432402,36.2157541 L40.0393736,36.2157541 C39.5196546,36.2157541 39.0981974,36.6299244 39.0981974,37.1409152 C39.0981974,37.6517907 39.5195372,38.0660764 40.0393736,38.0660764 C40.6275354,38.0660764 41.1060479,38.5364465 41.1060479,39.1146001 C41.1060479,39.6927537 40.6275354,40.1631238 40.0393736,40.1631238 L24.9134023,40.1631238 L24.9134023,31.2202069 C24.9134023,30.7093315 24.4920624,30.2950458 23.972226,30.2950458 C23.4523896,30.2950458 23.0310498,30.7092161 23.0310498,31.2202069 L23.0310498,41.0881695 C23.0310498,41.1222125 23.0029917,41.1497931 22.9683595,41.1497931 L16.9450428,41.1497931 C16.9104105,41.1497931 16.8823525,41.1222125 16.8823525,41.0881695 L16.8823525,25.2989216 C16.8823525,25.2648786 16.9104105,25.2372981 16.9450428,25.2372981 L22.9683595,25.2372981 C23.0029917,25.2372981 23.0310498,25.2648786 23.0310498,25.2989216 L23.0310498,27.2726064 C23.0310498,27.7834819 23.4523896,28.1977676 23.972226,28.1977676 C24.4920624,28.1977676 24.9134023,27.7835973 24.9134023,27.2726064 L24.9134023,25.2989216 C24.9134023,25.254031 24.9096455,25.2100637 24.9064758,25.1659809 C25.6121525,24.6290251 26.1764826,24.0861838 26.5446414,23.7009789 C26.8929599,23.3361998 27.2737976,23.0862435 27.6765887,22.9578034 C29.8918806,22.2508635 31.3827123,21.1125587 32.243119,20.2821409 C33.321533,19.241349 33.9652238,18.1563589 33.9652238,17.3796021 C33.9652238,16.96924 34.1280542,16.584612 34.4237787,16.2965738 C34.7231425,16.0049582 35.119594,15.8508993 35.5479777,15.8503223 C36.0755624,15.8551691 36.4249375,16.1204735 36.6253352,16.3422722 C36.9688404,16.7225149 37.1378929,17.2692797 37.0781375,17.80462 C36.8725744,19.6428253 35.3770469,21.9150497 33.2681171,23.5931954 C32.9583049,23.839805 32.8400856,24.2515519 32.973097,24.6209471 C33.1061085,24.9903422 33.4615883,25.2372981 33.8602704,25.2372981 L42.5488639,25.2372981 C43.4138491,25.2372981 44.1174127,25.9288898 44.1174127,26.7791564 C44.1174127,27.629423 43.4139665,28.3210147 42.5490987,28.3210147 Z" id="Shape"></path>
                    <path d="M20,37 C19.4506763,37 19,37.4506763 19,38 C19,38.5493237 19.4506763,39 20,39 C20.5493237,39 21,38.5493237 21,38 C21.0001241,37.4508003 20.5494478,37 20,37 Z" id="Shape"></path>
                    <path d="M58.3253568,29.9999602 L59.9392611,25.7292955 C60.0568001,25.4186314 60.0013704,25.0690611 59.7935972,24.8097251 L56.9390303,21.2467559 L57.1541863,16.6864037 C57.1698894,16.354763 57.0091084,16.0391771 56.7316087,15.8569505 L52.9157539,13.3504267 L51.7113022,8.94675423 C51.6236461,8.62636357 51.3733339,8.37605103 51.0530608,8.28851196 L46.6493942,7.08405867 L44.1428737,3.26831597 C43.9605302,2.99069875 43.6450618,2.8306206 43.3134216,2.84573779 L38.7530755,3.06089407 L35.190111,0.206323376 C34.9308926,-0.00133290197 34.5813227,-0.0567625969 34.2705418,0.0606592938 L29.9998828,1.67456576 L25.7294582,0.0607764813 C25.4185602,-0.0567625969 25.0691074,-0.00133290197 24.809889,0.206440563 L21.2469245,3.06101126 L16.6865784,2.84585498 C16.3532975,2.83015185 16.0393526,2.99093312 15.8571263,3.26843316 L13.350723,7.08429305 L8.94705638,8.28874633 C8.62666614,8.37640259 8.37635394,8.62671513 8.28881498,8.94698861 L7.08436329,13.3506611 L3.26850847,15.8570677 C2.99089161,16.0394114 2.83022774,16.3548802 2.84593085,16.6865209 L3.06108684,21.2468731 L0.206519938,24.8098423 C-0.00113606364,25.0690611 -0.056565685,25.4186314 0.0608560499,25.7294127 L1.67464319,29.9999602 L0.0607388625,34.2705076 C-0.0568000597,34.5811717 -0.00137043836,34.9307421 0.206402751,35.1900781 L3.06096966,38.7530473 L2.84581366,43.3133995 C2.83011056,43.6450401 2.99089161,43.9606261 3.26839128,44.1428527 L7.0842461,46.6493765 L8.28869779,51.0530489 C8.37635394,51.3734396 8.62666614,51.6237521 8.94693919,51.7112912 L13.3506058,52.9157445 L15.8570091,56.7316044 C16.0393526,57.0092216 16.3554069,57.168831 16.6864612,57.1541826 L21.2468073,56.9390263 L24.8097718,59.793597 C25.0689903,60.0013704 25.4186773,60.0568001 25.729341,59.9392611 L30,58.3253546 L34.270659,59.9392611 C34.3784713,59.9799251 34.490854,59.999847 34.6026508,59.999847 C34.8131193,59.999847 35.0208924,59.9291829 35.190111,59.793597 L38.7530755,56.9390263 L43.3134216,57.1541826 C43.6461165,57.1689482 43.9605302,57.0091044 44.1428737,56.7316044 L46.6493942,52.9157445 L51.0530608,51.7112912 C51.373451,51.6236349 51.6237633,51.3733224 51.7113022,51.0530489 L52.9157539,46.6493765 L56.7316087,44.1428527 C57.0092256,43.9605089 57.1698894,43.6450401 57.1541863,43.3133995 L56.9390303,38.7530473 L59.7935972,35.1900781 C60.0012533,34.9308593 60.0566829,34.5812889 59.9392611,34.2705076 L58.3253568,29.9999602 Z M56.4422731,30.3320696 L57.9921931,34.4335155 L55.250712,37.8552737 C55.1076263,38.0337503 55.0346186,38.2583988 55.0453998,38.4869144 L55.2521183,42.8665635 L51.5875524,45.2737122 C51.3964198,45.39922 51.2574356,45.5903529 51.1970841,45.8111342 L50.0403276,50.0403144 L45.811153,51.1970724 C45.5904892,51.257424 45.3994738,51.3962912 45.2737318,51.5875412 L42.8665862,55.252112 L38.486943,55.0453932 C38.2583105,55.0348463 38.0337795,55.1076198 37.8553031,55.2507057 L34.4335494,57.9921905 L30.332109,56.4422684 C30.2251169,56.4018387 30.1124999,56.3816825 30,56.3816825 C29.8875001,56.3816825 29.7748831,56.4019559 29.667891,56.4422684 L25.5664506,57.9921905 L22.1446969,55.2507057 C21.9662205,55.1076198 21.7412208,55.0348463 21.513057,55.0453932 L17.1334138,55.252112 L14.7262682,51.5875412 C14.6007606,51.3964084 14.409628,51.257424 14.188847,51.1970724 L9.95967236,50.0403144 L8.80291593,45.8111342 C8.74256444,45.5904701 8.60369742,45.3994544 8.41244764,45.2737122 L4.74788171,42.8665635 L4.95460021,38.4869144 C4.96538145,38.2582816 4.89237372,38.0337503 4.74928795,37.8552737 L2.00780685,34.4335155 L3.55784406,30.3320696 C3.63870334,30.1180852 3.63870334,29.8818352 3.55784406,29.6678508 L2.00780685,25.5664049 L4.74928795,22.1446466 C4.89237372,21.96617 4.96538145,21.7415216 4.95460021,21.5130059 L4.74788171,17.1333569 L8.41244764,14.7262081 C8.60358023,14.6007003 8.74256444,14.4095675 8.80291593,14.1887862 L9.95967236,9.95960593 L14.188847,8.80284796 C14.4095108,8.74249639 14.6005262,8.60362919 14.7262682,8.41237916 L17.1334138,4.74780836 L21.513057,4.95452714 C21.741338,4.9651912 21.9662205,4.89230057 22.1446969,4.74921461 L25.5664506,2.00772987 L29.667891,3.55776914 C29.8819923,3.63862852 30.1181249,3.63862852 30.332109,3.55776914 L34.4335494,2.00772987 L37.8553031,4.74921461 C38.0337795,4.89241775 38.2585448,4.96530839 38.486943,4.95452714 L42.8665862,4.74780836 L45.2737318,8.41237916 C45.3992394,8.603512 45.590372,8.74249639 45.811153,8.80284796 L50.0403276,9.95960593 L51.1970841,14.1887862 C51.2574356,14.4094503 51.3963026,14.6004659 51.5875524,14.7262081 L55.2521183,17.1333569 L55.0453998,21.5130059 C55.0346186,21.7416388 55.1076263,21.96617 55.250712,22.1446466 L57.9921931,25.5664049 L56.4421559,29.6678508 C56.3614138,29.8819523 56.3614138,30.1180852 56.4422731,30.3320696 Z" id="Shape"></path>
                    <path d="M47.7748171,13.5665334 C47.561996,13.3348233 47.3412809,13.1043933 47.1184322,12.8816443 C46.8955835,12.6588953 46.6652674,12.4380665 46.4335645,12.2252388 C46.0856902,11.9058373 45.54473,11.9288803 45.2252318,12.2768722 C44.9058402,12.6247575 44.9288825,13.1658413 45.2768636,13.4852428 C45.490538,13.6815351 45.7032524,13.8852949 45.908926,14.090975 C46.114493,14.2965484 46.3183531,14.5093761 46.5147459,14.723164 C46.6834026,14.9068679 46.9138253,15 47.1449948,15 C47.3516286,15 47.5589024,14.925537 47.7230786,14.7747974 C48.0710597,14.4555025 48.0942086,13.9144187 47.7748171,13.5665334 Z" id="Shape"></path>
                    <path d="M42.5687658,9.76379142 C38.0741815,6.85895061 32.6627764,5.56798887 27.331939,6.12784593 C21.9229753,6.69631254 16.8226801,9.16147628 12.9703121,13.0693894 C8.73068445,17.3702757 6.26226711,23.083719 6.01975023,29.1572305 C5.77874471,35.1950064 7.7500373,41.057053 11.5706665,45.6632838 C11.7549375,45.8854811 12.0186135,46 12.2843823,46 C12.4962067,46 12.7091937,45.9271136 12.8839315,45.7780386 C13.2777017,45.4417941 13.3283907,44.8453759 12.9970518,44.4459161 C9.47660408,40.2014046 7.66016887,34.7990848 7.88222412,29.233891 C8.10567448,23.6362639 10.3806363,18.3705175 14.2882275,14.4065833 C17.8387863,10.8046043 22.5393821,8.53250689 27.5238831,8.0087392 C32.4387447,7.4921658 37.4258034,8.68205371 41.5670757,11.3585644 C42.0013042,11.6391416 42.5772527,11.5096444 42.8538336,11.0692597 C43.1305307,10.628757 43.0027618,10.0443686 42.5687658,9.76379142 Z" id="Shape"></path>
                    <path d="M50.235972,17.4314025 C49.9553966,16.9971762 49.370658,16.8695241 48.9305119,17.1461036 C48.4900119,17.4226831 48.3606335,17.9988613 48.641209,18.432855 C51.3177031,22.574223 52.5073477,27.5614893 51.9910134,32.4759777 C51.467249,37.4604539 49.1951656,42.16091 45.5933269,45.7116837 C41.6292992,49.6191391 36.3635855,51.8942059 30.766111,52.1176551 C25.2018951,52.3406394 19.7985473,50.5233994 15.5541801,47.0030855 C15.1547227,46.6716319 14.5583082,46.7223207 14.2220658,47.1162052 C13.8858234,47.5099735 13.9372446,48.0978938 14.3368199,48.4293474 C18.6912236,52.0409244 24.1671036,54.0001163 29.8535036,54 C30.1824338,54 30.5126614,53.9933733 30.8428889,53.980236 C36.9163628,53.7378366 42.6296528,51.2694316 46.9306304,47.029825 C50.8386373,43.1774762 53.3039037,38.0770901 53.8721309,32.6681534 C54.4321024,27.3369938 53.1407949,21.9258481 50.235972,17.4314025 Z" id="Shape"></path>
                </g>
            </g>
        </g>
    </g>
</svg>