<?xml version="1.0" encoding="UTF-8"?>
<svg width="59px" height="45px" viewBox="0 0 59 45" version="1.1" xmlns="http://www.w3.org/2000/svg" xmlns:xlink="http://www.w3.org/1999/xlink">
    <!-- Generator: Sketch 50.2 (55047) - http://www.bohemiancoding.com/sketch -->
    <title>trampoline</title>
    <desc>Created with Sketch.</desc>
    <defs></defs>
    <g id="Welcome" stroke="none" stroke-width="1" fill="none" fill-rule="evenodd">
        <g id="Opportunities-Desktop" transform="translate(-756.000000, -1484.000000)" fill="#FFFFFF" fill-rule="nonzero">
            <g id="Group" transform="translate(81.000000, 1235.000000)">
                <g id="trampoline" transform="translate(675.000000, 249.000000)">
                    <path d="M29.5,7 C24.9878926,7 14,7.66342222 14,12.5 C14,17.3353556 24.987663,18 29.5,18 C34.0121074,18 45,17.3365778 45,12.5 C45,7.66464444 34.012337,7 29.5,7 Z M29.5,14.3333333 C26.2769185,14.3333333 20.6723481,13.9370889 17.9425111,12.5 C20.6670667,11.0656 26.2443111,10.6666667 29.5,10.6666667 C32.7212444,10.6666667 38.3277667,11.0627889 41.0574889,12.5 C38.3220259,13.9402667 32.7202111,14.3333333 29.5,14.3333333 Z" id="Shape"></path>
                    <path d="M56.1570527,8.42907692 C50.4741543,2.02430769 38.223127,0 29.5,0 C20.7270918,0 8.49841992,2.05523077 2.84294727,8.42907692 C0.956445312,10.5551538 0,12.96 0,15.5769231 L0,29.4230769 C0,30.3789231 0.773914062,31.1538462 1.72851562,31.1538462 C2.68311719,31.1538462 3.45703125,30.3789231 3.45703125,29.4230769 L3.45703125,23.3727692 C9.06122461,28.9389231 19.8098262,30.9109615 27.7714844,31.1292692 L27.7714844,43.2692308 C27.7714844,44.2250769 28.5453984,45 29.5,45 C30.4546016,45 31.2285156,44.2250769 31.2285156,43.2692308 L31.2285156,31.1292692 C39.192248,30.9109615 49.9446523,28.9331538 55.5429687,23.3727692 L55.5429687,29.4230769 C55.5429687,30.3789231 56.3168828,31.1538462 57.2714844,31.1538462 C58.2260859,31.1538462 59,30.3789231 59,29.4230769 L59,15.5769231 C59,12.96 58.0434395,10.5551538 56.1570527,8.42907692 Z M29.5,3.46153846 C42.8229375,3.46153846 52.0859375,8.09296154 52.0859375,12.1153846 C52.0859375,16.1337692 42.8323867,20.7692308 29.5,20.7692308 C16.2581875,20.7692308 6.9140625,16.1697692 6.9140625,12.1153846 C6.9140625,8.09642308 16.1647324,3.46153846 29.5,3.46153846 Z M29.5,27.6923077 C16.8750371,27.6923077 3.45703125,23.4461538 3.45703125,15.5769231 C3.45703125,14.9678077 3.53781055,14.3805 3.69199414,13.815 C4.47939062,16.6418077 7.23660352,19.1676923 11.6537676,21.0507692 C16.4637656,23.1015 22.8016562,24.2307692 29.5,24.2307692 C41.8997949,24.2307692 53.5116172,20.2639615 55.3080059,13.815 C55.4621895,14.3803846 55.5429687,14.9676923 55.5429687,15.5769231 C55.5429687,23.4461538 42.1250781,27.6923077 29.5,27.6923077 Z" id="Shape"></path>
                </g>
            </g>
        </g>
    </g>
</svg>