<?xml version="1.0" encoding="UTF-8"?>
<svg width="58px" height="41px" viewBox="0 0 58 41" version="1.1" xmlns="http://www.w3.org/2000/svg" xmlns:xlink="http://www.w3.org/1999/xlink">
    <!-- Generator: Sketch 50.2 (55047) - http://www.bohemiancoding.com/sketch -->
    <title>wifi-signal</title>
    <desc>Created with Sketch.</desc>
    <defs></defs>
    <g id="Welcome" stroke="none" stroke-width="1" fill="none" fill-rule="evenodd">
        <g id="Opportunities-Desktop" transform="translate(-137.000000, -1277.000000)" fill="#FFFFFF" fill-rule="nonzero">
            <g id="Group" transform="translate(81.000000, 1235.000000)">
                <g id="wifi-signal" transform="translate(56.000000, 42.000000)">
                    <path d="M57.8894285,11.862625 C57.8671618,11.8303705 57.8418413,11.800124 57.8137216,11.7723877 C50.1171943,4.18091012 39.8842955,0 29.000063,0 C18.1164667,0 7.88445853,4.1800316 0.188312924,11.7707561 C0.0687087694,11.8878512 0,12.0481197 0,12.2165458 C0,12.382964 0.066927431,12.5426049 0.186404347,12.6603275 L4.39965154,16.8162623 C4.51900121,16.933985 4.6807213,17 4.8494395,17 C5.0181577,17 5.18000502,16.9338595 5.29922746,16.8162623 C11.6402834,10.5612754 20.0573622,7.11669644 29.000063,7.11669644 C37.9426366,7.11669644 46.3597153,10.5614009 52.7008985,16.8161368 C52.8202482,16.9338595 52.9819683,16.9998745 53.1505593,16.9998745 C53.3192775,16.9998745 53.481252,16.933734 53.6003472,16.8161368 L57.8135944,12.660202 C57.9329441,12.5424794 57.9999988,12.382964 57.9999988,12.2164203 C58.0002532,12.090289 57.9614455,11.9670442 57.8894285,11.862625 Z" id="Shape"></path>
                    <path d="M28.9999288,11 C21.1458012,11 13.753763,14.0902946 8.18527558,19.7015687 C7.93822038,19.9506441 7.93822038,20.3544191 8.18540214,20.6033669 L12.3633181,24.8131616 C12.4820362,24.9327892 12.6429005,25 12.8107259,25 C12.9785514,25 13.1395422,24.9327892 13.2581338,24.8131616 C17.4698427,20.5691876 23.0603524,18.2317306 28.9999288,18.2317306 C34.9397584,18.2317306 40.5302681,20.5691876 44.7415973,24.8131616 C44.8603154,24.9327892 45.0213063,25 45.1891317,25 C45.3569571,25 45.517948,24.9327892 45.6365395,24.8131616 L49.814582,20.6033669 C49.9333002,20.4837393 50,20.3216426 50,20.152404 C50,19.9831654 49.9335533,19.8210687 49.814582,19.7014411 C44.2460947,14.0904221 36.8540564,11 28.9999288,11 Z" id="Shape"></path>
                    <path d="M29.0000625,22 C24.1637628,22 19.6118852,23.9764317 16.1830748,27.5655322 C16.065732,27.6882254 16,27.8544758 16,28.0281821 C16,28.2016267 16.065607,28.368008 16.1830748,28.4905703 L20.3081944,32.8083738 C20.4254123,32.9310669 20.5842437,33 20.7499483,33 C20.9156529,33 21.0746094,32.9310669 21.1917023,32.8083738 C23.2810047,30.6214802 26.0539948,29.417178 29.0000625,29.417178 C31.9461301,29.417178 34.7193702,30.6217418 36.8085477,32.8083738 C36.9257655,32.9310669 37.084597,33 37.2501766,33 C37.4157563,33 37.5748377,32.9310669 37.6919306,32.8083738 L41.8170501,28.4905703 C42.0609833,28.2351123 42.0609833,27.8209903 41.8170501,27.5657939 C38.3883647,23.9764317 33.8364871,22 29.0000625,22 Z" id="Shape"></path>
                    <path d="M28.5000529,34 C26.8665311,34 25.3312308,34.6626504 24.1768561,35.8658442 C23.9410278,36.1116946 23.9410278,36.5101156 24.1769769,36.7558401 L28.0729765,40.8155808 C28.1862997,40.9336594 28.3398539,41 28.5000529,41 C28.6602518,41 28.8140476,40.9336594 28.9271292,40.8155808 L32.8231288,36.7558401 C33.0589571,36.5099897 33.0589571,36.1115687 32.8231288,35.8657183 C31.6686332,34.6626504 30.133333,34 28.5000529,34 Z" id="Shape"></path>
                </g>
            </g>
        </g>
    </g>
</svg>