<?xml version="1.0" encoding="UTF-8"?>
<svg width="26px" height="26px" viewBox="0 0 26 26" version="1.1" xmlns="http://www.w3.org/2000/svg" xmlns:xlink="http://www.w3.org/1999/xlink">
    <!-- Generator: Sketch 50.2 (55047) - http://www.bohemiancoding.com/sketch -->
    <title>compass</title>
    <desc>Created with Sketch.</desc>
    <defs></defs>
    <g id="Welcome" stroke="none" stroke-width="1" fill="none" fill-rule="evenodd">
        <g id="Map-Desktop" transform="translate(-734.000000, -563.000000)" fill="#4A4A4A" fill-rule="nonzero">
            <g id="compass" transform="translate(734.000000, 563.000000)">
                <path d="M13,0 C5.82020568,0 0,5.82020568 0,13 C0,20.1797943 5.82020568,26 13,26 C20.1797943,26 26,20.1797943 26,13 C25.9914703,5.82377626 20.1762237,0.00852967578 13,0 Z M13,24.375 C6.71780393,24.375 1.625,19.2821961 1.625,13 C1.625,6.71780393 6.71780393,1.625 13,1.625 C19.2821961,1.625 24.375,6.71780393 24.375,13 C24.3682556,19.2794189 19.2794189,24.3682556 13,24.375 Z" id="Shape"></path>
                <path d="M18.9166107,5.97512815 L10.8729401,10.5714264 C10.8640137,10.5763855 10.8590546,10.5861054 10.8509217,10.5918579 C10.8009338,10.6277618 10.7557068,10.6698151 10.716034,10.7168274 C10.6692199,10.7566986 10.6271668,10.802124 10.5908661,10.8517151 C10.5853119,10.859848 10.5753937,10.8648071 10.5706329,10.8737335 L5.97433474,18.9174042 C5.75196837,19.3071899 5.88804628,19.8034973 6.27783203,20.0256653 C6.52717589,20.1678925 6.8330536,20.1678925 7.08259581,20.0256653 L15.1262665,15.4293671 C15.1351929,15.424408 15.140152,15.4146881 15.1482849,15.4091339 C15.1980743,15.3730316 15.2434998,15.3309784 15.2831726,15.283966 C15.3299865,15.2440948 15.3718414,15.1986694 15.4081421,15.1490783 C15.4138946,15.1409454 15.4236145,15.1359863 15.4285736,15.1270599 L20.0248719,7.08338927 C20.2470398,6.69340516 20.1111603,6.19729612 19.7213745,5.97512815 C19.4720307,5.83290099 19.1659546,5.83290099 18.9166107,5.97512815 Z M8.86351014,17.1364899 L11.4563293,12.6034698 L13.3981171,14.5454559 L8.86351014,17.1364899 Z M14.5454559,13.3989105 L12.6034698,11.4571228 L17.1364899,8.86608887 L14.5454559,13.3989105 Z" id="Shape"></path>
            </g>
        </g>
    </g>
</svg>