<?xml version="1.0" encoding="UTF-8"?>
<svg width="29px" height="19px" viewBox="0 0 29 19" version="1.1" xmlns="http://www.w3.org/2000/svg" xmlns:xlink="http://www.w3.org/1999/xlink">
    <!-- Generator: Sketch 50.2 (55047) - http://www.bohemiancoding.com/sketch -->
    <title>Group 8</title>
    <desc>Created with Sketch.</desc>
    <defs></defs>
    <g id="Welcome" stroke="none" stroke-width="1" fill="none" fill-rule="evenodd" stroke-linecap="round" stroke-linejoin="round">
        <g id="Map-Desktop" transform="translate(-733.000000, -713.000000)" stroke="#4A4A4A" stroke-width="2.04407385">
            <g id="Group-8" transform="translate(735.000000, 714.000000)">
                <g id="email-02">
                    <path d="M0.089502182,0.455232479 L9.73454111,7.56538059 C10.4509686,8.09246663 11.1909206,8.59088272 11.8731307,9.16207638 C12.3863922,9.58992028 12.7756155,9.54801804 13.2995699,9.16207638 C16.9351722,6.44945784 20.5921603,3.76771463 24.2427327,1.0771499 C24.4715618,0.90954095 24.7025294,0.74413738 25.0639511,0.483902431 C25.1067229,0.898514045 25.168742,9.54360728 25.1644648,14.5542327 C25.1644648,15.8532021 24.7217768,16.3185375 23.4835334,16.3185375 C16.2123289,16.3185375 8.94112438,16.3185375 1.66991987,16.3185375 C0.465893945,16.3185375 0.00395859953,15.8509967 0.00182000997,14.6270103 C-0.0110115274,9.55463418 0.0467303908,0.876460236 0.089502182,0.455232479 Z" id="Shape"></path>
                    <polygon id="Shape" points="13.0597134 8.93271676 0.208267777 0.455232479 24.8242069 0.455232479"></polygon>
                </g>
            </g>
        </g>
    </g>
</svg>