<?xml version="1.0" encoding="UTF-8"?>
<svg width="22px" height="31px" viewBox="0 0 22 31" version="1.1" xmlns="http://www.w3.org/2000/svg" xmlns:xlink="http://www.w3.org/1999/xlink">
    <!-- Generator: Sketch 50.2 (55047) - http://www.bohemiancoding.com/sketch -->
    <title>icon place</title>
    <desc>Created with Sketch.</desc>
    <defs></defs>
    <g id="Welcome" stroke="none" stroke-width="1" fill="none" fill-rule="evenodd">
        <g id="Map-Desktop" transform="translate(-735.000000, -507.000000)">
            <g id="icon-place" transform="translate(730.000000, 506.000000)">
                <rect id="Rectangle" x="0" y="0" width="32" height="32"></rect>
                <g id="punkt-02" transform="translate(6.666667, 2.666667)" fill-rule="nonzero" stroke="#4A4A4A" stroke-linecap="round" stroke-linejoin="round" stroke-width="1.74881874">
                    <path d="M9.3537708,28 C8.72005713,27.0540624 8.12325882,26.2490962 7.61259634,25.3889672 C5.91243895,22.5286809 4.19177303,19.6683945 2.58185319,16.7386441 C1.60769787,14.9693527 0.740186917,13.1265111 0.266439804,11.1406551 C-0.486223359,7.98003872 0.379236736,5.21577628 2.56544636,2.92550415 C5.08184336,0.283825419 8.24425916,-0.539528433 11.769676,0.336945022 C16.1441461,1.42385383 19.1137817,5.68976659 18.6113226,10.0966506 C18.4062373,11.9762673 17.655625,13.721042 16.7655546,15.3718358 C15.1925502,18.291371 13.5621218,21.1802602 11.9029815,24.0507618 C11.1359623,25.3664935 10.2540954,26.6107181 9.3537708,28 Z M9.32710971,4.68253719 C6.74652758,4.68479844 4.65565065,6.76926294 4.65527717,9.34004184 C4.6549037,11.9108207 6.7451749,13.995888 9.32575626,13.9988934 C11.9063376,14.0018988 14.0014968,11.9217058 14.007157,9.3509331 C14.0137333,8.1118641 13.5229685,6.92156068 12.6440387,6.04481898 C11.7651088,5.16807729 10.5709117,4.67761368 9.32710971,4.68253719 Z" id="Shape"></path>
                </g>
            </g>
        </g>
    </g>
</svg>