<?xml version="1.0" encoding="UTF-8"?>
<svg width="21px" height="31px" viewBox="0 0 21 31" version="1.1" xmlns="http://www.w3.org/2000/svg" xmlns:xlink="http://www.w3.org/1999/xlink">
    <!-- Generator: Sketch 50.2 (55047) - http://www.bohemiancoding.com/sketch -->
    <title>phone-02</title>
    <desc>Created with Sketch.</desc>
    <defs></defs>
    <g id="Welcome" stroke="none" stroke-width="1" fill="none" fill-rule="evenodd">
        <g id="Map-Desktop" transform="translate(-737.000000, -614.000000)" fill="#4A4A4A" fill-rule="nonzero">
            <g id="phone-02" transform="translate(737.000000, 614.000000)">
                <path d="M20.5060924,1.51430274 L20.5060924,29.6374657 C20.5060924,30.3900729 19.8959837,31.0001816 19.1433765,31.0001816 C19.1416076,31.0001816 19.1398388,31.0001782 19.1380699,31.0001713 L1.85131682,30.9328533 C1.10078684,30.9299306 0.493907562,30.3206834 0.493907562,29.5701477 L0.493907562,1.37893193 C0.493907562,0.626324717 1.10401625,0.0162160261 1.85662346,0.0162160261 C1.86018049,0.0162160261 1.86373751,0.0162299532 1.86729443,0.0162578071 L19.1540475,0.151628622 C19.9024678,0.157489426 20.5060924,0.765859474 20.5060924,1.51430274 Z M18.8903977,3.66571496 C18.6918663,3.02995098 18.4334009,2.82918341 17.7104469,2.82918341 L3.16895796,2.82918341 C2.37108646,2.82918341 1.9515484,3.31855437 1.9515484,4.20946046 C1.9515484,7.85673798 1.9515484,11.5040155 1.9515484,15.151293 C1.9515484,19.036982 1.9215814,22.9184884 1.91408964,26.8041774 C1.91408964,27.7410927 2.2886772,28.1258973 3.09778632,28.1300799 L17.7778727,28.1928198 C18.5869818,28.1928198 18.9016353,27.8456592 18.9016353,26.9380225 C18.9016353,19.392508 18.9116243,11.8469934 18.9316023,4.30147893 C18.9353482,4.08398073 18.9053812,3.85393455 18.8903977,3.66571496 Z" id="Shape"></path>
            </g>
        </g>
    </g>
</svg>