<?xml version="1.0" encoding="UTF-8"?>
<svg width="38px" height="38px" viewBox="0 0 38 38" version="1.1" xmlns="http://www.w3.org/2000/svg" xmlns:xlink="http://www.w3.org/1999/xlink">
    <!-- Generator: Sketch 50.2 (55047) - http://www.bohemiancoding.com/sketch -->
    <title>insta</title>
    <desc>Created with Sketch.</desc>
    <defs></defs>
    <g id="Symbols" stroke="none" stroke-width="1" fill="none" fill-rule="evenodd">
        <g id="insta" transform="translate(-5.000000, -5.000000)" fill="#4a4a4a">
            <path d="M30.3333333,24 C30.3333333,22.2517274 29.7148499,20.7591208 28.4778646,19.5221354 C27.2408792,18.2851501 25.7482726,17.6666667 24,17.6666667 C22.2517274,17.6666667 20.7591208,18.2851501 19.5221354,19.5221354 C18.2851501,20.7591208 17.6666667,22.2517274 17.6666667,24 C17.6666667,25.7482726 18.2851501,27.2408792 19.5221354,28.4778646 C20.7591208,29.7148499 22.2517274,30.3333333 24,30.3333333 C25.7482726,30.3333333 27.2408792,29.7148499 28.4778646,28.4778646 C29.7148499,27.2408792 30.3333333,25.7482726 30.3333333,24 Z M33.7473958,24 C33.7473958,26.7048746 32.7990546,29.0056329 30.9023438,30.9023438 C29.0056329,32.7990546 26.7048746,33.7473958 24,33.7473958 C21.2951254,33.7473958 18.9943671,32.7990546 17.0976563,30.9023438 C15.2009454,29.0056329 14.2526042,26.7048746 14.2526042,24 C14.2526042,21.2951254 15.2009454,18.9943671 17.0976563,17.0976563 C18.9943671,15.2009454 21.2951254,14.2526042 24,14.2526042 C26.7048746,14.2526042 29.0056329,15.2009454 30.9023438,17.0976563 C32.7990546,18.9943671 33.7473958,21.2951254 33.7473958,24 Z M36.4192708,13.8567708 C36.4192708,14.4835101 36.1966168,15.019529 35.7513021,15.4648438 C35.3059874,15.9101585 34.7699684,16.1328125 34.1432292,16.1328125 C33.5164899,16.1328125 32.980471,15.9101585 32.5351562,15.4648438 C32.0898415,15.019529 31.8671875,14.4835101 31.8671875,13.8567708 C31.8671875,13.2300316 32.0898415,12.6940126 32.5351562,12.2486979 C32.980471,11.8033832 33.5164899,11.5807292 34.1432292,11.5807292 C34.7699684,11.5807292 35.3059874,11.8033832 35.7513021,12.2486979 C36.1966168,12.6940126 36.4192708,13.2300316 36.4192708,13.8567708 Z M24,8.4140625 C23.884548,8.4140625 23.253695,8.40993928 22.1074219,8.40169271 C20.9611488,8.39344614 20.0911488,8.39344614 19.4973958,8.40169271 C18.9036429,8.40993928 18.1078609,8.43467861 17.110026,8.47591146 C16.1121912,8.5171443 15.2628073,8.59960876 14.561849,8.72330729 C13.8608906,8.84700583 13.2712698,8.99956507 12.7929687,9.18098958 C11.9683118,9.51085234 11.2426247,9.98914617 10.6158854,10.6158854 C9.98914617,11.2426247 9.51085234,11.9683118 9.18098958,12.7929687 C8.99956507,13.2712698 8.84700583,13.8608906 8.72330729,14.561849 C8.59960876,15.2628073 8.5171443,16.1121912 8.47591146,17.110026 C8.43467861,18.1078609 8.40993928,18.9036429 8.40169271,19.4973958 C8.39344614,20.0911488 8.39344614,20.9611488 8.40169271,22.1074219 C8.40993928,23.253695 8.4140625,23.884548 8.4140625,24 C8.4140625,24.115452 8.40993928,24.746305 8.40169271,25.8925781 C8.39344614,27.0388512 8.39344614,27.9088512 8.40169271,28.5026042 C8.40993928,29.0963571 8.43467861,29.8921391 8.47591146,30.889974 C8.5171443,31.8878088 8.59960876,32.7371927 8.72330729,33.438151 C8.84700583,34.1391094 8.99956507,34.7287302 9.18098958,35.2070313 C9.51085234,36.0316882 9.98914617,36.7573753 10.6158854,37.3841146 C11.2426247,38.0108538 11.9683118,38.4891477 12.7929687,38.8190104 C13.2712698,39.0004349 13.8608906,39.1529942 14.561849,39.2766927 C15.2628073,39.4003912 16.1121912,39.4828557 17.110026,39.5240885 C18.1078609,39.5653214 18.9036429,39.5900607 19.4973958,39.5983073 C20.0911488,39.6065539 20.9611488,39.6065539 22.1074219,39.5983073 C23.253695,39.5900607 23.884548,39.5859375 24,39.5859375 C24.115452,39.5859375 24.746305,39.5900607 25.8925781,39.5983073 C27.0388512,39.6065539 27.9088512,39.6065539 28.5026042,39.5983073 C29.0963571,39.5900607 29.8921391,39.5653214 30.889974,39.5240885 C31.8878088,39.4828557 32.7371927,39.4003912 33.438151,39.2766927 C34.1391094,39.1529942 34.7287302,39.0004349 35.2070313,38.8190104 C36.0316882,38.4891477 36.7573753,38.0108538 37.3841146,37.3841146 C38.0108538,36.7573753 38.4891477,36.0316882 38.8190104,35.2070313 C39.0004349,34.7287302 39.1529942,34.1391094 39.2766927,33.438151 C39.4003912,32.7371927 39.4828557,31.8878088 39.5240885,30.889974 C39.5653214,29.8921391 39.5900607,29.0963571 39.5983073,28.5026042 C39.6065539,27.9088512 39.6065539,27.0388512 39.5983073,25.8925781 C39.5900607,24.746305 39.5859375,24.115452 39.5859375,24 C39.5859375,23.884548 39.5900607,23.253695 39.5983073,22.1074219 C39.6065539,20.9611488 39.6065539,20.0911488 39.5983073,19.4973958 C39.5900607,18.9036429 39.5653214,18.1078609 39.5240885,17.110026 C39.4828557,16.1121912 39.4003912,15.2628073 39.2766927,14.561849 C39.1529942,13.8608906 39.0004349,13.2712698 38.8190104,12.7929687 C38.4891477,11.9683118 38.0108538,11.2426247 37.3841146,10.6158854 C36.7573753,9.98914617 36.0316882,9.51085234 35.2070313,9.18098958 C34.7287302,8.99956507 34.1391094,8.84700583 33.438151,8.72330729 C32.7371927,8.59960876 31.8878088,8.5171443 30.889974,8.47591146 C29.8921391,8.43467861 29.0963571,8.40993928 28.5026042,8.40169271 C27.9088512,8.39344614 27.0388512,8.39344614 25.8925781,8.40169271 C24.746305,8.40993928 24.115452,8.4140625 24,8.4140625 Z M43,24 C43,27.7769286 42.9587678,30.3910518 42.8763021,31.8424479 C42.7113707,35.2730206 41.6888115,37.928376 39.8085937,39.8085937 C37.928376,41.6888115 35.2730206,42.7113707 31.8424479,42.8763021 C30.3910518,42.9587678 27.7769286,43 24,43 C20.2230714,43 17.6089482,42.9587678 16.1575521,42.8763021 C12.7269794,42.7113707 10.071624,41.6888115 8.19140625,39.8085937 C6.31118852,37.928376 5.2886293,35.2730206 5.12369792,31.8424479 C5.04123223,30.3910518 5,27.7769286 5,24 C5,20.2230714 5.04123223,17.6089482 5.12369792,16.1575521 C5.2886293,12.7269794 6.31118852,10.071624 8.19140625,8.19140625 C10.071624,6.31118852 12.7269794,5.2886293 16.1575521,5.12369792 C17.6089482,5.04123223 20.2230714,5 24,5 C27.7769286,5 30.3910518,5.04123223 31.8424479,5.12369792 C35.2730206,5.2886293 37.928376,6.31118852 39.8085937,8.19140625 C41.6888115,10.071624 42.7113707,12.7269794 42.8763021,16.1575521 C42.9587678,17.6089482 43,20.2230714 43,24 Z"></path>
        </g>
    </g>
</svg>