<svg width="70" height="70" viewBox="0 0 70 70" fill="none" xmlns="http://www.w3.org/2000/svg">
<g clip-path="url(#clip0)">
<path d="M69.6516 33.8112C69.4951 33.5789 65.7589 28.0546 59.6877 22.463C56.0935 19.1524 52.4219 16.5083 48.7748 14.6028C44.1195 12.1707 39.4849 10.9376 34.9999 10.9376C30.5154 10.9376 25.8809 12.1707 21.225 14.6028C17.5779 16.5083 13.9063 19.1524 10.3121 22.463C4.24146 28.0546 0.504672 33.5789 0.348193 33.8112C-0.115902 34.5028 -0.115902 35.4064 0.348193 36.098C0.504672 36.3303 4.24146 41.8546 10.3121 47.4462C13.9063 50.7563 17.5779 53.4009 21.225 55.3059C25.8809 57.738 30.5154 58.9711 34.9999 58.9711C39.4849 58.9711 44.1195 57.738 48.7748 55.3059C52.4219 53.4009 56.0935 50.7563 59.6877 47.4462C65.7589 41.8546 69.4951 36.3303 69.6516 36.098C70.1162 35.4064 70.1162 34.5028 69.6516 33.8112ZM34.9999 54.8696C34.3868 54.8696 33.7775 54.8407 33.1724 54.7868C33.1606 54.7857 33.1499 54.7831 33.1382 54.782C22.8459 53.8292 15.0849 45.3052 15.0849 34.9546C15.0849 24.6035 22.8459 16.0795 33.1382 15.1267C33.1499 15.1256 33.1612 15.123 33.1729 15.1219C33.7785 15.069 34.3873 15.0391 34.9999 15.0391C35.613 15.0391 36.2224 15.068 36.828 15.1219C36.8392 15.123 36.8504 15.1256 36.8616 15.1267C47.154 16.08 54.9154 24.6035 54.9154 34.9546C54.9154 45.3052 47.154 53.8292 36.8616 54.782C36.8504 54.7831 36.8392 54.7857 36.828 54.7868C36.2229 54.8407 35.6135 54.8696 34.9999 54.8696ZM4.57418 34.9552C5.91573 33.15 8.83168 29.4624 12.8141 25.7453C11.6141 28.6357 10.9834 31.7578 10.9834 34.9546C10.9834 38.1563 11.6162 41.2837 12.8195 44.1772C8.84076 40.4682 5.91787 36.7656 4.57418 34.9552ZM57.1803 44.1772C58.3841 41.2832 59.017 38.1563 59.017 34.9546C59.017 31.753 58.3841 28.6255 57.1803 25.7315C61.1601 29.441 64.083 33.1436 65.4262 34.9546C64.0825 36.7651 61.1601 40.4677 57.1803 44.1772Z" fill="#313131"/>
<path d="M37.0508 47.8265C42.5985 46.9459 46.9917 42.5532 47.8724 37.0054H49.278C50.4107 37.0054 51.3288 36.0874 51.3288 34.9547C51.3288 33.8219 50.4107 32.9039 49.278 32.9039H47.8724C46.9917 27.3561 42.5985 22.9629 37.0508 22.0823V20.6766C37.0508 19.5439 36.1327 18.6259 35 18.6259C33.8672 18.6259 32.9492 19.5439 32.9492 20.6766V22.0823C27.4014 22.9629 23.0088 27.3561 22.1281 32.9039H20.7225C19.5897 32.9039 18.6717 33.8219 18.6717 34.9547C18.6717 36.0874 19.5897 37.0054 20.7225 37.0054H22.1281C23.0088 42.5532 27.4014 46.9459 32.9492 47.8265V49.2327C32.9492 50.3649 33.8672 51.2835 35 51.2835C36.1327 51.2835 37.0508 50.3649 37.0508 49.2327V47.8265ZM26.3082 37.0054H27.3117C28.4444 37.0054 29.3625 36.0869 29.3625 34.9547C29.3625 33.8219 28.4444 32.9039 27.3117 32.9039H26.3082C27.082 29.6232 29.6685 27.0362 32.9492 26.2623V27.2664C32.9492 28.3991 33.8672 29.3172 35 29.3172C36.1327 29.3172 37.0508 28.3991 37.0508 27.2664V26.2623C40.3315 27.0362 42.9179 29.6232 43.6923 32.9039H42.6883C41.5555 32.9039 40.6375 33.8219 40.6375 34.9547C40.6375 36.0869 41.5555 37.0054 42.6883 37.0054H43.6923C42.9179 40.2862 40.3315 42.8726 37.0508 43.6465V42.643C37.0508 41.5102 36.1327 40.5922 35 40.5922C33.8672 40.5922 32.9492 41.5102 32.9492 42.643V43.6465C29.6685 42.8726 27.082 40.2862 26.3082 37.0054Z" fill="#313131"/>
</g>
<defs>
<clipPath id="clip0">
<rect width="70" height="70" fill="white"/>
</clipPath>
</defs>
</svg>
