<?xml version="1.0" encoding="UTF-8"?>
<svg width="18px" height="17px" viewBox="0 0 18 17" version="1.1" xmlns="http://www.w3.org/2000/svg" xmlns:xlink="http://www.w3.org/1999/xlink">
    <!-- Generator: Sketch 50.2 (55047) - http://www.bohemiancoding.com/sketch -->
    <title>Group 3</title>
    <desc>Created with Sketch.</desc>
    <defs></defs>
    <g id="Welcome" stroke="none" stroke-width="1" fill="none" fill-rule="evenodd">
        <g id="Main-Mobile-Portrait" transform="translate(-70.000000, -135.000000)" fill="#4A4A4A" fill-rule="nonzero">
            <g id="contacts-popup">
                <g id="contacts" transform="translate(30.000000, 89.000000)">
                    <g id="Group-3" transform="translate(40.000000, 46.000000)">
                        <g id="mts-01">
                            <path d="M15.6825,0.10625 L2.4075,0.10625 C1.16485931,0.10625 0.1575,1.05764491 0.1575,2.23125 L0.1575,14.76875 C0.1575,15.9423551 1.16485931,16.89375 2.4075,16.89375 L15.6825,16.89375 C16.9251407,16.89375 17.9325,15.9423551 17.9325,14.76875 L17.9325,2.23125 C17.9325,1.05764491 16.9251407,0.10625 15.6825,0.10625 Z M14.1075,10.09375 C14.1144227,11.0953407 13.8569116,12.0827675 13.35825,12.96675 C12.8318024,13.8956066 11.9510106,14.6005975 10.8945,14.93875 C9.53270821,15.4117273 8.02612434,15.3434963 6.7185,14.749625 C5.61216558,14.2490116 4.76847498,13.3455923 4.38075,12.246375 C4.09360641,11.4631167 3.95720611,10.637645 3.978,9.809 C4.01235671,8.52090948 4.27237546,7.24708797 4.7475,6.03925 C5.09176717,5.09836473 5.5848527,4.21211723 6.21,3.410625 C6.57280346,2.93560499 7.02232983,2.52544392 7.5375,2.199375 C8.47419256,1.57193597 9.7347407,1.59521184 10.64475,2.25675 C11.2701935,2.68601696 11.8006592,3.22671659 12.20625,3.848375 C12.9570654,4.96645678 13.4953998,6.19976969 13.797,7.49275 C14.016684,8.34672284 14.1210134,9.22352684 14.1075,10.10225 L14.1075,10.09375 Z" id="Shape"></path>
                        </g>
                    </g>
                </g>
            </g>
        </g>
    </g>
</svg>