<?xml version="1.0" ?>
<svg xmlns="http://www.w3.org/2000/svg" xmlns:xlink="http://www.w3.org/1999/xlink" version="1.1" id="Capa_1" x="0px" y="0px" viewBox="0 0 512 512" style="enable-background:new 0 0 512 512;" xml:space="preserve" width="512px" height="512px">
	<g>
		<g>
			<g>
				<path d="M400.465,120.564c-16.544,0-32.244,3.606-46.364,10.069c-16.448-22.217-42.842-36.625-72.607-36.625    c-8.858,0-17.408,1.296-25.494,3.677c-11.368,3.347-21.81,8.857-30.835,16.073c-20.369-21.946-49.458-35.684-81.762-35.684    c-61.599,0-111.535,49.936-111.535,111.535c0,11.63,1.782,22.844,5.085,33.385C14.552,239.425,0,265.925,0,295.834    c0,49.866,40.425,90.291,90.291,90.291c1.341,0,2.671-0.043,3.997-0.101c20.148,28.95,53.66,47.902,91.604,47.902    c26.561,0,50.952-9.285,70.108-24.786c9.996-8.088,18.566-17.868,25.274-28.905c9.973,3.794,20.783,5.89,32.087,5.89    c32.507,0,60.991-17.186,76.891-42.96c3.364,0.306,6.769,0.47,10.213,0.47C462.064,343.635,512,293.699,512,232.1    C512,170.5,462.064,120.564,400.465,120.564z" data-original="#000000" class="active-path" data-old_color="#000000" fill="#1f70b1" />
			</g>
		</g>
	</g>
</svg>