<svg width="32" height="32" viewBox="0 0 32 32" fill="none" xmlns="http://www.w3.org/2000/svg">
    <path d="M7.10937 24.2959L7.81931 23.1133C7.97846 22.8516 8.12011 22.6025 8.24511 22.3662L8.3496 22.1719H8.36423L8.46872 22.3633L8.56929 22.5577C8.6679 22.7452 8.77141 22.9307 8.87982 23.1133L9.58682 24.296H10.6825L9.10637 21.7569L10.5849 19.3741H9.48135L8.82509 20.4737C8.70989 20.6661 8.61415 20.837 8.53703 20.9855L8.44717 21.1554C8.42764 21.1935 8.39734 21.2511 8.35632 21.3283H8.34268L8.25184 21.1554L8.16197 20.9816C8.07015 20.8136 7.9735 20.6427 7.86999 20.4698L7.21373 19.3741H6.09961L7.59962 21.7569L5.98441 24.296H7.10937V24.2959Z" fill="#313131" />
    <path d="M14.332 23.459H12.0244V19.3741H11.0898V24.2959H14.332V23.459Z" fill="#313131" />
    <path d="M16.6798 23.5888C16.1436 23.5888 15.8155 23.5507 15.6954 23.4736C15.5753 23.3965 15.5148 23.1865 15.5148 22.8428L15.5118 22.7383H14.6026L14.6065 22.9179C14.6065 23.4902 14.7335 23.8701 14.9864 24.0576C15.2403 24.2451 15.754 24.3389 16.5284 24.3389C17.3888 24.3389 17.9454 24.2431 18.1984 24.0528C18.4503 23.8613 18.5773 23.4385 18.5773 22.7852C18.5773 22.2539 18.4689 21.9043 18.254 21.7354C18.0392 21.5674 17.5646 21.4629 16.8312 21.4219C16.2111 21.3887 15.8459 21.3399 15.7355 21.2774C15.6241 21.2149 15.5695 21.0284 15.5695 20.7188C15.5695 20.4571 15.6369 20.2852 15.7726 20.2032C15.9084 20.1212 16.1974 20.0802 16.6398 20.0802C17.0158 20.0802 17.2541 20.1163 17.3546 20.1866C17.4552 20.2579 17.5167 20.4317 17.5382 20.7081C17.5382 20.7296 17.5411 20.7628 17.546 20.8087H18.4582V20.6212C18.4582 20.1114 18.3293 19.7696 18.0724 19.5938C17.8146 19.418 17.3166 19.3301 16.5753 19.3301C15.7941 19.3301 15.2726 19.4259 15.0118 19.6172C14.7511 19.8077 14.6212 20.1915 14.6212 20.7656C14.6212 21.3281 14.7287 21.6944 14.9455 21.8653C15.1613 22.0362 15.6593 22.1446 16.4386 22.1895L16.9543 22.2227C17.2453 22.2393 17.4348 22.2871 17.5227 22.3652C17.6096 22.4433 17.6535 22.6006 17.6535 22.8389C17.6535 23.1612 17.5959 23.3672 17.4807 23.4561C17.3653 23.5449 17.0977 23.5888 16.6798 23.5888Z" fill="#313131" />
    <path d="M19.8965 24.2959L20.6065 23.1133C20.7656 22.8516 20.9073 22.6025 21.0323 22.3662L21.1367 22.1719H21.1514L21.2559 22.3633L21.3564 22.5577C21.455 22.7452 21.5586 22.9307 21.667 23.1133L22.374 24.296H23.4697L21.8945 21.7569L23.373 19.3741H22.2695L21.6132 20.4737C21.497 20.6661 21.4013 20.837 21.3242 20.9855L21.2343 21.1554C21.2148 21.1935 21.1845 21.2511 21.1444 21.3283H21.1298L21.04 21.1554L20.9491 20.9816C20.8583 20.8136 20.7606 20.6427 20.6571 20.4698L20.0009 19.3741H18.8866L20.3866 21.7569L18.7714 24.296H19.8965V24.2959Z" fill="#313131" />
    <path d="M5.08005 0V17.3134H2.75522V26.4311H2.75528L5.07953 28.7554L5.08005 32H29.2448V6.68878L22.556 0H5.08005ZM25.8477 25.4311H3.75519V18.3133H25.8477V25.4311ZM23.0545 2.41384L26.8303 6.1888H23.0545V2.41384Z" fill="#1f70b1" />
</svg>